<?xml version="1.0" encoding="UTF-8"?>
<svg width="846px" height="550px" viewBox="0 0 846 550" version="1.1" xmlns="http://www.w3.org/2000/svg" xmlns:xlink="http://www.w3.org/1999/xlink">
    <!-- Generator: Sketch 41.2 (35397) - http://www.bohemiancoding.com/sketch -->
    <title>ui-schematic</title>
    <desc>Created with Sketch.</desc>
    <defs>
        <rect id="path-1" x="238" y="44" width="473" height="53"></rect>
        <mask id="mask-2" maskContentUnits="userSpaceOnUse" maskUnits="objectBoundingBox" x="0" y="0" width="473" height="53" fill="white">
            <use xlink:href="#path-1"></use>
        </mask>
        <rect id="path-3" x="238" y="114" width="473" height="388"></rect>
        <mask id="mask-4" maskContentUnits="userSpaceOnUse" maskUnits="objectBoundingBox" x="0" y="0" width="473" height="388" fill="white">
            <use xlink:href="#path-3"></use>
        </mask>
    </defs>
    <g id="ui-schematic" stroke="none" stroke-width="1" fill="none" fill-rule="evenodd">
        <rect id="Rectangle" stroke="#A8AFB1" stroke-width="4" stroke-linecap="round" stroke-dasharray="1,12" x="195" y="2" width="559" height="545"></rect>
        <rect id="Rectangle-Copy" stroke="#A8AFB1" stroke-width="4" stroke-linecap="round" stroke-dasharray="1,12" fill-opacity="0.0500169837" fill="#33383A" x="220" y="28" width="508" height="492"></rect>
        <use id="Rectangle-Copy-2" stroke="#00B4F0" mask="url(#mask-2)" stroke-width="6" fill="#FFFFFF" xlink:href="#path-1"></use>
        <use id="Rectangle-Copy-3" stroke="#00B4F0" mask="url(#mask-4)" stroke-width="6" fill="#FFFFFF" xlink:href="#path-3"></use>
        <path d="M154.272,16.2 L152.352,16.2 L152.352,26.088 C152.352,29.352 150.432,31.248 147.24,31.248 C144.048,31.248 142.08,29.352 142.08,26.088 L142.08,16.2 L140.16,16.2 L140.16,26.088 C140.16,30.456 142.824,33.096 147.24,33.096 C151.632,33.096 154.272,30.456 154.272,26.088 L154.272,16.2 Z M160.896,33 L160.896,16.2 L158.976,16.2 L158.976,33 L160.896,33 Z" id="UI" fill="#33383A"></path>
        <path d="M8.952,74 L15.816,57.2 L13.8,57.2 L7.992,71.768 L2.208,57.2 L0.144,57.2 L6.96,74 L8.952,74 Z M22.056,61.304 C18.384,61.304 15.792,63.92 15.792,67.688 C15.792,71.456 18.36,74.072 22.08,74.072 C24.192,74.072 25.968,73.304 27.168,71.96 L26.136,70.856 C25.152,71.888 23.784,72.44 22.224,72.44 C19.776,72.44 17.976,70.88 17.64,68.408 L27.96,68.408 C28.152,64.112 26.136,61.28 22.056,61.304 Z M17.64,66.872 C17.928,64.472 19.656,62.912 22.056,62.912 C24.528,62.912 26.16,64.448 26.28,66.872 L17.64,66.872 Z M33.048,61.352 L31.176,61.352 L31.176,74 L33.048,74 L33.048,67.28 C33.264,64.784 34.92,63.128 37.584,63.176 L37.584,61.28 C35.448,61.304 33.888,62.312 33.048,64.16 L33.048,61.352 Z M46.104,71.624 C45.408,72.056 44.736,72.272 44.088,72.272 C43.008,72.272 42.408,71.696 42.408,70.16 L42.408,63.272 L46.416,63.272 L46.416,61.736 L42.408,61.76 L42.408,58.424 L40.56,58.424 L40.56,61.76 L38.736,61.76 L38.736,63.272 L40.56,63.272 L40.56,70.496 C40.56,72.992 41.928,74.096 43.776,74.096 C44.784,74.072 45.744,73.736 46.632,73.136 L46.104,71.624 Z M50.376,56.432 C49.68,56.432 49.152,56.984 49.152,57.728 C49.152,58.472 49.68,59.024 50.376,59.024 C51.072,59.024 51.6,58.472 51.6,57.728 C51.6,56.984 51.072,56.432 50.376,56.432 Z M51.312,74 L51.312,61.352 L49.464,61.352 L49.464,74 L51.312,74 Z M60.864,61.304 C57.216,61.304 54.6,63.92 54.6,67.688 C54.6,71.456 57.192,74.072 60.864,74.072 C63.048,74.072 64.8,73.256 65.928,71.888 L64.848,70.736 C63.96,71.792 62.592,72.368 60.936,72.368 C58.32,72.368 56.448,70.448 56.448,67.688 C56.448,64.928 58.32,63.032 60.936,63.032 C62.472,63.032 63.744,63.584 64.704,64.496 L65.736,63.176 C64.584,61.976 62.904,61.28 60.864,61.304 Z M76.488,74 L78.312,74 L78.288,65.648 C78.264,62.936 76.536,61.28 73.416,61.28 C71.256,61.28 69.888,61.904 68.256,62.984 L69.048,64.352 C70.368,63.44 71.664,62.912 73.056,62.912 C75.288,62.912 76.44,64.016 76.44,65.864 L76.44,66.608 L72.288,66.608 C69.312,66.632 67.56,68.024 67.56,70.232 C67.56,72.416 69.24,74.096 71.856,74.096 C73.872,74.096 75.48,73.424 76.488,72.056 L76.488,74 Z M72.216,72.464 C70.44,72.464 69.312,71.552 69.312,70.16 C69.312,68.768 70.416,68.12 72.528,68.12 L76.464,68.12 L76.464,69.632 C75.984,71.384 74.352,72.464 72.216,72.464 Z M84.48,74 L84.48,56.192 L82.608,56.192 L82.608,74 L84.48,74 Z M91.344,72.176 L91.344,57.2 L89.424,57.2 L89.424,74 L98.712,74 L98.712,72.176 L91.344,72.176 Z M109.416,74 L111.24,74 L111.216,65.648 C111.192,62.936 109.464,61.28 106.344,61.28 C104.184,61.28 102.816,61.904 101.184,62.984 L101.976,64.352 C103.296,63.44 104.592,62.912 105.984,62.912 C108.216,62.912 109.368,64.016 109.368,65.864 L109.368,66.608 L105.216,66.608 C102.24,66.632 100.488,68.024 100.488,70.232 C100.488,72.416 102.168,74.096 104.784,74.096 C106.8,74.096 108.408,73.424 109.416,72.056 L109.416,74 Z M105.144,72.464 C103.368,72.464 102.24,71.552 102.24,70.16 C102.24,68.768 103.344,68.12 105.456,68.12 L109.392,68.12 L109.392,69.632 C108.912,71.384 107.28,72.464 105.144,72.464 Z M124.728,61.352 L122.808,61.352 L118.8,71.792 L114.6,61.352 L112.632,61.352 L117.864,73.904 L117.336,75.08 C116.832,76.256 116.016,76.856 115.032,76.856 C114.408,76.856 113.832,76.664 113.256,76.256 L112.464,77.816 C113.232,78.44 114.072,78.752 115.128,78.752 C116.808,78.752 118.128,77.744 118.92,75.8 L124.728,61.352 Z M131.664,61.304 C127.92,61.304 125.256,63.896 125.256,67.664 C125.256,71.456 127.92,74.072 131.664,74.072 C135.408,74.072 138.072,71.456 138.072,67.664 C138.072,63.896 135.408,61.304 131.664,61.304 Z M131.664,63.008 C134.304,63.008 136.2,64.928 136.2,67.688 C136.2,70.472 134.304,72.392 131.664,72.392 C129.024,72.392 127.128,70.472 127.128,67.688 C127.128,64.928 129.024,63.008 131.664,63.008 Z M152.328,61.352 L150.456,61.352 L150.456,67.568 C150.456,70.256 148.92,72.152 146.304,72.2 C144.12,72.2 142.8,70.88 142.8,68.648 L142.8,61.352 L140.928,61.352 L140.928,69.152 C140.928,72.2 142.704,74.072 145.656,74.072 C147.936,74.048 149.616,73.112 150.456,71.144 L150.456,74 L152.328,74 L152.328,61.352 Z M162.888,71.624 C162.192,72.056 161.52,72.272 160.872,72.272 C159.792,72.272 159.192,71.696 159.192,70.16 L159.192,63.272 L163.2,63.272 L163.2,61.736 L159.192,61.76 L159.192,58.424 L157.344,58.424 L157.344,61.76 L155.52,61.76 L155.52,63.272 L157.344,63.272 L157.344,70.496 C157.344,72.992 158.712,74.096 160.56,74.096 C161.568,74.072 162.528,73.736 163.416,73.136 L162.888,71.624 Z" id="VerticalLayout" fill="#33383A"></path>
        <path d="M169.520833,64.5 L218.490247,64.5" id="Line" stroke="#A8AFB1" stroke-width="3" stroke-linecap="round"></path>
        <path d="M169.260417,25.5 L193.745123,25.5" id="Line-Copy" stroke="#A8AFB1" stroke-width="3" stroke-linecap="round"></path>
        <path d="M786.464,75.176 L786.464,60.2 L784.544,60.2 L784.544,77 L793.832,77 L793.832,75.176 L786.464,75.176 Z M804.536,77 L806.36,77 L806.336,68.648 C806.312,65.936 804.584,64.28 801.464,64.28 C799.304,64.28 797.936,64.904 796.304,65.984 L797.096,67.352 C798.416,66.44 799.712,65.912 801.104,65.912 C803.336,65.912 804.488,67.016 804.488,68.864 L804.488,69.608 L800.336,69.608 C797.36,69.632 795.608,71.024 795.608,73.232 C795.608,75.416 797.288,77.096 799.904,77.096 C801.92,77.096 803.528,76.424 804.536,75.056 L804.536,77 Z M800.264,75.464 C798.488,75.464 797.36,74.552 797.36,73.16 C797.36,71.768 798.464,71.12 800.576,71.12 L804.512,71.12 L804.512,72.632 C804.032,74.384 802.4,75.464 800.264,75.464 Z M817.4,64.28 C815.192,64.28 813.464,65.312 812.528,67.088 L812.528,59.192 L810.656,59.192 L810.656,77 L812.528,77 L812.528,74.288 C813.464,76.04 815.192,77.072 817.448,77.072 C821.024,77.072 823.472,74.456 823.472,70.712 C823.472,66.92 820.976,64.28 817.4,64.28 Z M817.064,75.368 C814.4,75.368 812.528,73.424 812.528,70.664 C812.528,67.928 814.4,65.96 817.064,65.96 C819.704,65.96 821.576,67.952 821.576,70.664 C821.576,73.4 819.704,75.368 817.064,75.368 Z M831.752,64.304 C828.08,64.304 825.488,66.92 825.488,70.688 C825.488,74.456 828.056,77.072 831.776,77.072 C833.888,77.072 835.664,76.304 836.864,74.96 L835.832,73.856 C834.848,74.888 833.48,75.44 831.92,75.44 C829.472,75.44 827.672,73.88 827.336,71.408 L837.656,71.408 C837.848,67.112 835.832,64.28 831.752,64.304 Z M827.336,69.872 C827.624,67.472 829.352,65.912 831.752,65.912 C834.224,65.912 835.856,67.448 835.976,69.872 L827.336,69.872 Z M842.864,77 L842.864,59.192 L840.992,59.192 L840.992,77 L842.864,77 Z" id="Label" fill="#00B4F0"></path>
        <path d="M797.256,137.792 L797.256,142.856 C795.96,143.744 794.352,144.272 792.84,144.272 C789,144.272 785.904,141.32 785.904,137.6 C785.904,133.904 788.976,130.952 792.816,130.952 C794.688,130.952 796.536,131.672 797.904,132.896 L799.008,131.456 C797.4,130.04 795.144,129.152 792.816,129.152 C787.872,129.152 783.96,132.872 783.96,137.6 C783.96,142.328 787.848,146.096 792.72,146.096 C794.976,146.096 797.304,145.208 798.96,143.888 L798.96,137.792 L797.256,137.792 Z M805.224,133.352 L803.352,133.352 L803.352,146 L805.224,146 L805.224,139.28 C805.44,136.784 807.096,135.128 809.76,135.176 L809.76,133.28 C807.624,133.304 806.064,134.312 805.224,136.16 L805.224,133.352 Z M813.192,128.432 C812.496,128.432 811.968,128.984 811.968,129.728 C811.968,130.472 812.496,131.024 813.192,131.024 C813.888,131.024 814.416,130.472 814.416,129.728 C814.416,128.984 813.888,128.432 813.192,128.432 Z M814.128,146 L814.128,133.352 L812.28,133.352 L812.28,146 L814.128,146 Z M830.304,128.192 L828.432,128.192 L828.432,136.088 C827.496,134.288 825.744,133.256 823.488,133.256 C819.912,133.256 817.416,135.872 817.416,139.664 C817.416,143.432 819.912,146.096 823.512,146.096 C825.768,146.096 827.496,145.064 828.432,143.288 L828.432,146 L830.304,146 L830.304,128.192 Z M823.872,144.416 C821.184,144.416 819.288,142.448 819.288,139.712 C819.288,136.952 821.184,134.96 823.872,134.96 C826.536,134.96 828.432,136.952 828.432,139.712 C828.432,142.448 826.536,144.416 823.872,144.416 Z" id="Grid" fill="#00B4F0"></path>
        <path d="M711.677083,69.5 L775.337321,69.5" id="Line-Copy-2" stroke="#00B4F0" stroke-width="3" stroke-linecap="round"></path>
        <path d="M711.677083,138.5 L775.337321,138.5" id="Line-Copy-3" stroke="#00B4F0" stroke-width="3" stroke-linecap="round"></path>
    </g>
</svg>