<?xml version="1.0" encoding="UTF-8"?>
<svg width="1201px" height="623px" viewBox="0 0 1201 623" version="1.1" xmlns="http://www.w3.org/2000/svg" xmlns:xlink="http://www.w3.org/1999/xlink">
    <!-- Generator: Sketch 41.2 (35397) - http://www.bohemiancoding.com/sketch -->
    <title>Group</title>
    <desc>Created with Sketch.</desc>
    <defs>
        <rect id="path-1" x="0" y="0" width="443" height="63"></rect>
        <mask id="mask-2" maskContentUnits="userSpaceOnUse" maskUnits="objectBoundingBox" x="0" y="0" width="443" height="63" fill="white">
            <use xlink:href="#path-1"></use>
        </mask>
        <rect id="path-3" x="0" y="0" width="621" height="43"></rect>
        <mask id="mask-4" maskContentUnits="userSpaceOnUse" maskUnits="objectBoundingBox" x="0" y="0" width="621" height="43" fill="white">
            <use xlink:href="#path-3"></use>
        </mask>
        <rect id="path-5" x="0" y="0" width="163" height="63"></rect>
        <mask id="mask-6" maskContentUnits="userSpaceOnUse" maskUnits="objectBoundingBox" x="0" y="0" width="163" height="63" fill="white">
            <use xlink:href="#path-5"></use>
        </mask>
        <rect id="path-7" x="0" y="0" width="200" height="324"></rect>
        <mask id="mask-8" maskContentUnits="userSpaceOnUse" maskUnits="objectBoundingBox" x="0" y="0" width="200" height="324" fill="white">
            <use xlink:href="#path-7"></use>
        </mask>
        <rect id="path-9" x="0" y="0" width="152" height="279"></rect>
        <mask id="mask-10" maskContentUnits="userSpaceOnUse" maskUnits="objectBoundingBox" x="0" y="0" width="152" height="279" fill="white">
            <use xlink:href="#path-9"></use>
        </mask>
        <rect id="path-11" x="0" y="0" width="405" height="324"></rect>
        <mask id="mask-12" maskContentUnits="userSpaceOnUse" maskUnits="objectBoundingBox" x="0" y="0" width="405" height="324" fill="white">
            <use xlink:href="#path-11"></use>
        </mask>
        <rect id="path-13" x="0" y="0" width="199" height="43"></rect>
        <mask id="mask-14" maskContentUnits="userSpaceOnUse" maskUnits="objectBoundingBox" x="0" y="0" width="199" height="43" fill="white">
            <use xlink:href="#path-13"></use>
        </mask>
        <rect id="path-15" x="0" y="0" width="199" height="43"></rect>
        <mask id="mask-16" maskContentUnits="userSpaceOnUse" maskUnits="objectBoundingBox" x="0" y="0" width="199" height="43" fill="white">
            <use xlink:href="#path-15"></use>
        </mask>
    </defs>
    <g id="layout-schematic" stroke="none" stroke-width="1" fill="none" fill-rule="evenodd">
        <g id="Group">
            <path d="M252,4 L253,4 C254.104569,4 255,3.1045695 255,2 C255,0.8954305 254.104569,0 253,0 L252,0 C250.895431,0 250,0.8954305 250,2 C250,3.1045695 250.895431,4 252,4 Z M265,4 L266,4 C267.104569,4 268,3.1045695 268,2 C268,0.8954305 267.104569,0 266,0 L265,0 C263.895431,0 263,0.8954305 263,2 C263,3.1045695 263.895431,4 265,4 Z M278,4 L279,4 C280.104569,4 281,3.1045695 281,2 C281,0.8954305 280.104569,0 279,0 L278,0 C276.895431,0 276,0.8954305 276,2 C276,3.1045695 276.895431,4 278,4 Z M291,4 L292,4 C293.104569,4 294,3.1045695 294,2 C294,0.8954305 293.104569,0 292,0 L291,0 C289.895431,0 289,0.8954305 289,2 C289,3.1045695 289.895431,4 291,4 Z M304,4 L305,4 C306.104569,4 307,3.1045695 307,2 C307,0.8954305 306.104569,0 305,0 L304,0 C302.895431,0 302,0.8954305 302,2 C302,3.1045695 302.895431,4 304,4 Z M317,4 L318,4 C319.104569,4 320,3.1045695 320,2 C320,0.8954305 319.104569,0 318,0 L317,0 C315.895431,0 315,0.8954305 315,2 C315,3.1045695 315.895431,4 317,4 Z M330,4 L331,4 C332.104569,4 333,3.1045695 333,2 C333,0.8954305 332.104569,0 331,0 L330,0 C328.895431,0 328,0.8954305 328,2 C328,3.1045695 328.895431,4 330,4 Z M343,4 L344,4 C345.104569,4 346,3.1045695 346,2 C346,0.8954305 345.104569,0 344,0 L343,0 C341.895431,0 341,0.8954305 341,2 C341,3.1045695 341.895431,4 343,4 Z M356,4 L357,4 C358.104569,4 359,3.1045695 359,2 C359,0.8954305 358.104569,0 357,0 L356,0 C354.895431,0 354,0.8954305 354,2 C354,3.1045695 354.895431,4 356,4 Z M369,4 L370,4 C371.104569,4 372,3.1045695 372,2 C372,0.8954305 371.104569,0 370,0 L369,0 C367.895431,0 367,0.8954305 367,2 C367,3.1045695 367.895431,4 369,4 Z M382,4 L383,4 C384.104569,4 385,3.1045695 385,2 C385,0.8954305 384.104569,0 383,0 L382,0 C380.895431,0 380,0.8954305 380,2 C380,3.1045695 380.895431,4 382,4 Z M395,4 L396,4 C397.104569,4 398,3.1045695 398,2 C398,0.8954305 397.104569,0 396,0 L395,0 C393.895431,0 393,0.8954305 393,2 C393,3.1045695 393.895431,4 395,4 Z M408,4 L409,4 C410.104569,4 411,3.1045695 411,2 C411,0.8954305 410.104569,0 409,0 L408,0 C406.895431,0 406,0.8954305 406,2 C406,3.1045695 406.895431,4 408,4 Z M421,4 L422,4 C423.104569,4 424,3.1045695 424,2 C424,0.8954305 423.104569,0 422,0 L421,0 C419.895431,0 419,0.8954305 419,2 C419,3.1045695 419.895431,4 421,4 Z M434,4 L435,4 C436.104569,4 437,3.1045695 437,2 C437,0.8954305 436.104569,0 435,0 L434,0 C432.895431,0 432,0.8954305 432,2 C432,3.1045695 432.895431,4 434,4 Z M447,4 L448,4 C449.104569,4 450,3.1045695 450,2 C450,0.8954305 449.104569,0 448,0 L447,0 C445.895431,0 445,0.8954305 445,2 C445,3.1045695 445.895431,4 447,4 Z M460,4 L461,4 C462.104569,4 463,3.1045695 463,2 C463,0.8954305 462.104569,0 461,0 L460,0 C458.895431,0 458,0.8954305 458,2 C458,3.1045695 458.895431,4 460,4 Z M473,4 L474,4 C475.104569,4 476,3.1045695 476,2 C476,0.8954305 475.104569,0 474,0 L473,0 C471.895431,0 471,0.8954305 471,2 C471,3.1045695 471.895431,4 473,4 Z M486,4 L487,4 C488.104569,4 489,3.1045695 489,2 C489,0.8954305 488.104569,0 487,0 L486,0 C484.895431,0 484,0.8954305 484,2 C484,3.1045695 484.895431,4 486,4 Z M499,4 L500,4 C501.104569,4 502,3.1045695 502,2 C502,0.8954305 501.104569,0 500,0 L499,0 C497.895431,0 497,0.8954305 497,2 C497,3.1045695 497.895431,4 499,4 Z M512,4 L513,4 C514.104569,4 515,3.1045695 515,2 C515,0.8954305 514.104569,0 513,0 L512,0 C510.895431,0 510,0.8954305 510,2 C510,3.1045695 510.895431,4 512,4 Z M525,4 L526,4 C527.104569,4 528,3.1045695 528,2 C528,0.8954305 527.104569,0 526,0 L525,0 C523.895431,0 523,0.8954305 523,2 C523,3.1045695 523.895431,4 525,4 Z M538,4 L539,4 C540.104569,4 541,3.1045695 541,2 C541,0.8954305 540.104569,0 539,0 L538,0 C536.895431,0 536,0.8954305 536,2 C536,3.1045695 536.895431,4 538,4 Z M551,4 L552,4 C553.104569,4 554,3.1045695 554,2 C554,0.8954305 553.104569,0 552,0 L551,0 C549.895431,0 549,0.8954305 549,2 C549,3.1045695 549.895431,4 551,4 Z M564,4 L565,4 C566.104569,4 567,3.1045695 567,2 C567,0.8954305 566.104569,0 565,0 L564,0 C562.895431,0 562,0.8954305 562,2 C562,3.1045695 562.895431,4 564,4 Z M577,4 L578,4 C579.104569,4 580,3.1045695 580,2 C580,0.8954305 579.104569,0 578,0 L577,0 C575.895431,0 575,0.8954305 575,2 C575,3.1045695 575.895431,4 577,4 Z M590,4 L591,4 C592.104569,4 593,3.1045695 593,2 C593,0.8954305 592.104569,0 591,0 L590,0 C588.895431,0 588,0.8954305 588,2 C588,3.1045695 588.895431,4 590,4 Z M603,4 L604,4 C605.104569,4 606,3.1045695 606,2 C606,0.8954305 605.104569,0 604,0 L603,0 C601.895431,0 601,0.8954305 601,2 C601,3.1045695 601.895431,4 603,4 Z M616,4 L617,4 C618.104569,4 619,3.1045695 619,2 C619,0.8954305 618.104569,0 617,0 L616,0 C614.895431,0 614,0.8954305 614,2 C614,3.1045695 614.895431,4 616,4 Z M629,4 L630,4 C631.104569,4 632,3.1045695 632,2 C632,0.8954305 631.104569,0 630,0 L629,0 C627.895431,0 627,0.8954305 627,2 C627,3.1045695 627.895431,4 629,4 Z M642,4 L643,4 C644.104569,4 645,3.1045695 645,2 C645,0.8954305 644.104569,0 643,0 L642,0 C640.895431,0 640,0.8954305 640,2 C640,3.1045695 640.895431,4 642,4 Z M655,4 L656,4 C657.104569,4 658,3.1045695 658,2 C658,0.8954305 657.104569,0 656,0 L655,0 C653.895431,0 653,0.8954305 653,2 C653,3.1045695 653.895431,4 655,4 Z M668,4 L669,4 C670.104569,4 671,3.1045695 671,2 C671,0.8954305 670.104569,0 669,0 L668,0 C666.895431,0 666,0.8954305 666,2 C666,3.1045695 666.895431,4 668,4 Z M681,4 L682,4 C683.104569,4 684,3.1045695 684,2 C684,0.8954305 683.104569,0 682,0 L681,0 C679.895431,0 679,0.8954305 679,2 C679,3.1045695 679.895431,4 681,4 Z M694,4 L695,4 C696.104569,4 697,3.1045695 697,2 C697,0.8954305 696.104569,0 695,0 L694,0 C692.895431,0 692,0.8954305 692,2 C692,3.1045695 692.895431,4 694,4 Z M707,4 L708,4 C709.104569,4 710,3.1045695 710,2 C710,0.8954305 709.104569,0 708,0 L707,0 C705.895431,0 705,0.8954305 705,2 C705,3.1045695 705.895431,4 707,4 Z M720,4 L721,4 C722.104569,4 723,3.1045695 723,2 C723,0.8954305 722.104569,0 721,0 L720,0 C718.895431,0 718,0.8954305 718,2 C718,3.1045695 718.895431,4 720,4 Z M733,4 L734,4 C735.104569,4 736,3.1045695 736,2 C736,0.8954305 735.104569,0 734,0 L733,0 C731.895431,0 731,0.8954305 731,2 C731,3.1045695 731.895431,4 733,4 Z M746,4 L747,4 C748.104569,4 749,3.1045695 749,2 C749,0.8954305 748.104569,0 747,0 L746,0 C744.895431,0 744,0.8954305 744,2 C744,3.1045695 744.895431,4 746,4 Z M759,4 L760,4 C761.104569,4 762,3.1045695 762,2 C762,0.8954305 761.104569,0 760,0 L759,0 C757.895431,0 757,0.8954305 757,2 C757,3.1045695 757.895431,4 759,4 Z M772,4 L773,4 C774.104569,4 775,3.1045695 775,2 C775,0.8954305 774.104569,0 773,0 L772,0 C770.895431,0 770,0.8954305 770,2 C770,3.1045695 770.895431,4 772,4 Z M785,4 L786,4 C787.104569,4 788,3.1045695 788,2 C788,0.8954305 787.104569,0 786,0 L785,0 C783.895431,0 783,0.8954305 783,2 C783,3.1045695 783.895431,4 785,4 Z M798,4 L799,4 C800.104569,4 801,3.1045695 801,2 C801,0.8954305 800.104569,0 799,0 L798,0 C796.895431,0 796,0.8954305 796,2 C796,3.1045695 796.895431,4 798,4 Z M811,4 L812,4 C813.104569,4 814,3.1045695 814,2 C814,0.8954305 813.104569,0 812,0 L811,0 C809.895431,0 809,0.8954305 809,2 C809,3.1045695 809.895431,4 811,4 Z M824,4 L825,4 C826.104569,4 827,3.1045695 827,2 C827,0.8954305 826.104569,0 825,0 L824,0 C822.895431,0 822,0.8954305 822,2 C822,3.1045695 822.895431,4 824,4 Z M837,4 L838,4 C839.104569,4 840,3.1045695 840,2 C840,0.8954305 839.104569,0 838,0 L837,0 C835.895431,0 835,0.8954305 835,2 C835,3.1045695 835.895431,4 837,4 Z M850,4 L851,4 C852.104569,4 853,3.1045695 853,2 C853,0.8954305 852.104569,0 851,0 L850,0 C848.895431,0 848,0.8954305 848,2 C848,3.1045695 848.895431,4 850,4 Z M863,4 L864,4 C865.104569,4 866,3.1045695 866,2 C866,0.8954305 865.104569,0 864,0 L863,0 C861.895431,0 861,0.8954305 861,2 C861,3.1045695 861.895431,4 863,4 Z M876,4 L877,4 C878.104569,4 879,3.1045695 879,2 C879,0.8954305 878.104569,0 877,0 L876,0 C874.895431,0 874,0.8954305 874,2 C874,3.1045695 874.895431,4 876,4 Z M889,4 L890,4 C891.104569,4 892,3.1045695 892,2 C892,0.8954305 891.104569,0 890,0 L889,0 C887.895431,0 887,0.8954305 887,2 C887,3.1045695 887.895431,4 889,4 Z M902,4 L903,4 C904.104569,4 905,3.1045695 905,2 C905,0.8954305 904.104569,0 903,0 L902,0 C900.895431,0 900,0.8954305 900,2 C900,3.1045695 900.895431,4 902,4 Z M915,4 L916,4 C917.104569,4 918,3.1045695 918,2 C918,0.8954305 917.104569,0 916,0 L915,0 C913.895431,0 913,0.8954305 913,2 C913,3.1045695 913.895431,4 915,4 Z M928,4 L929,4 C930.104569,4 931,3.1045695 931,2 C931,0.8954305 930.104569,0 929,0 L928,0 C926.895431,0 926,0.8954305 926,2 C926,3.1045695 926.895431,4 928,4 Z M941,4 L942,4 C943.104569,4 944,3.1045695 944,2 C944,0.8954305 943.104569,0 942,0 L941,0 C939.895431,0 939,0.8954305 939,2 C939,3.1045695 939.895431,4 941,4 Z M954,4 L955,4 C956.104569,4 957,3.1045695 957,2 C957,0.8954305 956.104569,0 955,0 L954,0 C952.895431,0 952,0.8954305 952,2 C952,3.1045695 952.895431,4 954,4 Z M967,4 L968,4 C969.104569,4 970,3.1045695 970,2 C970,0.8954305 969.104569,0 968,0 L967,0 C965.895431,0 965,0.8954305 965,2 C965,3.1045695 965.895431,4 967,4 Z M980,4 L981,4 C982.104569,4 983,3.1045695 983,2 C983,0.8954305 982.104569,0 981,0 L980,0 C978.895431,0 978,0.8954305 978,2 C978,3.1045695 978.895431,4 980,4 Z M993,4 L994,4 C995.104569,4 996,3.1045695 996,2 C996,0.8954305 995.104569,0 994,0 L993,0 C991.895431,0 991,0.8954305 991,2 C991,3.1045695 991.895431,4 993,4 Z M1006,4 L1007,4 C1008.10457,4 1009,3.1045695 1009,2 C1009,0.8954305 1008.10457,0 1007,0 L1006,0 C1004.89543,0 1004,0.8954305 1004,2 C1004,3.1045695 1004.89543,4 1006,4 Z M1009,10 L1009,11 C1009,12.1045695 1009.89543,13 1011,13 C1012.10457,13 1013,12.1045695 1013,11 L1013,10 C1013,8.8954305 1012.10457,8 1011,8 C1009.89543,8 1009,8.8954305 1009,10 Z M1009,23 L1009,24 C1009,25.1045695 1009.89543,26 1011,26 C1012.10457,26 1013,25.1045695 1013,24 L1013,23 C1013,21.8954305 1012.10457,21 1011,21 C1009.89543,21 1009,21.8954305 1009,23 Z M1009,36 L1009,37 C1009,38.1045695 1009.89543,39 1011,39 C1012.10457,39 1013,38.1045695 1013,37 L1013,36 C1013,34.8954305 1012.10457,34 1011,34 C1009.89543,34 1009,34.8954305 1009,36 Z M1009,49 L1009,50 C1009,51.1045695 1009.89543,52 1011,52 C1012.10457,52 1013,51.1045695 1013,50 L1013,49 C1013,47.8954305 1012.10457,47 1011,47 C1009.89543,47 1009,47.8954305 1009,49 Z M1009,62 L1009,63 C1009,64.1045695 1009.89543,65 1011,65 C1012.10457,65 1013,64.1045695 1013,63 L1013,62 C1013,60.8954305 1012.10457,60 1011,60 C1009.89543,60 1009,60.8954305 1009,62 Z M1009,75 L1009,76 C1009,77.1045695 1009.89543,78 1011,78 C1012.10457,78 1013,77.1045695 1013,76 L1013,75 C1013,73.8954305 1012.10457,73 1011,73 C1009.89543,73 1009,73.8954305 1009,75 Z M1009,88 L1009,89 C1009,90.1045695 1009.89543,91 1011,91 C1012.10457,91 1013,90.1045695 1013,89 L1013,88 C1013,86.8954305 1012.10457,86 1011,86 C1009.89543,86 1009,86.8954305 1009,88 Z M1009,101 L1009,102 C1009,103.104569 1009.89543,104 1011,104 C1012.10457,104 1013,103.104569 1013,102 L1013,101 C1013,99.8954305 1012.10457,99 1011,99 C1009.89543,99 1009,99.8954305 1009,101 Z M1009,114 L1009,115 C1009,116.104569 1009.89543,117 1011,117 C1012.10457,117 1013,116.104569 1013,115 L1013,114 C1013,112.895431 1012.10457,112 1011,112 C1009.89543,112 1009,112.895431 1009,114 Z M1009,127 L1009,128 C1009,129.104569 1009.89543,130 1011,130 C1012.10457,130 1013,129.104569 1013,128 L1013,127 C1013,125.895431 1012.10457,125 1011,125 C1009.89543,125 1009,125.895431 1009,127 Z M1009,140 L1009,141 C1009,142.104569 1009.89543,143 1011,143 C1012.10457,143 1013,142.104569 1013,141 L1013,140 C1013,138.895431 1012.10457,138 1011,138 C1009.89543,138 1009,138.895431 1009,140 Z M1009,153 L1009,154 C1009,155.104569 1009.89543,156 1011,156 C1012.10457,156 1013,155.104569 1013,154 L1013,153 C1013,151.895431 1012.10457,151 1011,151 C1009.89543,151 1009,151.895431 1009,153 Z M1009,166 L1009,167 C1009,168.104569 1009.89543,169 1011,169 C1012.10457,169 1013,168.104569 1013,167 L1013,166 C1013,164.895431 1012.10457,164 1011,164 C1009.89543,164 1009,164.895431 1009,166 Z M1009,179 L1009,180 C1009,181.104569 1009.89543,182 1011,182 C1012.10457,182 1013,181.104569 1013,180 L1013,179 C1013,177.895431 1012.10457,177 1011,177 C1009.89543,177 1009,177.895431 1009,179 Z M1009,192 L1009,193 C1009,194.104569 1009.89543,195 1011,195 C1012.10457,195 1013,194.104569 1013,193 L1013,192 C1013,190.895431 1012.10457,190 1011,190 C1009.89543,190 1009,190.895431 1009,192 Z M1009,205 L1009,206 C1009,207.104569 1009.89543,208 1011,208 C1012.10457,208 1013,207.104569 1013,206 L1013,205 C1013,203.895431 1012.10457,203 1011,203 C1009.89543,203 1009,203.895431 1009,205 Z M1009,218 L1009,219 C1009,220.104569 1009.89543,221 1011,221 C1012.10457,221 1013,220.104569 1013,219 L1013,218 C1013,216.895431 1012.10457,216 1011,216 C1009.89543,216 1009,216.895431 1009,218 Z M1009,231 L1009,232 C1009,233.104569 1009.89543,234 1011,234 C1012.10457,234 1013,233.104569 1013,232 L1013,231 C1013,229.895431 1012.10457,229 1011,229 C1009.89543,229 1009,229.895431 1009,231 Z M1009,244 L1009,245 C1009,246.104569 1009.89543,247 1011,247 C1012.10457,247 1013,246.104569 1013,245 L1013,244 C1013,242.895431 1012.10457,242 1011,242 C1009.89543,242 1009,242.895431 1009,244 Z M1009,257 L1009,258 C1009,259.104569 1009.89543,260 1011,260 C1012.10457,260 1013,259.104569 1013,258 L1013,257 C1013,255.895431 1012.10457,255 1011,255 C1009.89543,255 1009,255.895431 1009,257 Z M1009,270 L1009,271 C1009,272.104569 1009.89543,273 1011,273 C1012.10457,273 1013,272.104569 1013,271 L1013,270 C1013,268.895431 1012.10457,268 1011,268 C1009.89543,268 1009,268.895431 1009,270 Z M1009,283 L1009,284 C1009,285.104569 1009.89543,286 1011,286 C1012.10457,286 1013,285.104569 1013,284 L1013,283 C1013,281.895431 1012.10457,281 1011,281 C1009.89543,281 1009,281.895431 1009,283 Z M1009,296 L1009,297 C1009,298.104569 1009.89543,299 1011,299 C1012.10457,299 1013,298.104569 1013,297 L1013,296 C1013,294.895431 1012.10457,294 1011,294 C1009.89543,294 1009,294.895431 1009,296 Z M1009,309 L1009,310 C1009,311.104569 1009.89543,312 1011,312 C1012.10457,312 1013,311.104569 1013,310 L1013,309 C1013,307.895431 1012.10457,307 1011,307 C1009.89543,307 1009,307.895431 1009,309 Z M1009,322 L1009,323 C1009,324.104569 1009.89543,325 1011,325 C1012.10457,325 1013,324.104569 1013,323 L1013,322 C1013,320.895431 1012.10457,320 1011,320 C1009.89543,320 1009,320.895431 1009,322 Z M1009,335 L1009,336 C1009,337.104569 1009.89543,338 1011,338 C1012.10457,338 1013,337.104569 1013,336 L1013,335 C1013,333.895431 1012.10457,333 1011,333 C1009.89543,333 1009,333.895431 1009,335 Z M1009,348 L1009,349 C1009,350.104569 1009.89543,351 1011,351 C1012.10457,351 1013,350.104569 1013,349 L1013,348 C1013,346.895431 1012.10457,346 1011,346 C1009.89543,346 1009,346.895431 1009,348 Z M1009,361 L1009,362 C1009,363.104569 1009.89543,364 1011,364 C1012.10457,364 1013,363.104569 1013,362 L1013,361 C1013,359.895431 1012.10457,359 1011,359 C1009.89543,359 1009,359.895431 1009,361 Z M1009,374 L1009,375 C1009,376.104569 1009.89543,377 1011,377 C1012.10457,377 1013,376.104569 1013,375 L1013,374 C1013,372.895431 1012.10457,372 1011,372 C1009.89543,372 1009,372.895431 1009,374 Z M1009,387 L1009,388 C1009,389.104569 1009.89543,390 1011,390 C1012.10457,390 1013,389.104569 1013,388 L1013,387 C1013,385.895431 1012.10457,385 1011,385 C1009.89543,385 1009,385.895431 1009,387 Z M1009,400 L1009,401 C1009,402.104569 1009.89543,403 1011,403 C1012.10457,403 1013,402.104569 1013,401 L1013,400 C1013,398.895431 1012.10457,398 1011,398 C1009.89543,398 1009,398.895431 1009,400 Z M1009,413 L1009,414 C1009,415.104569 1009.89543,416 1011,416 C1012.10457,416 1013,415.104569 1013,414 L1013,413 C1013,411.895431 1012.10457,411 1011,411 C1009.89543,411 1009,411.895431 1009,413 Z M1009,426 L1009,427 C1009,428.104569 1009.89543,429 1011,429 C1012.10457,429 1013,428.104569 1013,427 L1013,426 C1013,424.895431 1012.10457,424 1011,424 C1009.89543,424 1009,424.895431 1009,426 Z M1009,439 L1009,440 C1009,441.104569 1009.89543,442 1011,442 C1012.10457,442 1013,441.104569 1013,440 L1013,439 C1013,437.895431 1012.10457,437 1011,437 C1009.89543,437 1009,437.895431 1009,439 Z M1009,452 L1009,453 C1009,454.104569 1009.89543,455 1011,455 C1012.10457,455 1013,454.104569 1013,453 L1013,452 C1013,450.895431 1012.10457,450 1011,450 C1009.89543,450 1009,450.895431 1009,452 Z M1009,465 L1009,466 C1009,467.104569 1009.89543,468 1011,468 C1012.10457,468 1013,467.104569 1013,466 L1013,465 C1013,463.895431 1012.10457,463 1011,463 C1009.89543,463 1009,463.895431 1009,465 Z M1009,478 L1009,479 C1009,480.104569 1009.89543,481 1011,481 C1012.10457,481 1013,480.104569 1013,479 L1013,478 C1013,476.895431 1012.10457,476 1011,476 C1009.89543,476 1009,476.895431 1009,478 Z M1009,491 L1009,492 C1009,493.104569 1009.89543,494 1011,494 C1012.10457,494 1013,493.104569 1013,492 L1013,491 C1013,489.895431 1012.10457,489 1011,489 C1009.89543,489 1009,489.895431 1009,491 Z M1009,504 L1009,505 C1009,506.104569 1009.89543,507 1011,507 C1012.10457,507 1013,506.104569 1013,505 L1013,504 C1013,502.895431 1012.10457,502 1011,502 C1009.89543,502 1009,502.895431 1009,504 Z M1009,517 L1009,518 C1009,519.104569 1009.89543,520 1011,520 C1012.10457,520 1013,519.104569 1013,518 L1013,517 C1013,515.895431 1012.10457,515 1011,515 C1009.89543,515 1009,515.895431 1009,517 Z M1009,530 L1009,531 C1009,532.104569 1009.89543,533 1011,533 C1012.10457,533 1013,532.104569 1013,531 L1013,530 C1013,528.895431 1012.10457,528 1011,528 C1009.89543,528 1009,528.895431 1009,530 Z M1009,543 L1009,544 C1009,545.104569 1009.89543,546 1011,546 C1012.10457,546 1013,545.104569 1013,544 L1013,543 C1013,541.895431 1012.10457,541 1011,541 C1009.89543,541 1009,541.895431 1009,543 Z M1009,556 L1009,557 C1009,558.104569 1009.89543,559 1011,559 C1012.10457,559 1013,558.104569 1013,557 L1013,556 C1013,554.895431 1012.10457,554 1011,554 C1009.89543,554 1009,554.895431 1009,556 Z M1009,569 L1009,570 C1009,571.104569 1009.89543,572 1011,572 C1012.10457,572 1013,571.104569 1013,570 L1013,569 C1013,567.895431 1012.10457,567 1011,567 C1009.89543,567 1009,567.895431 1009,569 Z M1009,582 L1009,583 C1009,584.104569 1009.89543,585 1011,585 C1012.10457,585 1013,584.104569 1013,583 L1013,582 C1013,580.895431 1012.10457,580 1011,580 C1009.89543,580 1009,580.895431 1009,582 Z M1009,595 L1009,596 C1009,597.104569 1009.89543,598 1011,598 C1012.10457,598 1013,597.104569 1013,596 L1013,595 C1013,593.895431 1012.10457,593 1011,593 C1009.89543,593 1009,593.895431 1009,595 Z M1009,608 L1009,609 C1009,610.104569 1009.89543,611 1011,611 C1012.10457,611 1013,610.104569 1013,609 L1013,608 C1013,606.895431 1012.10457,606 1011,606 C1009.89543,606 1009,606.895431 1009,608 Z M1011,619 L1010,619 C1008.89543,619 1008,619.895431 1008,621 C1008,622.104569 1008.89543,623 1010,623 L1011,623 C1012.10457,623 1013,622.104569 1013,621 C1013,619.895431 1012.10457,619 1011,619 Z M998,619 L997,619 C995.895431,619 995,619.895431 995,621 C995,622.104569 995.895431,623 997,623 L998,623 C999.104569,623 1000,622.104569 1000,621 C1000,619.895431 999.104569,619 998,619 Z M985,619 L984,619 C982.895431,619 982,619.895431 982,621 C982,622.104569 982.895431,623 984,623 L985,623 C986.104569,623 987,622.104569 987,621 C987,619.895431 986.104569,619 985,619 Z M972,619 L971,619 C969.895431,619 969,619.895431 969,621 C969,622.104569 969.895431,623 971,623 L972,623 C973.104569,623 974,622.104569 974,621 C974,619.895431 973.104569,619 972,619 Z M959,619 L958,619 C956.895431,619 956,619.895431 956,621 C956,622.104569 956.895431,623 958,623 L959,623 C960.104569,623 961,622.104569 961,621 C961,619.895431 960.104569,619 959,619 Z M946,619 L945,619 C943.895431,619 943,619.895431 943,621 C943,622.104569 943.895431,623 945,623 L946,623 C947.104569,623 948,622.104569 948,621 C948,619.895431 947.104569,619 946,619 Z M933,619 L932,619 C930.895431,619 930,619.895431 930,621 C930,622.104569 930.895431,623 932,623 L933,623 C934.104569,623 935,622.104569 935,621 C935,619.895431 934.104569,619 933,619 Z M920,619 L919,619 C917.895431,619 917,619.895431 917,621 C917,622.104569 917.895431,623 919,623 L920,623 C921.104569,623 922,622.104569 922,621 C922,619.895431 921.104569,619 920,619 Z M907,619 L906,619 C904.895431,619 904,619.895431 904,621 C904,622.104569 904.895431,623 906,623 L907,623 C908.104569,623 909,622.104569 909,621 C909,619.895431 908.104569,619 907,619 Z M894,619 L893,619 C891.895431,619 891,619.895431 891,621 C891,622.104569 891.895431,623 893,623 L894,623 C895.104569,623 896,622.104569 896,621 C896,619.895431 895.104569,619 894,619 Z M881,619 L880,619 C878.895431,619 878,619.895431 878,621 C878,622.104569 878.895431,623 880,623 L881,623 C882.104569,623 883,622.104569 883,621 C883,619.895431 882.104569,619 881,619 Z M868,619 L867,619 C865.895431,619 865,619.895431 865,621 C865,622.104569 865.895431,623 867,623 L868,623 C869.104569,623 870,622.104569 870,621 C870,619.895431 869.104569,619 868,619 Z M855,619 L854,619 C852.895431,619 852,619.895431 852,621 C852,622.104569 852.895431,623 854,623 L855,623 C856.104569,623 857,622.104569 857,621 C857,619.895431 856.104569,619 855,619 Z M842,619 L841,619 C839.895431,619 839,619.895431 839,621 C839,622.104569 839.895431,623 841,623 L842,623 C843.104569,623 844,622.104569 844,621 C844,619.895431 843.104569,619 842,619 Z M829,619 L828,619 C826.895431,619 826,619.895431 826,621 C826,622.104569 826.895431,623 828,623 L829,623 C830.104569,623 831,622.104569 831,621 C831,619.895431 830.104569,619 829,619 Z M816,619 L815,619 C813.895431,619 813,619.895431 813,621 C813,622.104569 813.895431,623 815,623 L816,623 C817.104569,623 818,622.104569 818,621 C818,619.895431 817.104569,619 816,619 Z M803,619 L802,619 C800.895431,619 800,619.895431 800,621 C800,622.104569 800.895431,623 802,623 L803,623 C804.104569,623 805,622.104569 805,621 C805,619.895431 804.104569,619 803,619 Z M790,619 L789,619 C787.895431,619 787,619.895431 787,621 C787,622.104569 787.895431,623 789,623 L790,623 C791.104569,623 792,622.104569 792,621 C792,619.895431 791.104569,619 790,619 Z M777,619 L776,619 C774.895431,619 774,619.895431 774,621 C774,622.104569 774.895431,623 776,623 L777,623 C778.104569,623 779,622.104569 779,621 C779,619.895431 778.104569,619 777,619 Z M764,619 L763,619 C761.895431,619 761,619.895431 761,621 C761,622.104569 761.895431,623 763,623 L764,623 C765.104569,623 766,622.104569 766,621 C766,619.895431 765.104569,619 764,619 Z M751,619 L750,619 C748.895431,619 748,619.895431 748,621 C748,622.104569 748.895431,623 750,623 L751,623 C752.104569,623 753,622.104569 753,621 C753,619.895431 752.104569,619 751,619 Z M738,619 L737,619 C735.895431,619 735,619.895431 735,621 C735,622.104569 735.895431,623 737,623 L738,623 C739.104569,623 740,622.104569 740,621 C740,619.895431 739.104569,619 738,619 Z M725,619 L724,619 C722.895431,619 722,619.895431 722,621 C722,622.104569 722.895431,623 724,623 L725,623 C726.104569,623 727,622.104569 727,621 C727,619.895431 726.104569,619 725,619 Z M712,619 L711,619 C709.895431,619 709,619.895431 709,621 C709,622.104569 709.895431,623 711,623 L712,623 C713.104569,623 714,622.104569 714,621 C714,619.895431 713.104569,619 712,619 Z M699,619 L698,619 C696.895431,619 696,619.895431 696,621 C696,622.104569 696.895431,623 698,623 L699,623 C700.104569,623 701,622.104569 701,621 C701,619.895431 700.104569,619 699,619 Z M686,619 L685,619 C683.895431,619 683,619.895431 683,621 C683,622.104569 683.895431,623 685,623 L686,623 C687.104569,623 688,622.104569 688,621 C688,619.895431 687.104569,619 686,619 Z M673,619 L672,619 C670.895431,619 670,619.895431 670,621 C670,622.104569 670.895431,623 672,623 L673,623 C674.104569,623 675,622.104569 675,621 C675,619.895431 674.104569,619 673,619 Z M660,619 L659,619 C657.895431,619 657,619.895431 657,621 C657,622.104569 657.895431,623 659,623 L660,623 C661.104569,623 662,622.104569 662,621 C662,619.895431 661.104569,619 660,619 Z M647,619 L646,619 C644.895431,619 644,619.895431 644,621 C644,622.104569 644.895431,623 646,623 L647,623 C648.104569,623 649,622.104569 649,621 C649,619.895431 648.104569,619 647,619 Z M634,619 L633,619 C631.895431,619 631,619.895431 631,621 C631,622.104569 631.895431,623 633,623 L634,623 C635.104569,623 636,622.104569 636,621 C636,619.895431 635.104569,619 634,619 Z M621,619 L620,619 C618.895431,619 618,619.895431 618,621 C618,622.104569 618.895431,623 620,623 L621,623 C622.104569,623 623,622.104569 623,621 C623,619.895431 622.104569,619 621,619 Z M608,619 L607,619 C605.895431,619 605,619.895431 605,621 C605,622.104569 605.895431,623 607,623 L608,623 C609.104569,623 610,622.104569 610,621 C610,619.895431 609.104569,619 608,619 Z M595,619 L594,619 C592.895431,619 592,619.895431 592,621 C592,622.104569 592.895431,623 594,623 L595,623 C596.104569,623 597,622.104569 597,621 C597,619.895431 596.104569,619 595,619 Z M582,619 L581,619 C579.895431,619 579,619.895431 579,621 C579,622.104569 579.895431,623 581,623 L582,623 C583.104569,623 584,622.104569 584,621 C584,619.895431 583.104569,619 582,619 Z M569,619 L568,619 C566.895431,619 566,619.895431 566,621 C566,622.104569 566.895431,623 568,623 L569,623 C570.104569,623 571,622.104569 571,621 C571,619.895431 570.104569,619 569,619 Z M556,619 L555,619 C553.895431,619 553,619.895431 553,621 C553,622.104569 553.895431,623 555,623 L556,623 C557.104569,623 558,622.104569 558,621 C558,619.895431 557.104569,619 556,619 Z M543,619 L542,619 C540.895431,619 540,619.895431 540,621 C540,622.104569 540.895431,623 542,623 L543,623 C544.104569,623 545,622.104569 545,621 C545,619.895431 544.104569,619 543,619 Z M530,619 L529,619 C527.895431,619 527,619.895431 527,621 C527,622.104569 527.895431,623 529,623 L530,623 C531.104569,623 532,622.104569 532,621 C532,619.895431 531.104569,619 530,619 Z M517,619 L516,619 C514.895431,619 514,619.895431 514,621 C514,622.104569 514.895431,623 516,623 L517,623 C518.104569,623 519,622.104569 519,621 C519,619.895431 518.104569,619 517,619 Z M504,619 L503,619 C501.895431,619 501,619.895431 501,621 C501,622.104569 501.895431,623 503,623 L504,623 C505.104569,623 506,622.104569 506,621 C506,619.895431 505.104569,619 504,619 Z M491,619 L490,619 C488.895431,619 488,619.895431 488,621 C488,622.104569 488.895431,623 490,623 L491,623 C492.104569,623 493,622.104569 493,621 C493,619.895431 492.104569,619 491,619 Z M478,619 L477,619 C475.895431,619 475,619.895431 475,621 C475,622.104569 475.895431,623 477,623 L478,623 C479.104569,623 480,622.104569 480,621 C480,619.895431 479.104569,619 478,619 Z M465,619 L464,619 C462.895431,619 462,619.895431 462,621 C462,622.104569 462.895431,623 464,623 L465,623 C466.104569,623 467,622.104569 467,621 C467,619.895431 466.104569,619 465,619 Z M452,619 L451,619 C449.895431,619 449,619.895431 449,621 C449,622.104569 449.895431,623 451,623 L452,623 C453.104569,623 454,622.104569 454,621 C454,619.895431 453.104569,619 452,619 Z M439,619 L438,619 C436.895431,619 436,619.895431 436,621 C436,622.104569 436.895431,623 438,623 L439,623 C440.104569,623 441,622.104569 441,621 C441,619.895431 440.104569,619 439,619 Z M426,619 L425,619 C423.895431,619 423,619.895431 423,621 C423,622.104569 423.895431,623 425,623 L426,623 C427.104569,623 428,622.104569 428,621 C428,619.895431 427.104569,619 426,619 Z M413,619 L412,619 C410.895431,619 410,619.895431 410,621 C410,622.104569 410.895431,623 412,623 L413,623 C414.104569,623 415,622.104569 415,621 C415,619.895431 414.104569,619 413,619 Z M400,619 L399,619 C397.895431,619 397,619.895431 397,621 C397,622.104569 397.895431,623 399,623 L400,623 C401.104569,623 402,622.104569 402,621 C402,619.895431 401.104569,619 400,619 Z M387,619 L386,619 C384.895431,619 384,619.895431 384,621 C384,622.104569 384.895431,623 386,623 L387,623 C388.104569,623 389,622.104569 389,621 C389,619.895431 388.104569,619 387,619 Z M374,619 L373,619 C371.895431,619 371,619.895431 371,621 C371,622.104569 371.895431,623 373,623 L374,623 C375.104569,623 376,622.104569 376,621 C376,619.895431 375.104569,619 374,619 Z M361,619 L360,619 C358.895431,619 358,619.895431 358,621 C358,622.104569 358.895431,623 360,623 L361,623 C362.104569,623 363,622.104569 363,621 C363,619.895431 362.104569,619 361,619 Z M348,619 L347,619 C345.895431,619 345,619.895431 345,621 C345,622.104569 345.895431,623 347,623 L348,623 C349.104569,623 350,622.104569 350,621 C350,619.895431 349.104569,619 348,619 Z M335,619 L334,619 C332.895431,619 332,619.895431 332,621 C332,622.104569 332.895431,623 334,623 L335,623 C336.104569,623 337,622.104569 337,621 C337,619.895431 336.104569,619 335,619 Z M322,619 L321,619 C319.895431,619 319,619.895431 319,621 C319,622.104569 319.895431,623 321,623 L322,623 C323.104569,623 324,622.104569 324,621 C324,619.895431 323.104569,619 322,619 Z M309,619 L308,619 C306.895431,619 306,619.895431 306,621 C306,622.104569 306.895431,623 308,623 L309,623 C310.104569,623 311,622.104569 311,621 C311,619.895431 310.104569,619 309,619 Z M296,619 L295,619 C293.895431,619 293,619.895431 293,621 C293,622.104569 293.895431,623 295,623 L296,623 C297.104569,623 298,622.104569 298,621 C298,619.895431 297.104569,619 296,619 Z M283,619 L282,619 C280.895431,619 280,619.895431 280,621 C280,622.104569 280.895431,623 282,623 L283,623 C284.104569,623 285,622.104569 285,621 C285,619.895431 284.104569,619 283,619 Z M270,619 L269,619 C267.895431,619 267,619.895431 267,621 C267,622.104569 267.895431,623 269,623 L270,623 C271.104569,623 272,622.104569 272,621 C272,619.895431 271.104569,619 270,619 Z M257,619 L256,619 C254.895431,619 254,619.895431 254,621 C254,622.104569 254.895431,623 256,623 L257,623 C258.104569,623 259,622.104569 259,621 C259,619.895431 258.104569,619 257,619 Z M254,613 L254,612 C254,610.895431 253.104569,610 252,610 C250.895431,610 250,610.895431 250,612 L250,613 C250,614.104569 250.895431,615 252,615 C253.104569,615 254,614.104569 254,613 Z M254,600 L254,599 C254,597.895431 253.104569,597 252,597 C250.895431,597 250,597.895431 250,599 L250,600 C250,601.104569 250.895431,602 252,602 C253.104569,602 254,601.104569 254,600 Z M254,587 L254,586 C254,584.895431 253.104569,584 252,584 C250.895431,584 250,584.895431 250,586 L250,587 C250,588.104569 250.895431,589 252,589 C253.104569,589 254,588.104569 254,587 Z M254,574 L254,573 C254,571.895431 253.104569,571 252,571 C250.895431,571 250,571.895431 250,573 L250,574 C250,575.104569 250.895431,576 252,576 C253.104569,576 254,575.104569 254,574 Z M254,561 L254,560 C254,558.895431 253.104569,558 252,558 C250.895431,558 250,558.895431 250,560 L250,561 C250,562.104569 250.895431,563 252,563 C253.104569,563 254,562.104569 254,561 Z M254,548 L254,547 C254,545.895431 253.104569,545 252,545 C250.895431,545 250,545.895431 250,547 L250,548 C250,549.104569 250.895431,550 252,550 C253.104569,550 254,549.104569 254,548 Z M254,535 L254,534 C254,532.895431 253.104569,532 252,532 C250.895431,532 250,532.895431 250,534 L250,535 C250,536.104569 250.895431,537 252,537 C253.104569,537 254,536.104569 254,535 Z M254,522 L254,521 C254,519.895431 253.104569,519 252,519 C250.895431,519 250,519.895431 250,521 L250,522 C250,523.104569 250.895431,524 252,524 C253.104569,524 254,523.104569 254,522 Z M254,509 L254,508 C254,506.895431 253.104569,506 252,506 C250.895431,506 250,506.895431 250,508 L250,509 C250,510.104569 250.895431,511 252,511 C253.104569,511 254,510.104569 254,509 Z M254,496 L254,495 C254,493.895431 253.104569,493 252,493 C250.895431,493 250,493.895431 250,495 L250,496 C250,497.104569 250.895431,498 252,498 C253.104569,498 254,497.104569 254,496 Z M254,483 L254,482 C254,480.895431 253.104569,480 252,480 C250.895431,480 250,480.895431 250,482 L250,483 C250,484.104569 250.895431,485 252,485 C253.104569,485 254,484.104569 254,483 Z M254,470 L254,469 C254,467.895431 253.104569,467 252,467 C250.895431,467 250,467.895431 250,469 L250,470 C250,471.104569 250.895431,472 252,472 C253.104569,472 254,471.104569 254,470 Z M254,457 L254,456 C254,454.895431 253.104569,454 252,454 C250.895431,454 250,454.895431 250,456 L250,457 C250,458.104569 250.895431,459 252,459 C253.104569,459 254,458.104569 254,457 Z M254,444 L254,443 C254,441.895431 253.104569,441 252,441 C250.895431,441 250,441.895431 250,443 L250,444 C250,445.104569 250.895431,446 252,446 C253.104569,446 254,445.104569 254,444 Z M254,431 L254,430 C254,428.895431 253.104569,428 252,428 C250.895431,428 250,428.895431 250,430 L250,431 C250,432.104569 250.895431,433 252,433 C253.104569,433 254,432.104569 254,431 Z M254,418 L254,417 C254,415.895431 253.104569,415 252,415 C250.895431,415 250,415.895431 250,417 L250,418 C250,419.104569 250.895431,420 252,420 C253.104569,420 254,419.104569 254,418 Z M254,405 L254,404 C254,402.895431 253.104569,402 252,402 C250.895431,402 250,402.895431 250,404 L250,405 C250,406.104569 250.895431,407 252,407 C253.104569,407 254,406.104569 254,405 Z M254,392 L254,391 C254,389.895431 253.104569,389 252,389 C250.895431,389 250,389.895431 250,391 L250,392 C250,393.104569 250.895431,394 252,394 C253.104569,394 254,393.104569 254,392 Z M254,379 L254,378 C254,376.895431 253.104569,376 252,376 C250.895431,376 250,376.895431 250,378 L250,379 C250,380.104569 250.895431,381 252,381 C253.104569,381 254,380.104569 254,379 Z M254,366 L254,365 C254,363.895431 253.104569,363 252,363 C250.895431,363 250,363.895431 250,365 L250,366 C250,367.104569 250.895431,368 252,368 C253.104569,368 254,367.104569 254,366 Z M254,353 L254,352 C254,350.895431 253.104569,350 252,350 C250.895431,350 250,350.895431 250,352 L250,353 C250,354.104569 250.895431,355 252,355 C253.104569,355 254,354.104569 254,353 Z M254,340 L254,339 C254,337.895431 253.104569,337 252,337 C250.895431,337 250,337.895431 250,339 L250,340 C250,341.104569 250.895431,342 252,342 C253.104569,342 254,341.104569 254,340 Z M254,327 L254,326 C254,324.895431 253.104569,324 252,324 C250.895431,324 250,324.895431 250,326 L250,327 C250,328.104569 250.895431,329 252,329 C253.104569,329 254,328.104569 254,327 Z M254,314 L254,313 C254,311.895431 253.104569,311 252,311 C250.895431,311 250,311.895431 250,313 L250,314 C250,315.104569 250.895431,316 252,316 C253.104569,316 254,315.104569 254,314 Z M254,301 L254,300 C254,298.895431 253.104569,298 252,298 C250.895431,298 250,298.895431 250,300 L250,301 C250,302.104569 250.895431,303 252,303 C253.104569,303 254,302.104569 254,301 Z M254,288 L254,287 C254,285.895431 253.104569,285 252,285 C250.895431,285 250,285.895431 250,287 L250,288 C250,289.104569 250.895431,290 252,290 C253.104569,290 254,289.104569 254,288 Z M254,275 L254,274 C254,272.895431 253.104569,272 252,272 C250.895431,272 250,272.895431 250,274 L250,275 C250,276.104569 250.895431,277 252,277 C253.104569,277 254,276.104569 254,275 Z M254,262 L254,261 C254,259.895431 253.104569,259 252,259 C250.895431,259 250,259.895431 250,261 L250,262 C250,263.104569 250.895431,264 252,264 C253.104569,264 254,263.104569 254,262 Z M254,249 L254,248 C254,246.895431 253.104569,246 252,246 C250.895431,246 250,246.895431 250,248 L250,249 C250,250.104569 250.895431,251 252,251 C253.104569,251 254,250.104569 254,249 Z M254,236 L254,235 C254,233.895431 253.104569,233 252,233 C250.895431,233 250,233.895431 250,235 L250,236 C250,237.104569 250.895431,238 252,238 C253.104569,238 254,237.104569 254,236 Z M254,223 L254,222 C254,220.895431 253.104569,220 252,220 C250.895431,220 250,220.895431 250,222 L250,223 C250,224.104569 250.895431,225 252,225 C253.104569,225 254,224.104569 254,223 Z M254,210 L254,209 C254,207.895431 253.104569,207 252,207 C250.895431,207 250,207.895431 250,209 L250,210 C250,211.104569 250.895431,212 252,212 C253.104569,212 254,211.104569 254,210 Z M254,197 L254,196 C254,194.895431 253.104569,194 252,194 C250.895431,194 250,194.895431 250,196 L250,197 C250,198.104569 250.895431,199 252,199 C253.104569,199 254,198.104569 254,197 Z M254,184 L254,183 C254,181.895431 253.104569,181 252,181 C250.895431,181 250,181.895431 250,183 L250,184 C250,185.104569 250.895431,186 252,186 C253.104569,186 254,185.104569 254,184 Z M254,171 L254,170 C254,168.895431 253.104569,168 252,168 C250.895431,168 250,168.895431 250,170 L250,171 C250,172.104569 250.895431,173 252,173 C253.104569,173 254,172.104569 254,171 Z M254,158 L254,157 C254,155.895431 253.104569,155 252,155 C250.895431,155 250,155.895431 250,157 L250,158 C250,159.104569 250.895431,160 252,160 C253.104569,160 254,159.104569 254,158 Z M254,145 L254,144 C254,142.895431 253.104569,142 252,142 C250.895431,142 250,142.895431 250,144 L250,145 C250,146.104569 250.895431,147 252,147 C253.104569,147 254,146.104569 254,145 Z M254,132 L254,131 C254,129.895431 253.104569,129 252,129 C250.895431,129 250,129.895431 250,131 L250,132 C250,133.104569 250.895431,134 252,134 C253.104569,134 254,133.104569 254,132 Z M254,119 L254,118 C254,116.895431 253.104569,116 252,116 C250.895431,116 250,116.895431 250,118 L250,119 C250,120.104569 250.895431,121 252,121 C253.104569,121 254,120.104569 254,119 Z M254,106 L254,105 C254,103.895431 253.104569,103 252,103 C250.895431,103 250,103.895431 250,105 L250,106 C250,107.104569 250.895431,108 252,108 C253.104569,108 254,107.104569 254,106 Z M254,93 L254,92 C254,90.8954305 253.104569,90 252,90 C250.895431,90 250,90.8954305 250,92 L250,93 C250,94.1045695 250.895431,95 252,95 C253.104569,95 254,94.1045695 254,93 Z M254,80 L254,79 C254,77.8954305 253.104569,77 252,77 C250.895431,77 250,77.8954305 250,79 L250,80 C250,81.1045695 250.895431,82 252,82 C253.104569,82 254,81.1045695 254,80 Z M254,67 L254,66 C254,64.8954305 253.104569,64 252,64 C250.895431,64 250,64.8954305 250,66 L250,67 C250,68.1045695 250.895431,69 252,69 C253.104569,69 254,68.1045695 254,67 Z M254,54 L254,53 C254,51.8954305 253.104569,51 252,51 C250.895431,51 250,51.8954305 250,53 L250,54 C250,55.1045695 250.895431,56 252,56 C253.104569,56 254,55.1045695 254,54 Z M254,41 L254,40 C254,38.8954305 253.104569,38 252,38 C250.895431,38 250,38.8954305 250,40 L250,41 C250,42.1045695 250.895431,43 252,43 C253.104569,43 254,42.1045695 254,41 Z M254,28 L254,27 C254,25.8954305 253.104569,25 252,25 C250.895431,25 250,25.8954305 250,27 L250,28 C250,29.1045695 250.895431,30 252,30 C253.104569,30 254,29.1045695 254,28 Z M254,15 L254,14 C254,12.8954305 253.104569,12 252,12 C250.895431,12 250,12.8954305 250,14 L250,15 C250,16.1045695 250.895431,17 252,17 C253.104569,17 254,16.1045695 254,15 Z M254,2 C254,0.8954305 253.104569,2.04636308e-12 252,2.04636308e-12 C250.895431,2.04636308e-12 250,0.8954305 250,2 C250,3.1045695 250.895431,4 252,4 C253.104569,4 254,3.1045695 254,2 Z" id="Rectangle-Copy" fill="#A8AFB1"></path>
            <g id="Layout-Copy-5" transform="translate(277.000000, 28.000000)">
                <rect id="Rectangle-Copy-28" fill-opacity="0.0527626812" fill="#33383A" x="0" y="0" width="709" height="569"></rect>
                <rect id="Rectangle-Copy-27" stroke="#A8AFB1" stroke-width="4" stroke-linecap="round" stroke-dasharray="1,12" x="0" y="0" width="709" height="569"></rect>
            </g>
            <g id="Layout-Copy-4" transform="translate(304.000000, 54.000000)">
                <rect id="Rectangle-Copy-28" fill-opacity="0.0527626812" fill="#33383A" x="0" y="0" width="657" height="91"></rect>
                <rect id="Rectangle-Copy-27" stroke="#A8AFB1" stroke-width="4" stroke-linecap="round" stroke-dasharray="1,12" x="0" y="0" width="657" height="91"></rect>
            </g>
            <g id="Layout-Copy-3" transform="translate(304.000000, 163.000000)">
                <rect id="Rectangle-Copy-28" fill-opacity="0.0527626812" fill="#33383A" x="0" y="0" width="657" height="358"></rect>
                <rect id="Rectangle-Copy-27" stroke="#A8AFB1" stroke-width="4" stroke-linecap="round" stroke-dasharray="1,12" x="0" y="0" width="657" height="358"></rect>
            </g>
            <g id="Component-Copy-8" transform="translate(322.000000, 68.000000)">
                <rect id="Rectangle-Copy-2" fill="#FFFFFF" x="0" y="0" width="443" height="63"></rect>
                <use id="Rectangle-Copy-3" stroke="#00B4F0" mask="url(#mask-2)" stroke-width="6" xlink:href="#path-1"></use>
            </g>
            <g id="Component-Copy-7" transform="translate(322.000000, 537.000000)">
                <rect id="Rectangle-Copy-2" fill="#FFFFFF" x="0" y="0" width="621" height="43"></rect>
                <use id="Rectangle-Copy-3" stroke="#00B4F0" mask="url(#mask-4)" stroke-width="6" xlink:href="#path-3"></use>
            </g>
            <g id="Component-Copy-6" transform="translate(781.000000, 68.000000)">
                <rect id="Rectangle-Copy-2" fill="#FFFFFF" x="0" y="0" width="163" height="63"></rect>
                <use id="Rectangle-Copy-3" stroke="#00B4F0" mask="url(#mask-6)" stroke-width="6" xlink:href="#path-5"></use>
            </g>
            <g id="Component-Copy-5" transform="translate(322.000000, 180.000000)">
                <rect id="Rectangle-Copy-2" fill="#FFFFFF" x="0" y="0" width="200" height="324"></rect>
                <use id="Rectangle-Copy-3" stroke="#00B4F0" mask="url(#mask-8)" stroke-width="6" xlink:href="#path-7"></use>
            </g>
            <g id="Component-Copy-4" transform="translate(346.000000, 201.000000)">
                <rect id="Rectangle-Copy-2" fill="#FFFFFF" x="0" y="0" width="152" height="279"></rect>
                <use id="Rectangle-Copy-3" stroke="#00B4F0" mask="url(#mask-10)" stroke-width="6" xlink:href="#path-9"></use>
            </g>
            <g id="Component-Copy-3" transform="translate(538.000000, 180.000000)">
                <rect id="Rectangle-Copy-2" fill="#FFFFFF" x="0" y="0" width="405" height="324"></rect>
                <use id="Rectangle-Copy-3" stroke="#00B4F0" mask="url(#mask-12)" stroke-width="6" xlink:href="#path-11"></use>
            </g>
            <g id="Layout-Copy-2" transform="translate(555.000000, 195.000000)">
                <rect id="Rectangle-Copy-28" fill-opacity="0.0527626812" fill="#33383A" x="0" y="0" width="371" height="292"></rect>
                <rect id="Rectangle-Copy-27" stroke="#A8AFB1" stroke-width="4" stroke-linecap="round" stroke-dasharray="1,12" x="0" y="0" width="371" height="292"></rect>
            </g>
            <g id="Layout-Copy" transform="translate(623.000000, 267.000000)">
                <rect id="Rectangle-Copy-28" fill-opacity="0.0527626812" fill="#33383A" x="0" y="0" width="235" height="142"></rect>
                <rect id="Rectangle-Copy-27" stroke="#A8AFB1" stroke-width="4" stroke-linecap="round" stroke-dasharray="1,12" x="0" y="0" width="235" height="142"></rect>
            </g>
            <g id="Component-Copy-2" transform="translate(643.000000, 289.000000)">
                <rect id="Rectangle-Copy-2" fill="#FFFFFF" x="0" y="0" width="199" height="43"></rect>
                <use id="Rectangle-Copy-3" stroke="#00B4F0" mask="url(#mask-14)" stroke-width="6" xlink:href="#path-13"></use>
            </g>
            <g id="Component-Copy" transform="translate(643.000000, 348.000000)">
                <rect id="Rectangle-Copy-2" fill="#FFFFFF" x="0" y="0" width="199" height="43"></rect>
                <use id="Rectangle-Copy-3" stroke="#00B4F0" mask="url(#mask-16)" stroke-width="6" xlink:href="#path-15"></use>
            </g>
            <path d="M211.112,4 L209.192,4 L209.192,13.888 C209.192,17.152 207.272,19.048 204.08,19.048 C200.888,19.048 198.92,17.152 198.92,13.888 L198.92,4 L197,4 L197,13.888 C197,18.256 199.664,20.896 204.08,20.896 C208.472,20.896 211.112,18.256 211.112,13.888 L211.112,4 Z M217.736,20.8 L217.736,4 L215.816,4 L215.816,20.8 L217.736,20.8 Z" id="UI-Copy" fill="#33383A"></path>
            <path d="M65.808,49.808 L72.672,33.008 L70.656,33.008 L64.848,47.576 L59.064,33.008 L57,33.008 L63.816,49.808 L65.808,49.808 Z M78.912,37.112 C75.24,37.112 72.648,39.728 72.648,43.496 C72.648,47.264 75.216,49.88 78.936,49.88 C81.048,49.88 82.824,49.112 84.024,47.768 L82.992,46.664 C82.008,47.696 80.64,48.248 79.08,48.248 C76.632,48.248 74.832,46.688 74.496,44.216 L84.816,44.216 C85.008,39.92 82.992,37.088 78.912,37.112 Z M74.496,42.68 C74.784,40.28 76.512,38.72 78.912,38.72 C81.384,38.72 83.016,40.256 83.136,42.68 L74.496,42.68 Z M89.904,37.16 L88.032,37.16 L88.032,49.808 L89.904,49.808 L89.904,43.088 C90.12,40.592 91.776,38.936 94.44,38.984 L94.44,37.088 C92.304,37.112 90.744,38.12 89.904,39.968 L89.904,37.16 Z M102.96,47.432 C102.264,47.864 101.592,48.08 100.944,48.08 C99.864,48.08 99.264,47.504 99.264,45.968 L99.264,39.08 L103.272,39.08 L103.272,37.544 L99.264,37.568 L99.264,34.232 L97.416,34.232 L97.416,37.568 L95.592,37.568 L95.592,39.08 L97.416,39.08 L97.416,46.304 C97.416,48.8 98.784,49.904 100.632,49.904 C101.64,49.88 102.6,49.544 103.488,48.944 L102.96,47.432 Z M107.232,32.24 C106.536,32.24 106.008,32.792 106.008,33.536 C106.008,34.28 106.536,34.832 107.232,34.832 C107.928,34.832 108.456,34.28 108.456,33.536 C108.456,32.792 107.928,32.24 107.232,32.24 Z M108.168,49.808 L108.168,37.16 L106.32,37.16 L106.32,49.808 L108.168,49.808 Z M117.72,37.112 C114.072,37.112 111.456,39.728 111.456,43.496 C111.456,47.264 114.048,49.88 117.72,49.88 C119.904,49.88 121.656,49.064 122.784,47.696 L121.704,46.544 C120.816,47.6 119.448,48.176 117.792,48.176 C115.176,48.176 113.304,46.256 113.304,43.496 C113.304,40.736 115.176,38.84 117.792,38.84 C119.328,38.84 120.6,39.392 121.56,40.304 L122.592,38.984 C121.44,37.784 119.76,37.088 117.72,37.112 Z M133.344,49.808 L135.168,49.808 L135.144,41.456 C135.12,38.744 133.392,37.088 130.272,37.088 C128.112,37.088 126.744,37.712 125.112,38.792 L125.904,40.16 C127.224,39.248 128.52,38.72 129.912,38.72 C132.144,38.72 133.296,39.824 133.296,41.672 L133.296,42.416 L129.144,42.416 C126.168,42.44 124.416,43.832 124.416,46.04 C124.416,48.224 126.096,49.904 128.712,49.904 C130.728,49.904 132.336,49.232 133.344,47.864 L133.344,49.808 Z M129.072,48.272 C127.296,48.272 126.168,47.36 126.168,45.968 C126.168,44.576 127.272,43.928 129.384,43.928 L133.32,43.928 L133.32,45.44 C132.84,47.192 131.208,48.272 129.072,48.272 Z M141.336,49.808 L141.336,32 L139.464,32 L139.464,49.808 L141.336,49.808 Z M148.2,47.984 L148.2,33.008 L146.28,33.008 L146.28,49.808 L155.568,49.808 L155.568,47.984 L148.2,47.984 Z M166.272,49.808 L168.096,49.808 L168.072,41.456 C168.048,38.744 166.32,37.088 163.2,37.088 C161.04,37.088 159.672,37.712 158.04,38.792 L158.832,40.16 C160.152,39.248 161.448,38.72 162.84,38.72 C165.072,38.72 166.224,39.824 166.224,41.672 L166.224,42.416 L162.072,42.416 C159.096,42.44 157.344,43.832 157.344,46.04 C157.344,48.224 159.024,49.904 161.64,49.904 C163.656,49.904 165.264,49.232 166.272,47.864 L166.272,49.808 Z M162,48.272 C160.224,48.272 159.096,47.36 159.096,45.968 C159.096,44.576 160.2,43.928 162.312,43.928 L166.248,43.928 L166.248,45.44 C165.768,47.192 164.136,48.272 162,48.272 Z M181.584,37.16 L179.664,37.16 L175.656,47.6 L171.456,37.16 L169.488,37.16 L174.72,49.712 L174.192,50.888 C173.688,52.064 172.872,52.664 171.888,52.664 C171.264,52.664 170.688,52.472 170.112,52.064 L169.32,53.624 C170.088,54.248 170.928,54.56 171.984,54.56 C173.664,54.56 174.984,53.552 175.776,51.608 L181.584,37.16 Z M188.52,37.112 C184.776,37.112 182.112,39.704 182.112,43.472 C182.112,47.264 184.776,49.88 188.52,49.88 C192.264,49.88 194.928,47.264 194.928,43.472 C194.928,39.704 192.264,37.112 188.52,37.112 Z M188.52,38.816 C191.16,38.816 193.056,40.736 193.056,43.496 C193.056,46.28 191.16,48.2 188.52,48.2 C185.88,48.2 183.984,46.28 183.984,43.496 C183.984,40.736 185.88,38.816 188.52,38.816 Z M209.184,37.16 L207.312,37.16 L207.312,43.376 C207.312,46.064 205.776,47.96 203.16,48.008 C200.976,48.008 199.656,46.688 199.656,44.456 L199.656,37.16 L197.784,37.16 L197.784,44.96 C197.784,48.008 199.56,49.88 202.512,49.88 C204.792,49.856 206.472,48.92 207.312,46.952 L207.312,49.808 L209.184,49.808 L209.184,37.16 Z M219.744,47.432 C219.048,47.864 218.376,48.08 217.728,48.08 C216.648,48.08 216.048,47.504 216.048,45.968 L216.048,39.08 L220.056,39.08 L220.056,37.544 L216.048,37.568 L216.048,34.232 L214.2,34.232 L214.2,37.568 L212.376,37.568 L212.376,39.08 L214.2,39.08 L214.2,46.304 C214.2,48.8 215.568,49.904 217.416,49.904 C218.424,49.88 219.384,49.544 220.272,48.944 L219.744,47.432 Z" id="VerticalLayout-Copy-4" fill="#33383A"></path>
            <path d="M38.512,82 L38.512,65.2 L36.592,65.2 L36.592,72.784 L26.464,72.784 L26.464,65.2 L24.544,65.2 L24.544,82 L26.464,82 L26.464,74.608 L36.592,74.608 L36.592,82 L38.512,82 Z M48.472,69.304 C44.728,69.304 42.064,71.896 42.064,75.664 C42.064,79.456 44.728,82.072 48.472,82.072 C52.216,82.072 54.88,79.456 54.88,75.664 C54.88,71.896 52.216,69.304 48.472,69.304 Z M48.472,71.008 C51.112,71.008 53.008,72.928 53.008,75.688 C53.008,78.472 51.112,80.392 48.472,80.392 C45.832,80.392 43.936,78.472 43.936,75.688 C43.936,72.928 45.832,71.008 48.472,71.008 Z M60.04,69.352 L58.168,69.352 L58.168,82 L60.04,82 L60.04,75.28 C60.256,72.784 61.912,71.128 64.576,71.176 L64.576,69.28 C62.44,69.304 60.88,70.312 60.04,72.16 L60.04,69.352 Z M68.008,64.432 C67.312,64.432 66.784,64.984 66.784,65.728 C66.784,66.472 67.312,67.024 68.008,67.024 C68.704,67.024 69.232,66.472 69.232,65.728 C69.232,64.984 68.704,64.432 68.008,64.432 Z M68.944,82 L68.944,69.352 L67.096,69.352 L67.096,82 L68.944,82 Z M82.648,70.792 L82.648,69.376 L72.688,69.352 L72.688,70.984 L80.392,71.008 L72.472,80.584 L72.472,82 L82.84,82.024 L82.84,80.392 L74.728,80.368 L82.648,70.792 Z M91.072,69.304 C87.328,69.304 84.664,71.896 84.664,75.664 C84.664,79.456 87.328,82.072 91.072,82.072 C94.816,82.072 97.48,79.456 97.48,75.664 C97.48,71.896 94.816,69.304 91.072,69.304 Z M91.072,71.008 C93.712,71.008 95.608,72.928 95.608,75.688 C95.608,78.472 93.712,80.392 91.072,80.392 C88.432,80.392 86.536,78.472 86.536,75.688 C86.536,72.928 88.432,71.008 91.072,71.008 Z M107.536,69.28 C105.232,69.304 103.528,70.216 102.64,72.136 L102.64,69.352 L100.768,69.352 L100.768,82 L102.64,82 L102.64,75.208 C102.856,72.808 104.392,71.176 106.888,71.152 C109.12,71.152 110.464,72.472 110.464,74.704 L110.464,82 L112.336,82 L112.336,74.2 C112.336,71.152 110.56,69.28 107.536,69.28 Z M122.512,79.624 C121.816,80.056 121.144,80.272 120.496,80.272 C119.416,80.272 118.816,79.696 118.816,78.16 L118.816,71.272 L122.824,71.272 L122.824,69.736 L118.816,69.76 L118.816,66.424 L116.968,66.424 L116.968,69.76 L115.144,69.76 L115.144,71.272 L116.968,71.272 L116.968,78.496 C116.968,80.992 118.336,82.096 120.184,82.096 C121.192,82.072 122.152,81.736 123.04,81.136 L122.512,79.624 Z M133.72,82 L135.544,82 L135.52,73.648 C135.496,70.936 133.768,69.28 130.648,69.28 C128.488,69.28 127.12,69.904 125.488,70.984 L126.28,72.352 C127.6,71.44 128.896,70.912 130.288,70.912 C132.52,70.912 133.672,72.016 133.672,73.864 L133.672,74.608 L129.52,74.608 C126.544,74.632 124.792,76.024 124.792,78.232 C124.792,80.416 126.472,82.096 129.088,82.096 C131.104,82.096 132.712,81.424 133.72,80.056 L133.72,82 Z M129.448,80.464 C127.672,80.464 126.544,79.552 126.544,78.16 C126.544,76.768 127.648,76.12 129.76,76.12 L133.696,76.12 L133.696,77.632 C133.216,79.384 131.584,80.464 129.448,80.464 Z M141.712,82 L141.712,64.192 L139.84,64.192 L139.84,82 L141.712,82 Z M148.576,80.176 L148.576,65.2 L146.656,65.2 L146.656,82 L155.944,82 L155.944,80.176 L148.576,80.176 Z M166.648,82 L168.472,82 L168.448,73.648 C168.424,70.936 166.696,69.28 163.576,69.28 C161.416,69.28 160.048,69.904 158.416,70.984 L159.208,72.352 C160.528,71.44 161.824,70.912 163.216,70.912 C165.448,70.912 166.6,72.016 166.6,73.864 L166.6,74.608 L162.448,74.608 C159.472,74.632 157.72,76.024 157.72,78.232 C157.72,80.416 159.4,82.096 162.016,82.096 C164.032,82.096 165.64,81.424 166.648,80.056 L166.648,82 Z M162.376,80.464 C160.6,80.464 159.472,79.552 159.472,78.16 C159.472,76.768 160.576,76.12 162.688,76.12 L166.624,76.12 L166.624,77.632 C166.144,79.384 164.512,80.464 162.376,80.464 Z M181.96,69.352 L180.04,69.352 L176.032,79.792 L171.832,69.352 L169.864,69.352 L175.096,81.904 L174.568,83.08 C174.064,84.256 173.248,84.856 172.264,84.856 C171.64,84.856 171.064,84.664 170.488,84.256 L169.696,85.816 C170.464,86.44 171.304,86.752 172.36,86.752 C174.04,86.752 175.36,85.744 176.152,83.8 L181.96,69.352 Z M188.896,69.304 C185.152,69.304 182.488,71.896 182.488,75.664 C182.488,79.456 185.152,82.072 188.896,82.072 C192.64,82.072 195.304,79.456 195.304,75.664 C195.304,71.896 192.64,69.304 188.896,69.304 Z M188.896,71.008 C191.536,71.008 193.432,72.928 193.432,75.688 C193.432,78.472 191.536,80.392 188.896,80.392 C186.256,80.392 184.36,78.472 184.36,75.688 C184.36,72.928 186.256,71.008 188.896,71.008 Z M209.56,69.352 L207.688,69.352 L207.688,75.568 C207.688,78.256 206.152,80.152 203.536,80.2 C201.352,80.2 200.032,78.88 200.032,76.648 L200.032,69.352 L198.16,69.352 L198.16,77.152 C198.16,80.2 199.936,82.072 202.888,82.072 C205.168,82.048 206.848,81.112 207.688,79.144 L207.688,82 L209.56,82 L209.56,69.352 Z M220.12,79.624 C219.424,80.056 218.752,80.272 218.104,80.272 C217.024,80.272 216.424,79.696 216.424,78.16 L216.424,71.272 L220.432,71.272 L220.432,69.736 L216.424,69.76 L216.424,66.424 L214.576,66.424 L214.576,69.76 L212.752,69.76 L212.752,71.272 L214.576,71.272 L214.576,78.496 C214.576,80.992 215.944,82.096 217.792,82.096 C218.8,82.072 219.76,81.736 220.648,81.136 L220.12,79.624 Z" id="HorizontalLayout-Copy-3" fill="#33383A"></path>
            <path d="M226.520833,42 L275.490247,42 C276.318674,42 276.990247,41.3284271 276.990247,40.5 C276.990247,39.6715729 276.318674,39 275.490247,39 L226.520833,39 C225.692406,39 225.020833,39.6715729 225.020833,40.5 C225.020833,41.3284271 225.692406,42 226.520833,42 Z" id="Line-Copy-27" fill="#A8AFB1"></path>
            <path d="M226.833333,74 L305.184395,74 C306.012822,74 306.684395,73.3284271 306.684395,72.5 C306.684395,71.6715729 306.012822,71 305.184395,71 L226.833333,71 C226.004906,71 225.333333,71.6715729 225.333333,72.5 C225.333333,73.3284271 226.004906,74 226.833333,74 Z" id="Line-Copy-26" fill="#A8AFB1"></path>
            <path d="M38.512,194 L38.512,177.2 L36.592,177.2 L36.592,184.784 L26.464,184.784 L26.464,177.2 L24.544,177.2 L24.544,194 L26.464,194 L26.464,186.608 L36.592,186.608 L36.592,194 L38.512,194 Z M48.472,181.304 C44.728,181.304 42.064,183.896 42.064,187.664 C42.064,191.456 44.728,194.072 48.472,194.072 C52.216,194.072 54.88,191.456 54.88,187.664 C54.88,183.896 52.216,181.304 48.472,181.304 Z M48.472,183.008 C51.112,183.008 53.008,184.928 53.008,187.688 C53.008,190.472 51.112,192.392 48.472,192.392 C45.832,192.392 43.936,190.472 43.936,187.688 C43.936,184.928 45.832,183.008 48.472,183.008 Z M60.04,181.352 L58.168,181.352 L58.168,194 L60.04,194 L60.04,187.28 C60.256,184.784 61.912,183.128 64.576,183.176 L64.576,181.28 C62.44,181.304 60.88,182.312 60.04,184.16 L60.04,181.352 Z M68.008,176.432 C67.312,176.432 66.784,176.984 66.784,177.728 C66.784,178.472 67.312,179.024 68.008,179.024 C68.704,179.024 69.232,178.472 69.232,177.728 C69.232,176.984 68.704,176.432 68.008,176.432 Z M68.944,194 L68.944,181.352 L67.096,181.352 L67.096,194 L68.944,194 Z M82.648,182.792 L82.648,181.376 L72.688,181.352 L72.688,182.984 L80.392,183.008 L72.472,192.584 L72.472,194 L82.84,194.024 L82.84,192.392 L74.728,192.368 L82.648,182.792 Z M91.072,181.304 C87.328,181.304 84.664,183.896 84.664,187.664 C84.664,191.456 87.328,194.072 91.072,194.072 C94.816,194.072 97.48,191.456 97.48,187.664 C97.48,183.896 94.816,181.304 91.072,181.304 Z M91.072,183.008 C93.712,183.008 95.608,184.928 95.608,187.688 C95.608,190.472 93.712,192.392 91.072,192.392 C88.432,192.392 86.536,190.472 86.536,187.688 C86.536,184.928 88.432,183.008 91.072,183.008 Z M107.536,181.28 C105.232,181.304 103.528,182.216 102.64,184.136 L102.64,181.352 L100.768,181.352 L100.768,194 L102.64,194 L102.64,187.208 C102.856,184.808 104.392,183.176 106.888,183.152 C109.12,183.152 110.464,184.472 110.464,186.704 L110.464,194 L112.336,194 L112.336,186.2 C112.336,183.152 110.56,181.28 107.536,181.28 Z M122.512,191.624 C121.816,192.056 121.144,192.272 120.496,192.272 C119.416,192.272 118.816,191.696 118.816,190.16 L118.816,183.272 L122.824,183.272 L122.824,181.736 L118.816,181.76 L118.816,178.424 L116.968,178.424 L116.968,181.76 L115.144,181.76 L115.144,183.272 L116.968,183.272 L116.968,190.496 C116.968,192.992 118.336,194.096 120.184,194.096 C121.192,194.072 122.152,193.736 123.04,193.136 L122.512,191.624 Z M133.72,194 L135.544,194 L135.52,185.648 C135.496,182.936 133.768,181.28 130.648,181.28 C128.488,181.28 127.12,181.904 125.488,182.984 L126.28,184.352 C127.6,183.44 128.896,182.912 130.288,182.912 C132.52,182.912 133.672,184.016 133.672,185.864 L133.672,186.608 L129.52,186.608 C126.544,186.632 124.792,188.024 124.792,190.232 C124.792,192.416 126.472,194.096 129.088,194.096 C131.104,194.096 132.712,193.424 133.72,192.056 L133.72,194 Z M129.448,192.464 C127.672,192.464 126.544,191.552 126.544,190.16 C126.544,188.768 127.648,188.12 129.76,188.12 L133.696,188.12 L133.696,189.632 C133.216,191.384 131.584,192.464 129.448,192.464 Z M141.712,194 L141.712,176.192 L139.84,176.192 L139.84,194 L141.712,194 Z M148.576,192.176 L148.576,177.2 L146.656,177.2 L146.656,194 L155.944,194 L155.944,192.176 L148.576,192.176 Z M166.648,194 L168.472,194 L168.448,185.648 C168.424,182.936 166.696,181.28 163.576,181.28 C161.416,181.28 160.048,181.904 158.416,182.984 L159.208,184.352 C160.528,183.44 161.824,182.912 163.216,182.912 C165.448,182.912 166.6,184.016 166.6,185.864 L166.6,186.608 L162.448,186.608 C159.472,186.632 157.72,188.024 157.72,190.232 C157.72,192.416 159.4,194.096 162.016,194.096 C164.032,194.096 165.64,193.424 166.648,192.056 L166.648,194 Z M162.376,192.464 C160.6,192.464 159.472,191.552 159.472,190.16 C159.472,188.768 160.576,188.12 162.688,188.12 L166.624,188.12 L166.624,189.632 C166.144,191.384 164.512,192.464 162.376,192.464 Z M181.96,181.352 L180.04,181.352 L176.032,191.792 L171.832,181.352 L169.864,181.352 L175.096,193.904 L174.568,195.08 C174.064,196.256 173.248,196.856 172.264,196.856 C171.64,196.856 171.064,196.664 170.488,196.256 L169.696,197.816 C170.464,198.44 171.304,198.752 172.36,198.752 C174.04,198.752 175.36,197.744 176.152,195.8 L181.96,181.352 Z M188.896,181.304 C185.152,181.304 182.488,183.896 182.488,187.664 C182.488,191.456 185.152,194.072 188.896,194.072 C192.64,194.072 195.304,191.456 195.304,187.664 C195.304,183.896 192.64,181.304 188.896,181.304 Z M188.896,183.008 C191.536,183.008 193.432,184.928 193.432,187.688 C193.432,190.472 191.536,192.392 188.896,192.392 C186.256,192.392 184.36,190.472 184.36,187.688 C184.36,184.928 186.256,183.008 188.896,183.008 Z M209.56,181.352 L207.688,181.352 L207.688,187.568 C207.688,190.256 206.152,192.152 203.536,192.2 C201.352,192.2 200.032,190.88 200.032,188.648 L200.032,181.352 L198.16,181.352 L198.16,189.152 C198.16,192.2 199.936,194.072 202.888,194.072 C205.168,194.048 206.848,193.112 207.688,191.144 L207.688,194 L209.56,194 L209.56,181.352 Z M220.12,191.624 C219.424,192.056 218.752,192.272 218.104,192.272 C217.024,192.272 216.424,191.696 216.424,190.16 L216.424,183.272 L220.432,183.272 L220.432,181.736 L216.424,181.76 L216.424,178.424 L214.576,178.424 L214.576,181.76 L212.752,181.76 L212.752,183.272 L214.576,183.272 L214.576,190.496 C214.576,192.992 215.944,194.096 217.792,194.096 C218.8,194.072 219.76,193.736 220.648,193.136 L220.12,191.624 Z" id="HorizontalLayout-Copy-2" fill="#33383A"></path>
            <path d="M1039.544,177.2 L1039.544,194 L1041.464,194 L1041.464,188.696 L1045.856,188.696 C1050.008,188.696 1052.408,186.56 1052.408,182.84 C1052.408,179.264 1050.008,177.2 1045.856,177.2 L1039.544,177.2 Z M1041.464,179.048 L1045.784,179.048 C1048.808,179.048 1050.56,180.344 1050.56,182.888 C1050.56,185.504 1048.808,186.848 1045.784,186.848 L1041.464,186.848 L1041.464,179.048 Z M1063.184,194 L1065.008,194 L1064.984,185.648 C1064.96,182.936 1063.232,181.28 1060.112,181.28 C1057.952,181.28 1056.584,181.904 1054.952,182.984 L1055.744,184.352 C1057.064,183.44 1058.36,182.912 1059.752,182.912 C1061.984,182.912 1063.136,184.016 1063.136,185.864 L1063.136,186.608 L1058.984,186.608 C1056.008,186.632 1054.256,188.024 1054.256,190.232 C1054.256,192.416 1055.936,194.096 1058.552,194.096 C1060.568,194.096 1062.176,193.424 1063.184,192.056 L1063.184,194 Z M1058.912,192.464 C1057.136,192.464 1056.008,191.552 1056.008,190.16 C1056.008,188.768 1057.112,188.12 1059.224,188.12 L1063.16,188.12 L1063.16,189.632 C1062.68,191.384 1061.048,192.464 1058.912,192.464 Z M1075.952,181.28 C1073.648,181.304 1071.944,182.216 1071.056,184.136 L1071.056,181.352 L1069.184,181.352 L1069.184,194 L1071.056,194 L1071.056,187.208 C1071.272,184.808 1072.808,183.176 1075.304,183.152 C1077.536,183.152 1078.88,184.472 1078.88,186.704 L1078.88,194 L1080.752,194 L1080.752,186.2 C1080.752,183.152 1078.976,181.28 1075.952,181.28 Z M1089.92,181.304 C1086.248,181.304 1083.656,183.92 1083.656,187.688 C1083.656,191.456 1086.224,194.072 1089.944,194.072 C1092.056,194.072 1093.832,193.304 1095.032,191.96 L1094,190.856 C1093.016,191.888 1091.648,192.44 1090.088,192.44 C1087.64,192.44 1085.84,190.88 1085.504,188.408 L1095.824,188.408 C1096.016,184.112 1094,181.28 1089.92,181.304 Z M1085.504,186.872 C1085.792,184.472 1087.52,182.912 1089.92,182.912 C1092.392,182.912 1094.024,184.448 1094.144,186.872 L1085.504,186.872 Z M1101.032,194 L1101.032,176.192 L1099.16,176.192 L1099.16,194 L1101.032,194 Z" id="Panel-Copy-2" fill="#00B4F0"></path>
            <path d="M1045.952,284 L1052.816,267.2 L1050.8,267.2 L1044.992,281.768 L1039.208,267.2 L1037.144,267.2 L1043.96,284 L1045.952,284 Z M1059.056,271.304 C1055.384,271.304 1052.792,273.92 1052.792,277.688 C1052.792,281.456 1055.36,284.072 1059.08,284.072 C1061.192,284.072 1062.968,283.304 1064.168,281.96 L1063.136,280.856 C1062.152,281.888 1060.784,282.44 1059.224,282.44 C1056.776,282.44 1054.976,280.88 1054.64,278.408 L1064.96,278.408 C1065.152,274.112 1063.136,271.28 1059.056,271.304 Z M1054.64,276.872 C1054.928,274.472 1056.656,272.912 1059.056,272.912 C1061.528,272.912 1063.16,274.448 1063.28,276.872 L1054.64,276.872 Z M1070.048,271.352 L1068.176,271.352 L1068.176,284 L1070.048,284 L1070.048,277.28 C1070.264,274.784 1071.92,273.128 1074.584,273.176 L1074.584,271.28 C1072.448,271.304 1070.888,272.312 1070.048,274.16 L1070.048,271.352 Z M1083.104,281.624 C1082.408,282.056 1081.736,282.272 1081.088,282.272 C1080.008,282.272 1079.408,281.696 1079.408,280.16 L1079.408,273.272 L1083.416,273.272 L1083.416,271.736 L1079.408,271.76 L1079.408,268.424 L1077.56,268.424 L1077.56,271.76 L1075.736,271.76 L1075.736,273.272 L1077.56,273.272 L1077.56,280.496 C1077.56,282.992 1078.928,284.096 1080.776,284.096 C1081.784,284.072 1082.744,283.736 1083.632,283.136 L1083.104,281.624 Z M1087.376,266.432 C1086.68,266.432 1086.152,266.984 1086.152,267.728 C1086.152,268.472 1086.68,269.024 1087.376,269.024 C1088.072,269.024 1088.6,268.472 1088.6,267.728 C1088.6,266.984 1088.072,266.432 1087.376,266.432 Z M1088.312,284 L1088.312,271.352 L1086.464,271.352 L1086.464,284 L1088.312,284 Z M1097.864,271.304 C1094.216,271.304 1091.6,273.92 1091.6,277.688 C1091.6,281.456 1094.192,284.072 1097.864,284.072 C1100.048,284.072 1101.8,283.256 1102.928,281.888 L1101.848,280.736 C1100.96,281.792 1099.592,282.368 1097.936,282.368 C1095.32,282.368 1093.448,280.448 1093.448,277.688 C1093.448,274.928 1095.32,273.032 1097.936,273.032 C1099.472,273.032 1100.744,273.584 1101.704,274.496 L1102.736,273.176 C1101.584,271.976 1099.904,271.28 1097.864,271.304 Z M1113.488,284 L1115.312,284 L1115.288,275.648 C1115.264,272.936 1113.536,271.28 1110.416,271.28 C1108.256,271.28 1106.888,271.904 1105.256,272.984 L1106.048,274.352 C1107.368,273.44 1108.664,272.912 1110.056,272.912 C1112.288,272.912 1113.44,274.016 1113.44,275.864 L1113.44,276.608 L1109.288,276.608 C1106.312,276.632 1104.56,278.024 1104.56,280.232 C1104.56,282.416 1106.24,284.096 1108.856,284.096 C1110.872,284.096 1112.48,283.424 1113.488,282.056 L1113.488,284 Z M1109.216,282.464 C1107.44,282.464 1106.312,281.552 1106.312,280.16 C1106.312,278.768 1107.416,278.12 1109.528,278.12 L1113.464,278.12 L1113.464,279.632 C1112.984,281.384 1111.352,282.464 1109.216,282.464 Z M1121.48,284 L1121.48,266.192 L1119.608,266.192 L1119.608,284 L1121.48,284 Z M1128.344,282.176 L1128.344,267.2 L1126.424,267.2 L1126.424,284 L1135.712,284 L1135.712,282.176 L1128.344,282.176 Z M1146.416,284 L1148.24,284 L1148.216,275.648 C1148.192,272.936 1146.464,271.28 1143.344,271.28 C1141.184,271.28 1139.816,271.904 1138.184,272.984 L1138.976,274.352 C1140.296,273.44 1141.592,272.912 1142.984,272.912 C1145.216,272.912 1146.368,274.016 1146.368,275.864 L1146.368,276.608 L1142.216,276.608 C1139.24,276.632 1137.488,278.024 1137.488,280.232 C1137.488,282.416 1139.168,284.096 1141.784,284.096 C1143.8,284.096 1145.408,283.424 1146.416,282.056 L1146.416,284 Z M1142.144,282.464 C1140.368,282.464 1139.24,281.552 1139.24,280.16 C1139.24,278.768 1140.344,278.12 1142.456,278.12 L1146.392,278.12 L1146.392,279.632 C1145.912,281.384 1144.28,282.464 1142.144,282.464 Z M1161.728,271.352 L1159.808,271.352 L1155.8,281.792 L1151.6,271.352 L1149.632,271.352 L1154.864,283.904 L1154.336,285.08 C1153.832,286.256 1153.016,286.856 1152.032,286.856 C1151.408,286.856 1150.832,286.664 1150.256,286.256 L1149.464,287.816 C1150.232,288.44 1151.072,288.752 1152.128,288.752 C1153.808,288.752 1155.128,287.744 1155.92,285.8 L1161.728,271.352 Z M1168.664,271.304 C1164.92,271.304 1162.256,273.896 1162.256,277.664 C1162.256,281.456 1164.92,284.072 1168.664,284.072 C1172.408,284.072 1175.072,281.456 1175.072,277.664 C1175.072,273.896 1172.408,271.304 1168.664,271.304 Z M1168.664,273.008 C1171.304,273.008 1173.2,274.928 1173.2,277.688 C1173.2,280.472 1171.304,282.392 1168.664,282.392 C1166.024,282.392 1164.128,280.472 1164.128,277.688 C1164.128,274.928 1166.024,273.008 1168.664,273.008 Z M1189.328,271.352 L1187.456,271.352 L1187.456,277.568 C1187.456,280.256 1185.92,282.152 1183.304,282.2 C1181.12,282.2 1179.8,280.88 1179.8,278.648 L1179.8,271.352 L1177.928,271.352 L1177.928,279.152 C1177.928,282.2 1179.704,284.072 1182.656,284.072 C1184.936,284.048 1186.616,283.112 1187.456,281.144 L1187.456,284 L1189.328,284 L1189.328,271.352 Z M1199.888,281.624 C1199.192,282.056 1198.52,282.272 1197.872,282.272 C1196.792,282.272 1196.192,281.696 1196.192,280.16 L1196.192,273.272 L1200.2,273.272 L1200.2,271.736 L1196.192,271.76 L1196.192,268.424 L1194.344,268.424 L1194.344,271.76 L1192.52,271.76 L1192.52,273.272 L1194.344,273.272 L1194.344,280.496 C1194.344,282.992 1195.712,284.096 1197.56,284.096 C1198.568,284.072 1199.528,283.736 1200.416,283.136 L1199.888,281.624 Z" id="VerticalLayout-Copy-3" fill="#33383A"></path>
            <path d="M226.833333,186 L305.184395,186 C306.012822,186 306.684395,185.328427 306.684395,184.5 C306.684395,183.671573 306.012822,183 305.184395,183 L226.833333,183 C226.004906,183 225.333333,183.671573 225.333333,184.5 C225.333333,185.328427 226.004906,186 226.833333,186 Z" id="Line-Copy-25" fill="#A8AFB1"></path>
            <path d="M158.112,237.2 L158.112,254 L160.032,254 L160.032,248.696 L164.424,248.696 C168.576,248.696 170.976,246.56 170.976,242.84 C170.976,239.264 168.576,237.2 164.424,237.2 L158.112,237.2 Z M160.032,239.048 L164.352,239.048 C167.376,239.048 169.128,240.344 169.128,242.888 C169.128,245.504 167.376,246.848 164.352,246.848 L160.032,246.848 L160.032,239.048 Z M181.752,254 L183.576,254 L183.552,245.648 C183.528,242.936 181.8,241.28 178.68,241.28 C176.52,241.28 175.152,241.904 173.52,242.984 L174.312,244.352 C175.632,243.44 176.928,242.912 178.32,242.912 C180.552,242.912 181.704,244.016 181.704,245.864 L181.704,246.608 L177.552,246.608 C174.576,246.632 172.824,248.024 172.824,250.232 C172.824,252.416 174.504,254.096 177.12,254.096 C179.136,254.096 180.744,253.424 181.752,252.056 L181.752,254 Z M177.48,252.464 C175.704,252.464 174.576,251.552 174.576,250.16 C174.576,248.768 175.68,248.12 177.792,248.12 L181.728,248.12 L181.728,249.632 C181.248,251.384 179.616,252.464 177.48,252.464 Z M194.52,241.28 C192.216,241.304 190.512,242.216 189.624,244.136 L189.624,241.352 L187.752,241.352 L187.752,254 L189.624,254 L189.624,247.208 C189.84,244.808 191.376,243.176 193.872,243.152 C196.104,243.152 197.448,244.472 197.448,246.704 L197.448,254 L199.32,254 L199.32,246.2 C199.32,243.152 197.544,241.28 194.52,241.28 Z M208.488,241.304 C204.816,241.304 202.224,243.92 202.224,247.688 C202.224,251.456 204.792,254.072 208.512,254.072 C210.624,254.072 212.4,253.304 213.6,251.96 L212.568,250.856 C211.584,251.888 210.216,252.44 208.656,252.44 C206.208,252.44 204.408,250.88 204.072,248.408 L214.392,248.408 C214.584,244.112 212.568,241.28 208.488,241.304 Z M204.072,246.872 C204.36,244.472 206.088,242.912 208.488,242.912 C210.96,242.912 212.592,244.448 212.712,246.872 L204.072,246.872 Z M219.6,254 L219.6,236.192 L217.728,236.192 L217.728,254 L219.6,254 Z" id="Panel-Copy" fill="#00B4F0"></path>
            <path d="M227,246 L321.021274,246 C321.849701,246 322.521274,245.328427 322.521274,244.5 C322.521274,243.671573 321.849701,243 321.021274,243 L227,243 C226.171573,243 225.5,243.671573 225.5,244.5 C225.5,245.328427 226.171573,246 227,246 Z" id="Line-Copy-24" fill="#00B4F0"></path>
            <path d="M163.2,116.176 L163.2,101.2 L161.28,101.2 L161.28,118 L170.568,118 L170.568,116.176 L163.2,116.176 Z M181.272,118 L183.096,118 L183.072,109.648 C183.048,106.936 181.32,105.28 178.2,105.28 C176.04,105.28 174.672,105.904 173.04,106.984 L173.832,108.352 C175.152,107.44 176.448,106.912 177.84,106.912 C180.072,106.912 181.224,108.016 181.224,109.864 L181.224,110.608 L177.072,110.608 C174.096,110.632 172.344,112.024 172.344,114.232 C172.344,116.416 174.024,118.096 176.64,118.096 C178.656,118.096 180.264,117.424 181.272,116.056 L181.272,118 Z M177,116.464 C175.224,116.464 174.096,115.552 174.096,114.16 C174.096,112.768 175.2,112.12 177.312,112.12 L181.248,112.12 L181.248,113.632 C180.768,115.384 179.136,116.464 177,116.464 Z M194.136,105.28 C191.928,105.28 190.2,106.312 189.264,108.088 L189.264,100.192 L187.392,100.192 L187.392,118 L189.264,118 L189.264,115.288 C190.2,117.04 191.928,118.072 194.184,118.072 C197.76,118.072 200.208,115.456 200.208,111.712 C200.208,107.92 197.712,105.28 194.136,105.28 Z M193.8,116.368 C191.136,116.368 189.264,114.424 189.264,111.664 C189.264,108.928 191.136,106.96 193.8,106.96 C196.44,106.96 198.312,108.952 198.312,111.664 C198.312,114.4 196.44,116.368 193.8,116.368 Z M208.488,105.304 C204.816,105.304 202.224,107.92 202.224,111.688 C202.224,115.456 204.792,118.072 208.512,118.072 C210.624,118.072 212.4,117.304 213.6,115.96 L212.568,114.856 C211.584,115.888 210.216,116.44 208.656,116.44 C206.208,116.44 204.408,114.88 204.072,112.408 L214.392,112.408 C214.584,108.112 212.568,105.28 208.488,105.304 Z M204.072,110.872 C204.36,108.472 206.088,106.912 208.488,106.912 C210.96,106.912 212.592,108.448 212.712,110.872 L204.072,110.872 Z M219.6,118 L219.6,100.192 L217.728,100.192 L217.728,118 L219.6,118 Z" id="Label-Copy-7" fill="#00B4F0"></path>
            <path d="M227,110 L321.021274,110 C321.849701,110 322.521274,109.328427 322.521274,108.5 C322.521274,107.671573 321.849701,107 321.021274,107 L227,107 C226.171573,107 225.5,107.671573 225.5,108.5 C225.5,109.328427 226.171573,110 227,110 Z" id="Line-Copy-23" fill="#00B4F0"></path>
            <path d="M11.544,294 L13.728,294 L9.792,288.288 C12.216,287.496 13.56,285.624 13.56,282.84 C13.56,279.264 11.136,277.2 6.936,277.2 L0.552,277.2 L0.552,294 L2.472,294 L2.472,288.696 L6.936,288.696 C7.32,288.696 7.704,288.672 8.064,288.648 L11.544,294 Z M2.472,286.848 L2.472,279.048 L6.936,279.048 C9.984,279.048 11.712,280.344 11.712,282.888 C11.712,285.504 9.984,286.848 6.936,286.848 L2.472,286.848 Z M25.488,294 L27.312,294 L27.288,285.648 C27.264,282.936 25.536,281.28 22.416,281.28 C20.256,281.28 18.888,281.904 17.256,282.984 L18.048,284.352 C19.368,283.44 20.664,282.912 22.056,282.912 C24.288,282.912 25.44,284.016 25.44,285.864 L25.44,286.608 L21.288,286.608 C18.312,286.632 16.56,288.024 16.56,290.232 C16.56,292.416 18.24,294.096 20.856,294.096 C22.872,294.096 24.48,293.424 25.488,292.056 L25.488,294 Z M21.216,292.464 C19.44,292.464 18.312,291.552 18.312,290.16 C18.312,288.768 19.416,288.12 21.528,288.12 L25.464,288.12 L25.464,289.632 C24.984,291.384 23.352,292.464 21.216,292.464 Z M43.104,276.192 L41.232,276.192 L41.232,284.088 C40.296,282.288 38.544,281.256 36.288,281.256 C32.712,281.256 30.216,283.872 30.216,287.664 C30.216,291.432 32.712,294.096 36.312,294.096 C38.568,294.096 40.296,293.064 41.232,291.288 L41.232,294 L43.104,294 L43.104,276.192 Z M36.672,292.416 C33.984,292.416 32.088,290.448 32.088,287.712 C32.088,284.952 33.984,282.96 36.672,282.96 C39.336,282.96 41.232,284.952 41.232,287.712 C41.232,290.448 39.336,292.416 36.672,292.416 Z M48.696,276.432 C48,276.432 47.472,276.984 47.472,277.728 C47.472,278.472 48,279.024 48.696,279.024 C49.392,279.024 49.92,278.472 49.92,277.728 C49.92,276.984 49.392,276.432 48.696,276.432 Z M49.632,294 L49.632,281.352 L47.784,281.352 L47.784,294 L49.632,294 Z M59.328,281.304 C55.584,281.304 52.92,283.896 52.92,287.664 C52.92,291.456 55.584,294.072 59.328,294.072 C63.072,294.072 65.736,291.456 65.736,287.664 C65.736,283.896 63.072,281.304 59.328,281.304 Z M59.328,283.008 C61.968,283.008 63.864,284.928 63.864,287.688 C63.864,290.472 61.968,292.392 59.328,292.392 C56.688,292.392 54.792,290.472 54.792,287.688 C54.792,284.928 56.688,283.008 59.328,283.008 Z M69.288,277.2 L69.288,294 L76.488,294 C80.28,294 82.536,292.296 82.536,289.44 C82.536,287.136 81.12,285.552 78.696,285.192 C80.664,284.784 81.792,283.368 81.792,281.4 C81.792,278.76 79.752,277.2 76.368,277.2 L69.288,277.2 Z M71.208,279.048 L76.272,279.048 C78.528,279.048 79.848,280.008 79.848,281.712 C79.848,283.464 78.528,284.448 76.272,284.448 L71.208,284.448 L71.208,279.048 Z M71.208,286.272 L76.272,286.272 C79.008,286.272 80.592,287.352 80.592,289.176 C80.592,291.096 79.008,292.176 76.272,292.176 L71.208,292.176 L71.208,286.272 Z M97.176,281.352 L95.304,281.352 L95.304,287.568 C95.304,290.256 93.768,292.152 91.152,292.2 C88.968,292.2 87.648,290.88 87.648,288.648 L87.648,281.352 L85.776,281.352 L85.776,289.152 C85.776,292.2 87.552,294.072 90.504,294.072 C92.784,294.048 94.464,293.112 95.304,291.144 L95.304,294 L97.176,294 L97.176,281.352 Z M107.736,291.624 C107.04,292.056 106.368,292.272 105.72,292.272 C104.64,292.272 104.04,291.696 104.04,290.16 L104.04,283.272 L108.048,283.272 L108.048,281.736 L104.04,281.76 L104.04,278.424 L102.192,278.424 L102.192,281.76 L100.368,281.76 L100.368,283.272 L102.192,283.272 L102.192,290.496 C102.192,292.992 103.56,294.096 105.408,294.096 C106.416,294.072 107.376,293.736 108.264,293.136 L107.736,291.624 Z M117.096,291.624 C116.4,292.056 115.728,292.272 115.08,292.272 C114,292.272 113.4,291.696 113.4,290.16 L113.4,283.272 L117.408,283.272 L117.408,281.736 L113.4,281.76 L113.4,278.424 L111.552,278.424 L111.552,281.76 L109.728,281.76 L109.728,283.272 L111.552,283.272 L111.552,290.496 C111.552,292.992 112.92,294.096 114.768,294.096 C115.776,294.072 116.736,293.736 117.624,293.136 L117.096,291.624 Z M125.4,281.304 C121.656,281.304 118.992,283.896 118.992,287.664 C118.992,291.456 121.656,294.072 125.4,294.072 C129.144,294.072 131.808,291.456 131.808,287.664 C131.808,283.896 129.144,281.304 125.4,281.304 Z M125.4,283.008 C128.04,283.008 129.936,284.928 129.936,287.688 C129.936,290.472 128.04,292.392 125.4,292.392 C122.76,292.392 120.864,290.472 120.864,287.688 C120.864,284.928 122.76,283.008 125.4,283.008 Z M141.864,281.28 C139.56,281.304 137.856,282.216 136.968,284.136 L136.968,281.352 L135.096,281.352 L135.096,294 L136.968,294 L136.968,287.208 C137.184,284.808 138.72,283.176 141.216,283.152 C143.448,283.152 144.792,284.472 144.792,286.704 L144.792,294 L146.664,294 L146.664,286.2 C146.664,283.152 144.888,281.28 141.864,281.28 Z M162.672,285.792 L162.672,290.856 C161.376,291.744 159.768,292.272 158.256,292.272 C154.416,292.272 151.32,289.32 151.32,285.6 C151.32,281.904 154.392,278.952 158.232,278.952 C160.104,278.952 161.952,279.672 163.32,280.896 L164.424,279.456 C162.816,278.04 160.56,277.152 158.232,277.152 C153.288,277.152 149.376,280.872 149.376,285.6 C149.376,290.328 153.264,294.096 158.136,294.096 C160.392,294.096 162.72,293.208 164.376,291.888 L164.376,285.792 L162.672,285.792 Z M170.64,281.352 L168.768,281.352 L168.768,294 L170.64,294 L170.64,287.28 C170.856,284.784 172.512,283.128 175.176,283.176 L175.176,281.28 C173.04,281.304 171.48,282.312 170.64,284.16 L170.64,281.352 Z M182.832,281.304 C179.088,281.304 176.424,283.896 176.424,287.664 C176.424,291.456 179.088,294.072 182.832,294.072 C186.576,294.072 189.24,291.456 189.24,287.664 C189.24,283.896 186.576,281.304 182.832,281.304 Z M182.832,283.008 C185.472,283.008 187.368,284.928 187.368,287.688 C187.368,290.472 185.472,292.392 182.832,292.392 C180.192,292.392 178.296,290.472 178.296,287.688 C178.296,284.928 180.192,283.008 182.832,283.008 Z M203.496,281.352 L201.624,281.352 L201.624,287.568 C201.624,290.256 200.088,292.152 197.472,292.2 C195.288,292.2 193.968,290.88 193.968,288.648 L193.968,281.352 L192.096,281.352 L192.096,289.152 C192.096,292.2 193.872,294.072 196.824,294.072 C199.104,294.048 200.784,293.112 201.624,291.144 L201.624,294 L203.496,294 L203.496,281.352 Z M214.92,281.28 C212.712,281.28 210.984,282.312 210.048,284.088 L210.048,281.352 L208.176,281.352 L208.176,298.656 L210.048,298.656 L210.048,291.288 C210.984,293.04 212.712,294.072 214.968,294.072 C218.544,294.072 220.992,291.456 220.992,287.712 C220.992,283.92 218.496,281.28 214.92,281.28 Z M214.584,292.368 C211.92,292.368 210.048,290.424 210.048,287.664 C210.048,284.928 211.92,282.96 214.584,282.96 C217.224,282.96 219.096,284.952 219.096,287.664 C219.096,290.4 217.224,292.368 214.584,292.368 Z" id="RadioButtonGroup-Copy" fill="#00B4F0"></path>
            <path d="M227.270833,286 L346.756203,286 C347.58463,286 348.256203,285.328427 348.256203,284.5 C348.256203,283.671573 347.58463,283 346.756203,283 L227.270833,283 C226.442406,283 225.770833,283.671573 225.770833,284.5 C225.770833,285.328427 226.442406,286 227.270833,286 Z" id="Line-Copy-22" fill="#00B4F0"></path>
            <path d="M163.2,566.176 L163.2,551.2 L161.28,551.2 L161.28,568 L170.568,568 L170.568,566.176 L163.2,566.176 Z M181.272,568 L183.096,568 L183.072,559.648 C183.048,556.936 181.32,555.28 178.2,555.28 C176.04,555.28 174.672,555.904 173.04,556.984 L173.832,558.352 C175.152,557.44 176.448,556.912 177.84,556.912 C180.072,556.912 181.224,558.016 181.224,559.864 L181.224,560.608 L177.072,560.608 C174.096,560.632 172.344,562.024 172.344,564.232 C172.344,566.416 174.024,568.096 176.64,568.096 C178.656,568.096 180.264,567.424 181.272,566.056 L181.272,568 Z M177,566.464 C175.224,566.464 174.096,565.552 174.096,564.16 C174.096,562.768 175.2,562.12 177.312,562.12 L181.248,562.12 L181.248,563.632 C180.768,565.384 179.136,566.464 177,566.464 Z M194.136,555.28 C191.928,555.28 190.2,556.312 189.264,558.088 L189.264,550.192 L187.392,550.192 L187.392,568 L189.264,568 L189.264,565.288 C190.2,567.04 191.928,568.072 194.184,568.072 C197.76,568.072 200.208,565.456 200.208,561.712 C200.208,557.92 197.712,555.28 194.136,555.28 Z M193.8,566.368 C191.136,566.368 189.264,564.424 189.264,561.664 C189.264,558.928 191.136,556.96 193.8,556.96 C196.44,556.96 198.312,558.952 198.312,561.664 C198.312,564.4 196.44,566.368 193.8,566.368 Z M208.488,555.304 C204.816,555.304 202.224,557.92 202.224,561.688 C202.224,565.456 204.792,568.072 208.512,568.072 C210.624,568.072 212.4,567.304 213.6,565.96 L212.568,564.856 C211.584,565.888 210.216,566.44 208.656,566.44 C206.208,566.44 204.408,564.88 204.072,562.408 L214.392,562.408 C214.584,558.112 212.568,555.28 208.488,555.304 Z M204.072,560.872 C204.36,558.472 206.088,556.912 208.488,556.912 C210.96,556.912 212.592,558.448 212.712,560.872 L204.072,560.872 Z M219.6,568 L219.6,550.192 L217.728,550.192 L217.728,568 L219.6,568 Z" id="Label-Copy-6" fill="#00B4F0"></path>
            <path d="M227.010417,560 L322.011079,560 C322.839506,560 323.511079,559.328427 323.511079,558.5 C323.511079,557.671573 322.839506,557 322.011079,557 L227.010417,557 C226.18199,557 225.510417,557.671573 225.510417,558.5 C225.510417,559.328427 226.18199,560 227.010417,560 Z" id="Line-Copy-21" fill="#00B4F0"></path>
            <path d="M226.260417,15 L250.745123,15 C251.573551,15 252.245123,14.3284271 252.245123,13.5 C252.245123,12.6715729 251.573551,12 250.745123,12 L226.260417,12 C225.43199,12 224.760417,12.6715729 224.760417,13.5 C224.760417,14.3284271 225.43199,15 226.260417,15 Z" id="Line-Copy-20" fill="#A8AFB1"></path>
            <path d="M1038.92,96.984 L1038.92,82.008 L1037,82.008 L1037,98.808 L1046.288,98.808 L1046.288,96.984 L1038.92,96.984 Z M1056.992,98.808 L1058.816,98.808 L1058.792,90.456 C1058.768,87.744 1057.04,86.088 1053.92,86.088 C1051.76,86.088 1050.392,86.712 1048.76,87.792 L1049.552,89.16 C1050.872,88.248 1052.168,87.72 1053.56,87.72 C1055.792,87.72 1056.944,88.824 1056.944,90.672 L1056.944,91.416 L1052.792,91.416 C1049.816,91.44 1048.064,92.832 1048.064,95.04 C1048.064,97.224 1049.744,98.904 1052.36,98.904 C1054.376,98.904 1055.984,98.232 1056.992,96.864 L1056.992,98.808 Z M1052.72,97.272 C1050.944,97.272 1049.816,96.36 1049.816,94.968 C1049.816,93.576 1050.92,92.928 1053.032,92.928 L1056.968,92.928 L1056.968,94.44 C1056.488,96.192 1054.856,97.272 1052.72,97.272 Z M1069.856,86.088 C1067.648,86.088 1065.92,87.12 1064.984,88.896 L1064.984,81 L1063.112,81 L1063.112,98.808 L1064.984,98.808 L1064.984,96.096 C1065.92,97.848 1067.648,98.88 1069.904,98.88 C1073.48,98.88 1075.928,96.264 1075.928,92.52 C1075.928,88.728 1073.432,86.088 1069.856,86.088 Z M1069.52,97.176 C1066.856,97.176 1064.984,95.232 1064.984,92.472 C1064.984,89.736 1066.856,87.768 1069.52,87.768 C1072.16,87.768 1074.032,89.76 1074.032,92.472 C1074.032,95.208 1072.16,97.176 1069.52,97.176 Z M1084.208,86.112 C1080.536,86.112 1077.944,88.728 1077.944,92.496 C1077.944,96.264 1080.512,98.88 1084.232,98.88 C1086.344,98.88 1088.12,98.112 1089.32,96.768 L1088.288,95.664 C1087.304,96.696 1085.936,97.248 1084.376,97.248 C1081.928,97.248 1080.128,95.688 1079.792,93.216 L1090.112,93.216 C1090.304,88.92 1088.288,86.088 1084.208,86.112 Z M1079.792,91.68 C1080.08,89.28 1081.808,87.72 1084.208,87.72 C1086.68,87.72 1088.312,89.256 1088.432,91.68 L1079.792,91.68 Z M1095.32,98.808 L1095.32,81 L1093.448,81 L1093.448,98.808 L1095.32,98.808 Z" id="Label-Copy-5" fill="#00B4F0"></path>
            <path d="M943.885417,93 L1027.13342,93 C1027.96185,93 1028.63342,92.3284271 1028.63342,91.5 C1028.63342,90.6715729 1027.96185,90 1027.13342,90 L943.885417,90 C943.05699,90 942.385417,90.6715729 942.385417,91.5 C942.385417,92.3284271 943.05699,93 943.885417,93 Z" id="Line-Copy-19" fill="#00B4F0"></path>
            <path d="M1038.92,321.984 L1038.92,307.008 L1037,307.008 L1037,323.808 L1046.288,323.808 L1046.288,321.984 L1038.92,321.984 Z M1056.992,323.808 L1058.816,323.808 L1058.792,315.456 C1058.768,312.744 1057.04,311.088 1053.92,311.088 C1051.76,311.088 1050.392,311.712 1048.76,312.792 L1049.552,314.16 C1050.872,313.248 1052.168,312.72 1053.56,312.72 C1055.792,312.72 1056.944,313.824 1056.944,315.672 L1056.944,316.416 L1052.792,316.416 C1049.816,316.44 1048.064,317.832 1048.064,320.04 C1048.064,322.224 1049.744,323.904 1052.36,323.904 C1054.376,323.904 1055.984,323.232 1056.992,321.864 L1056.992,323.808 Z M1052.72,322.272 C1050.944,322.272 1049.816,321.36 1049.816,319.968 C1049.816,318.576 1050.92,317.928 1053.032,317.928 L1056.968,317.928 L1056.968,319.44 C1056.488,321.192 1054.856,322.272 1052.72,322.272 Z M1069.856,311.088 C1067.648,311.088 1065.92,312.12 1064.984,313.896 L1064.984,306 L1063.112,306 L1063.112,323.808 L1064.984,323.808 L1064.984,321.096 C1065.92,322.848 1067.648,323.88 1069.904,323.88 C1073.48,323.88 1075.928,321.264 1075.928,317.52 C1075.928,313.728 1073.432,311.088 1069.856,311.088 Z M1069.52,322.176 C1066.856,322.176 1064.984,320.232 1064.984,317.472 C1064.984,314.736 1066.856,312.768 1069.52,312.768 C1072.16,312.768 1074.032,314.76 1074.032,317.472 C1074.032,320.208 1072.16,322.176 1069.52,322.176 Z M1084.208,311.112 C1080.536,311.112 1077.944,313.728 1077.944,317.496 C1077.944,321.264 1080.512,323.88 1084.232,323.88 C1086.344,323.88 1088.12,323.112 1089.32,321.768 L1088.288,320.664 C1087.304,321.696 1085.936,322.248 1084.376,322.248 C1081.928,322.248 1080.128,320.688 1079.792,318.216 L1090.112,318.216 C1090.304,313.92 1088.288,311.088 1084.208,311.112 Z M1079.792,316.68 C1080.08,314.28 1081.808,312.72 1084.208,312.72 C1086.68,312.72 1088.312,314.256 1088.432,316.68 L1079.792,316.68 Z M1095.32,323.808 L1095.32,306 L1093.448,306 L1093.448,323.808 L1095.32,323.808 Z" id="Label-Copy-4" fill="#00B4F0"></path>
            <path d="M842.497292,318 L1027.13342,318 C1027.96185,318 1028.63342,317.328427 1028.63342,316.5 C1028.63342,315.671573 1027.96185,315 1027.13342,315 L842.497292,315 C841.668865,315 840.997292,315.671573 840.997292,316.5 C840.997292,317.328427 841.668865,318 842.497292,318 Z" id="Line-Copy-18" fill="#00B4F0"></path>
            <path d="M859.451841,281 L1027.21262,281 C1028.04105,281 1028.71262,280.328427 1028.71262,279.5 C1028.71262,278.671573 1028.04105,278 1027.21262,278 L859.451841,278 C858.623413,278 857.951841,278.671573 857.951841,279.5 C857.951841,280.328427 858.623413,281 859.451841,281 Z" id="Line-Copy-17" fill="#A8AFB1"></path>
            <path d="M1045.952,236 L1052.816,219.2 L1050.8,219.2 L1044.992,233.768 L1039.208,219.2 L1037.144,219.2 L1043.96,236 L1045.952,236 Z M1059.056,223.304 C1055.384,223.304 1052.792,225.92 1052.792,229.688 C1052.792,233.456 1055.36,236.072 1059.08,236.072 C1061.192,236.072 1062.968,235.304 1064.168,233.96 L1063.136,232.856 C1062.152,233.888 1060.784,234.44 1059.224,234.44 C1056.776,234.44 1054.976,232.88 1054.64,230.408 L1064.96,230.408 C1065.152,226.112 1063.136,223.28 1059.056,223.304 Z M1054.64,228.872 C1054.928,226.472 1056.656,224.912 1059.056,224.912 C1061.528,224.912 1063.16,226.448 1063.28,228.872 L1054.64,228.872 Z M1070.048,223.352 L1068.176,223.352 L1068.176,236 L1070.048,236 L1070.048,229.28 C1070.264,226.784 1071.92,225.128 1074.584,225.176 L1074.584,223.28 C1072.448,223.304 1070.888,224.312 1070.048,226.16 L1070.048,223.352 Z M1083.104,233.624 C1082.408,234.056 1081.736,234.272 1081.088,234.272 C1080.008,234.272 1079.408,233.696 1079.408,232.16 L1079.408,225.272 L1083.416,225.272 L1083.416,223.736 L1079.408,223.76 L1079.408,220.424 L1077.56,220.424 L1077.56,223.76 L1075.736,223.76 L1075.736,225.272 L1077.56,225.272 L1077.56,232.496 C1077.56,234.992 1078.928,236.096 1080.776,236.096 C1081.784,236.072 1082.744,235.736 1083.632,235.136 L1083.104,233.624 Z M1087.376,218.432 C1086.68,218.432 1086.152,218.984 1086.152,219.728 C1086.152,220.472 1086.68,221.024 1087.376,221.024 C1088.072,221.024 1088.6,220.472 1088.6,219.728 C1088.6,218.984 1088.072,218.432 1087.376,218.432 Z M1088.312,236 L1088.312,223.352 L1086.464,223.352 L1086.464,236 L1088.312,236 Z M1097.864,223.304 C1094.216,223.304 1091.6,225.92 1091.6,229.688 C1091.6,233.456 1094.192,236.072 1097.864,236.072 C1100.048,236.072 1101.8,235.256 1102.928,233.888 L1101.848,232.736 C1100.96,233.792 1099.592,234.368 1097.936,234.368 C1095.32,234.368 1093.448,232.448 1093.448,229.688 C1093.448,226.928 1095.32,225.032 1097.936,225.032 C1099.472,225.032 1100.744,225.584 1101.704,226.496 L1102.736,225.176 C1101.584,223.976 1099.904,223.28 1097.864,223.304 Z M1113.488,236 L1115.312,236 L1115.288,227.648 C1115.264,224.936 1113.536,223.28 1110.416,223.28 C1108.256,223.28 1106.888,223.904 1105.256,224.984 L1106.048,226.352 C1107.368,225.44 1108.664,224.912 1110.056,224.912 C1112.288,224.912 1113.44,226.016 1113.44,227.864 L1113.44,228.608 L1109.288,228.608 C1106.312,228.632 1104.56,230.024 1104.56,232.232 C1104.56,234.416 1106.24,236.096 1108.856,236.096 C1110.872,236.096 1112.48,235.424 1113.488,234.056 L1113.488,236 Z M1109.216,234.464 C1107.44,234.464 1106.312,233.552 1106.312,232.16 C1106.312,230.768 1107.416,230.12 1109.528,230.12 L1113.464,230.12 L1113.464,231.632 C1112.984,233.384 1111.352,234.464 1109.216,234.464 Z M1121.48,236 L1121.48,218.192 L1119.608,218.192 L1119.608,236 L1121.48,236 Z M1128.344,234.176 L1128.344,219.2 L1126.424,219.2 L1126.424,236 L1135.712,236 L1135.712,234.176 L1128.344,234.176 Z M1146.416,236 L1148.24,236 L1148.216,227.648 C1148.192,224.936 1146.464,223.28 1143.344,223.28 C1141.184,223.28 1139.816,223.904 1138.184,224.984 L1138.976,226.352 C1140.296,225.44 1141.592,224.912 1142.984,224.912 C1145.216,224.912 1146.368,226.016 1146.368,227.864 L1146.368,228.608 L1142.216,228.608 C1139.24,228.632 1137.488,230.024 1137.488,232.232 C1137.488,234.416 1139.168,236.096 1141.784,236.096 C1143.8,236.096 1145.408,235.424 1146.416,234.056 L1146.416,236 Z M1142.144,234.464 C1140.368,234.464 1139.24,233.552 1139.24,232.16 C1139.24,230.768 1140.344,230.12 1142.456,230.12 L1146.392,230.12 L1146.392,231.632 C1145.912,233.384 1144.28,234.464 1142.144,234.464 Z M1161.728,223.352 L1159.808,223.352 L1155.8,233.792 L1151.6,223.352 L1149.632,223.352 L1154.864,235.904 L1154.336,237.08 C1153.832,238.256 1153.016,238.856 1152.032,238.856 C1151.408,238.856 1150.832,238.664 1150.256,238.256 L1149.464,239.816 C1150.232,240.44 1151.072,240.752 1152.128,240.752 C1153.808,240.752 1155.128,239.744 1155.92,237.8 L1161.728,223.352 Z M1168.664,223.304 C1164.92,223.304 1162.256,225.896 1162.256,229.664 C1162.256,233.456 1164.92,236.072 1168.664,236.072 C1172.408,236.072 1175.072,233.456 1175.072,229.664 C1175.072,225.896 1172.408,223.304 1168.664,223.304 Z M1168.664,225.008 C1171.304,225.008 1173.2,226.928 1173.2,229.688 C1173.2,232.472 1171.304,234.392 1168.664,234.392 C1166.024,234.392 1164.128,232.472 1164.128,229.688 C1164.128,226.928 1166.024,225.008 1168.664,225.008 Z M1189.328,223.352 L1187.456,223.352 L1187.456,229.568 C1187.456,232.256 1185.92,234.152 1183.304,234.2 C1181.12,234.2 1179.8,232.88 1179.8,230.648 L1179.8,223.352 L1177.928,223.352 L1177.928,231.152 C1177.928,234.2 1179.704,236.072 1182.656,236.072 C1184.936,236.048 1186.616,235.112 1187.456,233.144 L1187.456,236 L1189.328,236 L1189.328,223.352 Z M1199.888,233.624 C1199.192,234.056 1198.52,234.272 1197.872,234.272 C1196.792,234.272 1196.192,233.696 1196.192,232.16 L1196.192,225.272 L1200.2,225.272 L1200.2,223.736 L1196.192,223.76 L1196.192,220.424 L1194.344,220.424 L1194.344,223.76 L1192.52,223.76 L1192.52,225.272 L1194.344,225.272 L1194.344,232.496 C1194.344,234.992 1195.712,236.096 1197.56,236.096 C1198.568,236.072 1199.528,235.736 1200.416,235.136 L1199.888,233.624 Z" id="VerticalLayout-Copy-2" fill="#33383A"></path>
            <path d="M929.264688,233 L1027.53876,233 C1028.36718,233 1029.03876,232.328427 1029.03876,231.5 C1029.03876,230.671573 1028.36718,230 1027.53876,230 L929.264688,230 C928.436261,230 927.764688,230.671573 927.764688,231.5 C927.764688,232.328427 928.436261,233 929.264688,233 Z" id="Line-Copy-16" fill="#A8AFB1"></path>
            <path d="M1038.92,375.984 L1038.92,361.008 L1037,361.008 L1037,377.808 L1046.288,377.808 L1046.288,375.984 L1038.92,375.984 Z M1056.992,377.808 L1058.816,377.808 L1058.792,369.456 C1058.768,366.744 1057.04,365.088 1053.92,365.088 C1051.76,365.088 1050.392,365.712 1048.76,366.792 L1049.552,368.16 C1050.872,367.248 1052.168,366.72 1053.56,366.72 C1055.792,366.72 1056.944,367.824 1056.944,369.672 L1056.944,370.416 L1052.792,370.416 C1049.816,370.44 1048.064,371.832 1048.064,374.04 C1048.064,376.224 1049.744,377.904 1052.36,377.904 C1054.376,377.904 1055.984,377.232 1056.992,375.864 L1056.992,377.808 Z M1052.72,376.272 C1050.944,376.272 1049.816,375.36 1049.816,373.968 C1049.816,372.576 1050.92,371.928 1053.032,371.928 L1056.968,371.928 L1056.968,373.44 C1056.488,375.192 1054.856,376.272 1052.72,376.272 Z M1069.856,365.088 C1067.648,365.088 1065.92,366.12 1064.984,367.896 L1064.984,360 L1063.112,360 L1063.112,377.808 L1064.984,377.808 L1064.984,375.096 C1065.92,376.848 1067.648,377.88 1069.904,377.88 C1073.48,377.88 1075.928,375.264 1075.928,371.52 C1075.928,367.728 1073.432,365.088 1069.856,365.088 Z M1069.52,376.176 C1066.856,376.176 1064.984,374.232 1064.984,371.472 C1064.984,368.736 1066.856,366.768 1069.52,366.768 C1072.16,366.768 1074.032,368.76 1074.032,371.472 C1074.032,374.208 1072.16,376.176 1069.52,376.176 Z M1084.208,365.112 C1080.536,365.112 1077.944,367.728 1077.944,371.496 C1077.944,375.264 1080.512,377.88 1084.232,377.88 C1086.344,377.88 1088.12,377.112 1089.32,375.768 L1088.288,374.664 C1087.304,375.696 1085.936,376.248 1084.376,376.248 C1081.928,376.248 1080.128,374.688 1079.792,372.216 L1090.112,372.216 C1090.304,367.92 1088.288,365.088 1084.208,365.112 Z M1079.792,370.68 C1080.08,368.28 1081.808,366.72 1084.208,366.72 C1086.68,366.72 1088.312,368.256 1088.432,370.68 L1079.792,370.68 Z M1095.32,377.808 L1095.32,360 L1093.448,360 L1093.448,377.808 L1095.32,377.808 Z" id="Label-Copy-3" fill="#00B4F0"></path>
            <path d="M842.497292,372 L1027.13342,372 C1027.96185,372 1028.63342,371.328427 1028.63342,370.5 C1028.63342,369.671573 1027.96185,369 1027.13342,369 L842.497292,369 C841.668865,369 840.997292,369.671573 840.997292,370.5 C840.997292,371.328427 841.668865,372 842.497292,372 Z" id="Line-Copy-15" fill="#00B4F0"></path>
            <path d="M944,188.5 L1027.24341,188.5 C1028.07183,188.5 1028.74341,187.828427 1028.74341,187 C1028.74341,186.171573 1028.07183,185.5 1027.24341,185.5 L944,185.5 C943.171573,185.5 942.5,186.171573 942.5,187 C942.5,187.828427 943.171573,188.5 944,188.5 Z" id="Line-Copy-14" fill="#00B4F0"></path>
        </g>
    </g>
</svg>