<?xml version="1.0" encoding="UTF-8" standalone="no"?>
<svg
   xmlns:dc="http://purl.org/dc/elements/1.1/"
   xmlns:cc="http://creativecommons.org/ns#"
   xmlns:rdf="http://www.w3.org/1999/02/22-rdf-syntax-ns#"
   xmlns:svg="http://www.w3.org/2000/svg"
   xmlns="http://www.w3.org/2000/svg"
   height="1536.1"
   width="1463.1"
   xml:space="preserve"
   viewBox="0 0 1463.1 1536.1"
   y="0px"
   x="0px"
   id="Layer_1"
   version="1.1"><metadata
     id="metadata973"><rdf:RDF><cc:Work
         rdf:about=""><dc:format>image/svg+xml</dc:format><dc:type
           rdf:resource="http://purl.org/dc/dcmitype/StillImage" /><dc:title /></cc:Work></rdf:RDF></metadata><defs
     id="defs971" /><style
     id="style3"
     type="text/css">
	.st0{fill:none;stroke:#FF3A4B;stroke-miterlimit:10;}
	.st1{fill:#FFFFFF;stroke:#E61E6E;stroke-miterlimit:10;}
	.st2{fill:none;stroke:#7F7F7F;stroke-miterlimit:10;}
	.st3{fill:none;stroke:#33393B;stroke-width:2;stroke-miterlimit:10;}
	.st4{fill:none;}
	.st5{fill:#E5E7E9;}
	.st6{fill:none;stroke:#231F20;stroke-miterlimit:10;}
	.st7{fill:none;stroke:#000000;stroke-linejoin:round;stroke-miterlimit:10;}
	.st8{fill:none;stroke:#000000;stroke-miterlimit:10;}
	.st9{fill:none;stroke:#00B4F0;stroke-miterlimit:10;}
	.st10{fill:#FF3A4B;}
	.st11{fill:none;stroke:#FF3A4B;stroke-width:2;stroke-miterlimit:10;}
	.st12{fill:none;stroke:#00B4F0;stroke-width:2;stroke-miterlimit:10;}
	.st13{fill:#FFFFFF;}
	.st14{fill:#33393B;}
	.st15{fill:#FF3B4A;}
	.st16{fill:#00B4F0;}
	.st17{fill:none;stroke:#33393B;stroke-miterlimit:10;}
</style><rect
     style="fill:none;stroke:#ff3a4b;stroke-miterlimit:10"
     id="rect5"
     height="1172.1"
     width="1452.1"
     class="st0"
     y="272.70001"
     x="5.5" /><rect
     style="fill:#ffffff;stroke:#e61e6e;stroke-miterlimit:10"
     id="rect7"
     height="192"
     width="1270.3"
     class="st1"
     y="1338.6"
     x="130.5" /><g
     transform="translate(-356.5,-160.5)"
     id="g55"><path
       id="path57"
       d="m 757.9,254.8 -3.7,-12.3 -3.8,12.3 -2.7,0 -5.2,-15.8 2.9,0 3.8,12.8 3.8,-12.8 2.6,0 3.8,12.8 3.8,-12.8 2.7,0 -5.3,15.8 -2.7,0 z" /><path
       id="path59"
       d="m 774.9,241.4 0,4.3 7.7,0 0,2.4 -7.7,0 0,4.3 8.9,0 0,2.4 -11.5,0 0,-15.8 11.3,0 0,2.4 -8.7,0 z" /><path
       id="path61"
       d="m 798.4,239 c 3.3,0 5.3,1.5 5.3,3.9 0,1.8 -1.1,3.1 -2.8,3.5 2.1,0.4 3.4,1.9 3.4,4 0,2.7 -2.2,4.3 -5.7,4.3 l -7,0 0,-15.7 6.8,0 z m -4.2,6.5 4.1,0 c 1.7,0 2.7,-0.8 2.7,-2.1 0,-1.3 -1,-2.1 -2.7,-2.1 l -4.1,0 0,4.2 z m 0,6.9 4.1,0 c 2.1,0 3.3,-0.8 3.3,-2.3 0,-1.4 -1.2,-2.2 -3.3,-2.2 l -4.1,0 0,4.5 z" /><path
       id="path63"
       d="m 829.1,239 c 3.3,0 5.3,1.5 5.3,3.9 0,1.8 -1.1,3.1 -2.8,3.5 2.1,0.4 3.4,1.9 3.4,4 0,2.7 -2.2,4.3 -5.7,4.3 l -7,0 0,-15.7 6.8,0 z m -4.2,6.5 4.1,0 c 1.7,0 2.7,-0.8 2.7,-2.1 0,-1.3 -1,-2.1 -2.7,-2.1 l -4.1,0 0,4.2 z m 0,6.9 4.1,0 c 2.1,0 3.3,-0.8 3.3,-2.3 0,-1.4 -1.2,-2.2 -3.3,-2.2 l -4.1,0 0,4.5 z" /><path
       id="path65"
       d="m 849.8,250 c -0.2,0 -0.5,0 -0.7,0 l -3.7,0 0,4.8 -2.7,0 0,-15.8 6.4,0 c 4,0 6.4,2 6.4,5.4 0,2.5 -1.2,4.3 -3.3,5.1 l 3.5,5.3 -3,0 -2.9,-4.8 z m -0.7,-2.4 c 2.4,0 3.8,-1 3.8,-3.2 0,-2.1 -1.4,-3.1 -3.8,-3.1 l -3.7,0 0,6.2 3.7,0 z" /><path
       id="path67"
       d="m 878.9,246.9 c 0,4.5 -3.7,8 -8.4,8 -4.7,0 -8.4,-3.5 -8.4,-8 0,-4.5 3.7,-8 8.4,-8 4.8,0 8.4,3.5 8.4,8 z m -14,0 c 0,3.1 2.6,5.6 5.7,5.6 3.1,0 5.6,-2.5 5.6,-5.6 0,-3.1 -2.5,-5.6 -5.6,-5.6 -3.1,0 -5.7,2.5 -5.7,5.6 z" /><path
       id="path69"
       d="m 899.5,254.8 -3.7,-12.3 -3.8,12.3 -2.7,0 -5.3,-15.8 2.9,0 3.8,12.8 3.8,-12.8 2.6,0 3.8,12.8 3.8,-12.8 2.7,0 -5.3,15.8 -2.6,0 z" /><path
       id="path71"
       d="m 924.6,240.5 -1.1,2.3 c -1.7,-1 -3.4,-1.5 -4.6,-1.5 -1.6,0 -2.6,0.6 -2.6,1.6 0,3.4 8.5,1.6 8.5,7.3 0,2.8 -2.5,4.6 -5.9,4.6 -2.5,0 -4.8,-1 -6.4,-2.5 l 1.1,-2.3 c 1.6,1.5 3.7,2.3 5.3,2.3 1.8,0 3,-0.7 3,-1.9 0,-3.5 -8.5,-1.6 -8.5,-7.2 0,-2.7 2.3,-4.4 5.7,-4.4 2,0.1 4,0.8 5.5,1.7 z" /><path
       id="path73"
       d="m 935.1,241.4 0,4.3 7.7,0 0,2.4 -7.7,0 0,4.3 8.9,0 0,2.4 -11.5,0 0,-15.8 11.3,0 0,2.4 -8.7,0 z" /><path
       id="path75"
       d="m 958.8,250 c -0.2,0 -0.5,0 -0.7,0 l -3.7,0 0,4.8 -2.7,0 0,-15.8 6.4,0 c 4,0 6.4,2 6.4,5.4 0,2.5 -1.2,4.3 -3.3,5.1 l 3.5,5.3 -3,0 -2.9,-4.8 z m -0.7,-2.4 c 2.4,0 3.8,-1 3.8,-3.2 0,-2.1 -1.4,-3.1 -3.8,-3.1 l -3.7,0 0,6.2 3.7,0 z" /></g><g
     transform="translate(-356.5,-160.5)"
     id="g77"><path
       id="path79"
       d="m 757.2,275.4 -1.1,1.4 c -1.2,-1.2 -2.9,-2 -4.7,-2 -3.6,0 -6.4,2.8 -6.4,6.2 0,3.4 2.9,6.2 6.4,6.2 1.7,0 3.4,-0.7 4.7,-1.9 l 1.1,1.2 c -1.6,1.5 -3.7,2.4 -5.9,2.4 -4.6,0 -8.2,-3.5 -8.2,-8 0,-4.4 3.7,-7.9 8.2,-7.9 2.3,0.1 4.4,1 5.9,2.4 z" /><path
       id="path81"
       d="m 761.5,289 0,-16.7 1.8,0 0,16.7 -1.8,0 z" /><path
       id="path83"
       d="m 770.8,273.7 c 0,0.7 -0.5,1.2 -1.1,1.2 -0.7,0 -1.1,-0.5 -1.1,-1.2 0,-0.7 0.5,-1.2 1.1,-1.2 0.6,0 1.1,0.5 1.1,1.2 z m -2,15.3 0,-11.9 1.7,0 0,11.9 -1.7,0 z" /><path
       id="path85"
       d="m 786.1,283.7 -9.7,0 c 0.3,2.3 2,3.8 4.3,3.8 1.5,0 2.8,-0.5 3.7,-1.5 l 1,1 c -1.1,1.3 -2.8,2 -4.8,2 -3.5,0 -5.9,-2.5 -5.9,-6 0,-3.5 2.4,-6 5.9,-6 3.8,0 5.7,2.7 5.5,6.7 z m -1.5,-1.4 c -0.1,-2.3 -1.6,-3.7 -4,-3.7 -2.3,0 -3.9,1.5 -4.1,3.7 l 8.1,0 z" /><path
       id="path87"
       d="m 801.1,281.6 0,7.3 -1.8,0 0,-6.9 c 0,-2.1 -1.3,-3.3 -3.4,-3.3 -2.3,0 -3.8,1.6 -4,3.8 l 0,6.4 -1.8,0 0,-11.9 1.8,0 0,2.6 c 0.8,-1.8 2.4,-2.7 4.6,-2.7 3,0.1 4.6,1.9 4.6,4.7 z" /><path
       id="path89"
       d="m 812.3,288.2 c -0.8,0.6 -1.7,0.9 -2.7,0.9 -1.7,0 -3,-1 -3,-3.4 l 0,-6.8 -1.7,0 0,-1.4 1.7,0 0,-3.1 1.7,0 0,3.1 3.8,0 0,1.4 -3.8,0 0,6.5 c 0,1.4 0.6,2 1.6,2 0.6,0 1.2,-0.2 1.9,-0.6 l 0.5,1.4 z" /><path
       id="path91"
       d="m 830.3,278.1 -0.7,1.4 c -0.9,-0.6 -2.1,-1 -3.2,-1 -1.3,0 -2.3,0.5 -2.3,1.6 0,2.6 6.6,1.3 6.6,5.5 0,2.3 -2.1,3.4 -4.4,3.4 -1.7,0 -3.4,-0.6 -4.6,-1.7 l 0.7,-1.3 c 1,0.9 2.5,1.5 3.9,1.5 1.4,0 2.5,-0.5 2.5,-1.7 0.1,-2.9 -6.6,-1.4 -6.6,-5.6 0,-2.3 2,-3.2 4.1,-3.2 1.7,0 3.1,0.4 4,1.1 z" /><path
       id="path93"
       d="m 836.8,273.7 c 0,0.7 -0.5,1.2 -1.1,1.2 -0.7,0 -1.1,-0.5 -1.1,-1.2 0,-0.7 0.5,-1.2 1.1,-1.2 0.6,0 1.1,0.5 1.1,1.2 z m -2.1,15.3 0,-11.9 1.7,0 0,11.9 -1.7,0 z" /><path
       id="path95"
       d="m 852.8,289 -1.8,0 0,-2.5 c -0.9,1.7 -2.5,2.6 -4.6,2.6 -3.4,0 -5.7,-2.5 -5.7,-6 0,-3.6 2.3,-6 5.7,-6 2.1,0 3.8,1 4.6,2.7 l 0,-7.4 1.8,0 0,16.6 z m -1.8,-5.9 c 0,-2.6 -1.8,-4.5 -4.3,-4.5 -2.5,0 -4.3,1.9 -4.3,4.5 0,2.6 1.8,4.4 4.3,4.4 2.6,0 4.3,-1.9 4.3,-4.4 z" /><path
       id="path97"
       d="m 868.6,283.7 -9.7,0 c 0.3,2.3 2,3.8 4.3,3.8 1.5,0 2.7,-0.5 3.7,-1.5 l 1,1 c -1.1,1.3 -2.8,2 -4.8,2 -3.5,0 -5.9,-2.5 -5.9,-6 0,-3.5 2.4,-6 5.9,-6 3.7,0 5.6,2.7 5.5,6.7 z m -1.6,-1.4 c -0.1,-2.3 -1.6,-3.7 -4,-3.7 -2.3,0 -3.9,1.5 -4.1,3.7 l 8.1,0 z" /><path
       id="path99"
       d="m 890.2,283.7 -9.7,0 c 0.3,2.3 2,3.8 4.3,3.8 1.5,0 2.8,-0.5 3.7,-1.5 l 1,1 c -1.1,1.3 -2.8,2 -4.8,2 -3.5,0 -5.9,-2.5 -5.9,-6 0,-3.5 2.4,-6 5.9,-6 3.8,0 5.7,2.7 5.5,6.7 z m -1.5,-1.4 c -0.1,-2.3 -1.6,-3.7 -4,-3.7 -2.3,0 -3.9,1.5 -4.1,3.7 l 8.1,0 z" /><path
       id="path101"
       d="m 905.2,281.6 0,7.3 -1.8,0 0,-6.9 c 0,-2.1 -1.3,-3.3 -3.4,-3.3 -2.3,0 -3.8,1.6 -4,3.8 l 0,6.4 -1.8,0 0,-11.9 1.8,0 0,2.6 c 0.8,-1.8 2.4,-2.7 4.6,-2.7 3,0.1 4.6,1.9 4.6,4.7 z" /><path
       id="path103"
       d="m 920.6,287.7 c 0,3.5 -2.4,5.7 -6,5.7 -1.9,0 -3.4,-0.6 -4.9,-1.7 l 0.8,-1.4 c 1.2,1 2.4,1.5 4,1.5 2.6,0 4.3,-1.6 4.3,-4.1 l 0,-1.7 c -0.8,1.6 -2.4,2.5 -4.4,2.5 -3.2,0 -5.4,-2.4 -5.4,-5.7 0,-3.3 2.2,-5.7 5.4,-5.7 2,0 3.6,0.9 4.4,2.5 l 0,-2.4 1.8,0 0,10.5 z m -1.7,-4.9 c 0,-2.5 -1.7,-4.2 -4.1,-4.2 -2.4,0 -4.1,1.8 -4.1,4.2 0,2.4 1.7,4.2 4.1,4.2 2.4,0 4.1,-1.8 4.1,-4.2 z" /><path
       id="path105"
       d="m 927.8,273.7 c 0,0.7 -0.5,1.2 -1.1,1.2 -0.7,0 -1.1,-0.5 -1.1,-1.2 0,-0.7 0.5,-1.2 1.1,-1.2 0.6,0 1.1,0.5 1.1,1.2 z m -2,15.3 0,-11.9 1.7,0 0,11.9 -1.7,0 z" /><path
       id="path107"
       d="m 943.8,281.6 0,7.3 -1.8,0 0,-6.9 c 0,-2.1 -1.3,-3.3 -3.4,-3.3 -2.3,0 -3.8,1.6 -4,3.8 l 0,6.4 -1.8,0 0,-11.9 1.8,0 0,2.6 c 0.8,-1.8 2.4,-2.7 4.6,-2.7 2.9,0.1 4.6,1.9 4.6,4.7 z" /><path
       id="path109"
       d="m 959,283.7 -9.7,0 c 0.3,2.3 2,3.8 4.3,3.8 1.5,0 2.8,-0.5 3.7,-1.5 l 1,1 c -1.1,1.3 -2.8,2 -4.8,2 -3.5,0 -5.9,-2.5 -5.9,-6 0,-3.5 2.4,-6 5.9,-6 3.8,0 5.7,2.7 5.5,6.7 z m -1.5,-1.4 c -0.1,-2.3 -1.6,-3.7 -4,-3.7 -2.3,0 -3.9,1.5 -4.1,3.7 l 8.1,0 z" /></g><g
     transform="translate(-356.5,-160.5)"
     id="g111"><path
       id="path113"
       d="m 1558.7,717.6 c 4.7,0 8.2,3.3 8.2,7.9 0,4.6 -3.4,7.9 -8.2,7.9 l -6.4,0 0,-15.8 6.4,0 z m -3.9,13.4 3.9,0 c 3.1,0 5.4,-2.3 5.4,-5.5 0,-3.2 -2.4,-5.5 -5.5,-5.5 l -3.8,0 0,11 z" /><path
       id="path115"
       d="m 1576.8,720 0,4.3 7.7,0 0,2.4 -7.7,0 0,4.3 8.9,0 0,2.4 -11.5,0 0,-15.8 11.3,0 0,2.4 -8.7,0 z" /><path
       id="path117"
       d="m 1596.1,720 0,4.6 7.2,0 0,2.4 -7.2,0 0,6.5 -2.7,0 0,-15.8 10.6,0 0,2.4 -7.9,0 z" /><path
       id="path119"
       d="m 1612.5,729.8 -1.5,3.6 -2.8,0 7,-15.8 2.7,0 6.9,15.8 -2.8,0 -1.5,-3.6 -8,0 z m 4,-9.4 -3,7 5.9,0 -2.9,-7 z" /><path
       id="path121"
       d="m 1644.4,726.8 c 0,4.1 -2.6,6.6 -6.9,6.6 -4.3,0 -6.9,-2.5 -6.9,-6.6 l 0,-9.2 2.7,0 0,9.2 c 0,2.7 1.6,4.3 4.2,4.3 2.6,0 4.2,-1.6 4.2,-4.3 l 0,-9.2 2.7,0 0,9.2 z" /><path
       id="path123"
       d="m 1662.2,730.9 0,2.4 -9.5,0 0,-15.8 2.7,0 0,13.4 6.8,0 z" /><path
       id="path125"
       d="m 1675,720 0,13.4 -2.7,0 0,-13.4 -5,0 0,-2.4 12.6,0 0,2.4 -4.9,0 z" /><path
       id="path127"
       d="m 1573.4,747 0,13.4 -2.7,0 0,-13.4 -5,0 0,-2.4 12.6,0 0,2.4 -4.9,0 z" /><path
       id="path129"
       d="m 1596.2,760.4 0,-6.5 -8.4,0 0,6.5 -2.7,0 0,-15.8 2.7,0 0,6.9 8.4,0 0,-6.9 2.7,0 0,15.8 -2.7,0 z" /><path
       id="path131"
       d="m 1610.1,747 0,4.3 7.7,0 0,2.4 -7.7,0 0,4.3 8.9,0 0,2.4 -11.5,0 0,-15.8 11.3,0 0,2.4 -8.7,0 z" /><path
       id="path133"
       d="m 1641,760.4 0,-11.8 -5,10.1 -1.7,0 -5,-10.1 0,11.8 -2.5,0 0,-15.8 3.2,0 5.2,10.5 5.2,-10.5 3.1,0 0,15.8 -2.5,0 z" /><path
       id="path135"
       d="m 1654.8,747 0,4.3 7.7,0 0,2.4 -7.7,0 0,4.3 8.9,0 0,2.4 -11.5,0 0,-15.8 11.3,0 0,2.4 -8.7,0 z" /></g><g
     transform="translate(-356.5,-160.5)"
     id="g137"><path
       id="path139"
       d="m 1518.8,940.8 -1.5,3.6 -2.8,0 7,-15.8 2.7,0 6.9,15.8 -2.8,0 -1.5,-3.6 -8,0 z m 3.9,-9.4 -3,7 5.9,0 -2.9,-7 z" /><path
       id="path141"
       d="m 1544,928.6 c 4,0 6.2,2 6.2,5.4 0,3.6 -2.3,5.6 -6.2,5.6 l -3.6,0 0,4.8 -2.7,0 0,-15.8 6.3,0 z m -3.7,8.6 3.5,0 c 2.4,0 3.8,-1 3.8,-3.2 0,-2.1 -1.4,-3.1 -3.8,-3.1 l -3.5,0 0,6.3 z" /><path
       id="path143"
       d="m 1563.6,928.6 c 4,0 6.2,2 6.2,5.4 0,3.6 -2.3,5.6 -6.2,5.6 l -3.6,0 0,4.8 -2.7,0 0,-15.8 6.3,0 z m -3.6,8.6 3.5,0 c 2.4,0 3.8,-1 3.8,-3.2 0,-2.1 -1.4,-3.1 -3.8,-3.1 l -3.5,0 0,6.3 z" /><path
       id="path145"
       d="m 1586.5,941.9 0,2.4 -9.5,0 0,-15.8 2.7,0 0,13.4 6.8,0 z" /><path
       id="path147"
       d="m 1593.6,944.4 0,-15.8 2.7,0 0,15.8 -2.7,0 z" /><path
       id="path149"
       d="m 1617.9,930.9 -1.6,1.9 c -1.1,-1.2 -2.8,-2 -4.4,-2 -3.2,0 -5.6,2.4 -5.6,5.5 0,3.1 2.5,5.6 5.6,5.6 1.6,0 3.2,-0.7 4.4,-1.9 l 1.6,1.8 c -1.6,1.6 -3.9,2.6 -6.1,2.6 -4.6,0 -8.2,-3.5 -8.2,-8 0,-4.5 3.6,-7.9 8.3,-7.9 2.2,0 4.4,0.9 6,2.4 z" /><path
       id="path151"
       d="m 1627.2,940.8 -1.5,3.6 -2.8,0 7,-15.8 2.7,0 6.9,15.8 -2.8,0 -1.5,-3.6 -8,0 z m 4,-9.4 -3,7 5.9,0 -2.9,-7 z" /><path
       id="path153"
       d="m 1650.3,931 0,13.4 -2.7,0 0,-13.4 -5,0 0,-2.4 12.6,0 0,2.4 -4.9,0 z" /><path
       id="path155"
       d="m 1662.1,944.4 0,-15.8 2.7,0 0,15.8 -2.7,0 z" /><path
       id="path157"
       d="m 1688.9,936.5 c 0,4.5 -3.7,8 -8.4,8 -4.7,0 -8.4,-3.5 -8.4,-8 0,-4.5 3.7,-8 8.4,-8 4.7,0 8.4,3.5 8.4,8 z m -14.1,0 c 0,3.1 2.6,5.6 5.7,5.6 3.1,0 5.6,-2.5 5.6,-5.6 0,-3.1 -2.5,-5.6 -5.6,-5.6 -3.1,0 -5.7,2.4 -5.7,5.6 z" /><path
       id="path159"
       d="m 1707.3,944.4 -8.4,-11.3 0,11.3 -2.7,0 0,-15.8 2.6,0 8.5,11.3 0,-11.3 2.6,0 0,15.8 -2.6,0 z" /><path
       id="path161"
       d="m 1571.4,958 0,13.4 -2.7,0 0,-13.4 -5,0 0,-2.4 12.6,0 0,2.4 -4.9,0 z" /><path
       id="path163"
       d="m 1594.2,971.4 0,-6.5 -8.4,0 0,6.5 -2.7,0 0,-15.8 2.7,0 0,6.9 8.4,0 0,-6.9 2.7,0 0,15.8 -2.7,0 z" /><path
       id="path165"
       d="m 1608.2,958 0,4.3 7.7,0 0,2.4 -7.7,0 0,4.3 8.9,0 0,2.4 -11.5,0 0,-15.8 11.3,0 0,2.4 -8.7,0 z" /><path
       id="path167"
       d="m 1639,971.4 0,-11.8 -5,10.1 -1.7,0 -5,-10.1 0,11.8 -2.5,0 0,-15.8 3.2,0 5.2,10.5 5.2,-10.5 3.1,0 0,15.8 -2.5,0 z" /><path
       id="path169"
       d="m 1652.8,958 0,4.3 7.7,0 0,2.4 -7.7,0 0,4.3 8.9,0 0,2.4 -11.5,0 0,-15.8 11.3,0 0,2.4 -8.7,0 z" /></g><path
     style="fill:none;stroke:#231f20;stroke-miterlimit:10"
     id="path171"
     d="m 350.8,120 -64.7,0 c -2.2,0 -4,-1.8 -4,-4 l 0,-45.5 c 0,-2.2 1.8,-4 4,-4 l 64.7,0 c 2.2,0 4,1.8 4,4 l 0,45.5 c 0,2.2 -1.8,4 -4,4 z"
     class="st6" /><line
     style="fill:none;stroke:#000000;stroke-linejoin:round;stroke-miterlimit:10"
     id="line173"
     y2="130.89999"
     x2="318.5"
     y1="120"
     x1="318.5"
     class="st7" /><line
     style="fill:none;stroke:#000000;stroke-linejoin:round;stroke-miterlimit:10"
     id="line175"
     y2="131"
     x2="308.29999"
     y1="131"
     x1="328.70001"
     class="st7" /><circle
     id="circle177"
     r="2.5999999"
     cy="131"
     cx="328.70001" /><circle
     id="circle179"
     r="2.5999999"
     cy="131"
     cx="308.29999" /><line
     style="fill:none;stroke:#000000;stroke-miterlimit:10"
     id="line181"
     y2="79.800003"
     x2="354.79999"
     y1="79.800003"
     x1="282.20001"
     class="st8" /><circle
     id="circle183"
     r="2"
     cy="73.399994"
     cx="289.5" /><circle
     id="circle185"
     r="2"
     cy="73.399994"
     cx="297.40002" /><circle
     id="circle187"
     r="2"
     cy="73.399994"
     cx="304.70001" /><polygon
     transform="translate(-356.5,-160.5)"
     style="fill:none;stroke:#000000;stroke-miterlimit:10"
     id="polygon189"
     points="671.9,231.8 698.1,231.8 701.1,240.3 668.9,240.3 "
     class="st8" /><rect
     style="fill:none;stroke:#000000;stroke-miterlimit:10"
     id="rect191"
     height="8.5"
     width="63.299999"
     class="st8"
     y="85.800003"
     x="287.5" /><rect
     style="fill:none;stroke:#000000;stroke-miterlimit:10"
     id="rect193"
     height="13.5"
     width="27.700001"
     class="st8"
     y="100.29999"
     x="287.5" /><line
     style="fill:none;stroke:#000000;stroke-miterlimit:10"
     id="line195"
     y2="101.5"
     x2="347"
     y1="101.5"
     x1="323"
     class="st8" /><line
     style="fill:none;stroke:#000000;stroke-miterlimit:10"
     id="line197"
     y2="105.70001"
     x2="343"
     y1="105.70001"
     x1="323"
     class="st8" /><rect
     style="fill:none;stroke:#00b4f0;stroke-miterlimit:10"
     id="rect199"
     height="192"
     width="1267.4"
     class="st9"
     y="5.5"
     x="125.5" /><g
     transform="translate(-356.5,-160.5)"
     id="g201"><path
       id="path203"
       d="m 756.2,1572.1 c 3.3,0 5.3,1.5 5.3,3.9 0,1.8 -1.1,3.1 -2.8,3.5 2.1,0.4 3.4,1.9 3.4,4 0,2.7 -2.2,4.3 -5.7,4.3 l -7,0 0,-15.8 6.8,0 z m -4.1,6.6 4.1,0 c 1.7,0 2.7,-0.8 2.7,-2.1 0,-1.3 -1,-2.1 -2.7,-2.1 l -4.1,0 0,4.2 z m 0,6.8 4.1,0 c 2.1,0 3.3,-0.8 3.3,-2.3 0,-1.4 -1.2,-2.2 -3.3,-2.2 l -4.1,0 0,4.5 z" /><path
       id="path205"
       d="m 772,1584.3 -1.5,3.6 -2.8,0 7,-15.8 2.7,0 6.9,15.8 -2.8,0 -1.5,-3.6 -8,0 z m 4,-9.3 -3,7 5.9,0 -2.9,-7 z" /><path
       id="path207"
       d="m 803.5,1574.5 -1.6,1.9 c -1.1,-1.2 -2.8,-2 -4.4,-2 -3.2,0 -5.6,2.4 -5.6,5.5 0,3.1 2.5,5.6 5.6,5.6 1.6,0 3.2,-0.7 4.4,-1.9 l 1.6,1.8 c -1.6,1.6 -3.9,2.6 -6.1,2.6 -4.6,0 -8.2,-3.5 -8.2,-8 0,-4.5 3.6,-7.9 8.3,-7.9 2.3,0 4.5,0.9 6,2.4 z" /><path
       id="path209"
       d="m 816.1,1580.9 -2.7,3 0,4 -2.7,0 0,-15.8 2.7,0 0,8.2 7.5,-8.2 3.1,0 -6.1,6.7 6.5,9 -3.2,0 -5.1,-6.9 z" /><path
       id="path211"
       d="m 844.4,1574.5 0,4.3 7.7,0 0,2.4 -7.7,0 0,4.3 8.9,0 0,2.4 -11.5,0 0,-15.8 11.2,0 0,2.4 -8.6,0 z" /><path
       id="path213"
       d="m 872.1,1587.9 -8.4,-11.3 0,11.3 -2.7,0 0,-15.8 2.6,0 8.5,11.3 0,-11.3 2.6,0 0,15.8 -2.6,0 z" /><path
       id="path215"
       d="m 889.9,1572.1 c 4.7,0 8.2,3.3 8.2,7.9 0,4.6 -3.4,7.9 -8.2,7.9 l -6.4,0 0,-15.8 6.4,0 z m -3.8,13.4 3.9,0 c 3.1,0 5.4,-2.3 5.4,-5.5 0,-3.2 -2.4,-5.5 -5.5,-5.5 l -3.8,0 0,11 z" /></g><g
     transform="translate(-356.5,-160.5)"
     id="g217"><path
       id="path219"
       d="m 759.4,1607.8 -0.8,1.7 c -1.4,-0.9 -3.1,-1.3 -4.3,-1.3 -2,0 -3.4,0.8 -3.4,2.1 0,4.1 8.9,1.9 8.9,7.7 0,2.6 -2.3,4.3 -5.7,4.3 -2.3,0 -4.6,-1 -6,-2.4 l 0.8,-1.6 c 1.5,1.4 3.5,2.2 5.3,2.2 2.3,0 3.7,-0.9 3.7,-2.4 0,-4.1 -8.9,-1.9 -8.9,-7.6 0,-2.5 2.2,-4.1 5.5,-4.1 1.7,-0.1 3.6,0.5 4.9,1.4 z" /><path
       id="path221"
       d="m 774.6,1616.9 -9.7,0 c 0.3,2.3 2,3.8 4.3,3.8 1.5,0 2.8,-0.5 3.7,-1.5 l 1,1 c -1.1,1.3 -2.8,2 -4.8,2 -3.5,0 -5.9,-2.5 -5.9,-6 0,-3.5 2.4,-6 5.9,-6 3.8,0 5.7,2.7 5.5,6.7 z m -1.6,-1.4 c -0.1,-2.3 -1.6,-3.7 -4,-3.7 -2.3,0 -3.9,1.5 -4.1,3.7 l 8.1,0 z" /><path
       id="path223"
       d="m 780.5,1612.9 c 0.8,-1.7 2.3,-2.7 4.3,-2.7 l 0,1.8 c -2.5,0 -4.1,1.5 -4.3,3.9 l 0,6.3 -1.8,0 0,-11.9 1.8,0 0,2.6 z" /><path
       id="path225"
       d="m 791.5,1622.2 -4.7,-11.9 1.9,0 3.8,10.1 3.8,-10.1 1.8,0 -4.7,11.9 -1.9,0 z" /><path
       id="path227"
       d="m 811.1,1616.9 -9.7,0 c 0.3,2.3 2,3.8 4.3,3.8 1.5,0 2.7,-0.5 3.7,-1.5 l 1,1 c -1.1,1.3 -2.8,2 -4.8,2 -3.5,0 -5.9,-2.5 -5.9,-6 0,-3.5 2.4,-6 5.9,-6 3.8,0 5.7,2.7 5.5,6.7 z m -1.6,-1.4 c -0.1,-2.3 -1.6,-3.7 -4,-3.7 -2.3,0 -3.9,1.5 -4.1,3.7 l 8.1,0 z" /><path
       id="path229"
       d="m 817,1612.9 c 0.8,-1.7 2.3,-2.7 4.3,-2.7 l 0,1.8 c -2.5,0 -4.1,1.5 -4.3,3.9 l 0,6.3 -1.8,0 0,-11.9 1.8,0 0,2.6 z" /><path
       id="path231"
       d="m 839,1611.3 -0.7,1.4 c -0.9,-0.6 -2.1,-1 -3.2,-1 -1.3,0 -2.3,0.5 -2.3,1.6 0,2.6 6.6,1.3 6.6,5.5 0,2.3 -2.1,3.4 -4.4,3.4 -1.7,0 -3.4,-0.6 -4.6,-1.7 l 0.7,-1.3 c 1,0.9 2.5,1.5 3.9,1.5 1.4,0 2.5,-0.5 2.5,-1.7 0.1,-2.9 -6.6,-1.4 -6.6,-5.6 0,-2.3 2,-3.2 4.1,-3.2 1.6,0 3,0.4 4,1.1 z" /><path
       id="path233"
       d="m 845.4,1606.9 c 0,0.7 -0.5,1.2 -1.1,1.2 -0.7,0 -1.1,-0.5 -1.1,-1.2 0,-0.7 0.5,-1.2 1.1,-1.2 0.6,0 1.1,0.5 1.1,1.2 z m -2,15.3 0,-11.9 1.7,0 0,11.9 -1.7,0 z" /><path
       id="path235"
       d="m 861.4,1622.2 -1.8,0 0,-2.5 c -0.9,1.7 -2.5,2.6 -4.6,2.6 -3.4,0 -5.7,-2.5 -5.7,-6 0,-3.6 2.3,-6 5.7,-6 2.1,0 3.8,1 4.6,2.7 l 0,-7.4 1.8,0 0,16.6 z m -1.7,-5.9 c 0,-2.6 -1.8,-4.5 -4.3,-4.5 -2.5,0 -4.3,1.9 -4.3,4.5 0,2.6 1.8,4.4 4.3,4.4 2.5,0 4.3,-1.9 4.3,-4.4 z" /><path
       id="path237"
       d="m 877.2,1616.9 -9.7,0 c 0.3,2.3 2,3.8 4.3,3.8 1.5,0 2.7,-0.5 3.7,-1.5 l 1,1 c -1.1,1.3 -2.8,2 -4.8,2 -3.5,0 -5.9,-2.5 -5.9,-6 0,-3.5 2.4,-6 5.9,-6 3.8,0 5.7,2.7 5.5,6.7 z m -1.6,-1.4 c -0.1,-2.3 -1.6,-3.7 -4,-3.7 -2.3,0 -3.9,1.5 -4.1,3.7 l 8.1,0 z" /><path
       id="path239"
       d="m 888.7,1622.2 0,-16.7 1.8,0 0,16.7 -1.8,0 z" /><path
       id="path241"
       d="m 906.9,1616.2 c 0,3.6 -2.5,6 -6,6 -3.5,0 -6,-2.5 -6,-6 0,-3.5 2.5,-6 6,-6 3.5,0 6,2.5 6,6 z m -10.3,0 c 0,2.6 1.8,4.4 4.3,4.4 2.5,0 4.3,-1.8 4.3,-4.4 0,-2.6 -1.8,-4.4 -4.3,-4.4 -2.5,0 -4.3,1.9 -4.3,4.4 z" /><path
       id="path243"
       d="m 921.4,1620.9 c 0,3.5 -2.4,5.7 -6,5.7 -1.9,0 -3.4,-0.6 -4.9,-1.7 l 0.8,-1.4 c 1.2,1 2.4,1.5 4,1.5 2.6,0 4.3,-1.6 4.3,-4.1 l 0,-1.8 c -0.8,1.6 -2.4,2.5 -4.4,2.5 -3.2,0 -5.4,-2.4 -5.4,-5.7 0,-3.3 2.2,-5.7 5.4,-5.7 2,0 3.6,0.9 4.4,2.5 l 0,-2.4 1.8,0 0,10.6 z m -1.7,-4.9 c 0,-2.5 -1.7,-4.2 -4.1,-4.2 -2.4,0 -4.1,1.8 -4.1,4.2 0,2.4 1.7,4.2 4.1,4.2 2.4,0 4.1,-1.8 4.1,-4.2 z" /><path
       id="path245"
       d="m 928.5,1606.9 c 0,0.7 -0.5,1.2 -1.1,1.2 -0.7,0 -1.1,-0.5 -1.1,-1.2 0,-0.7 0.5,-1.2 1.1,-1.2 0.7,0 1.1,0.5 1.1,1.2 z m -2,15.3 0,-11.9 1.7,0 0,11.9 -1.7,0 z" /><path
       id="path247"
       d="m 943,1612 -1,1.2 c -0.9,-0.9 -2.1,-1.4 -3.5,-1.4 -2.5,0 -4.2,1.8 -4.2,4.4 0,2.6 1.8,4.4 4.2,4.4 1.6,0 2.8,-0.5 3.7,-1.5 l 1,1.1 c -1.1,1.3 -2.7,2.1 -4.8,2.1 -3.4,0 -5.9,-2.5 -5.9,-6 0,-3.5 2.5,-6 5.9,-6 1.9,-0.1 3.5,0.6 4.6,1.7 z" /></g><line
     style="fill:none;stroke:#000000;stroke-miterlimit:10"
     id="line249"
     y2="496.40002"
     x2="261.70001"
     y1="197.5"
     x1="261.70001"
     class="st8" /><rect
     style="fill:none;stroke:#000000;stroke-miterlimit:10"
     id="rect251"
     height="153"
     width="272.29999"
     class="st8"
     y="496.40002"
     x="1123.4" /><g
     transform="translate(-356.5,-160.5)"
     id="g253"><path
       id="path255"
       d="m 566.4,715.4 -6.3,-15.8 2.9,0 4.9,12.8 4.9,-12.8 2.8,0 -6.4,15.8 -2.8,0 z" /><path
       id="path257"
       d="m 583.3,711.8 -1.5,3.6 -2.8,0 7,-15.8 2.7,0 6.9,15.8 -2.8,0 -1.5,-3.6 -8,0 z m 4,-9.4 -3,7 5.9,0 -2.9,-7 z" /><path
       id="path259"
       d="m 604.4,711.8 -1.5,3.6 -2.8,0 7,-15.8 2.7,0 6.9,15.8 -2.8,0 -1.5,-3.6 -8,0 z m 4,-9.4 -3,7 5.9,0 -2.9,-7 z" /><path
       id="path261"
       d="m 629.8,699.6 c 4.7,0 8.2,3.3 8.2,7.9 0,4.6 -3.4,7.9 -8.2,7.9 l -6.4,0 0,-15.8 6.4,0 z m -3.8,13.4 3.9,0 c 3.1,0 5.4,-2.3 5.4,-5.5 0,-3.2 -2.4,-5.5 -5.5,-5.5 l -3.8,0 0,11 z" /><path
       id="path263"
       d="m 645.3,715.4 0,-15.8 2.7,0 0,15.8 -2.7,0 z" /><path
       id="path265"
       d="m 667.7,715.4 -8.4,-11.3 0,11.3 -2.7,0 0,-15.8 2.6,0 8.5,11.3 0,-11.3 2.6,0 0,15.8 -2.6,0 z" /><path
       id="path267"
       d="m 559.3,728.1 -1.1,2.3 c -1.7,-1 -3.4,-1.5 -4.6,-1.5 -1.6,0 -2.6,0.6 -2.6,1.6 0,3.4 8.5,1.6 8.5,7.3 0,2.8 -2.5,4.6 -5.9,4.6 -2.5,0 -4.8,-1 -6.4,-2.5 l 1.1,-2.3 c 1.6,1.5 3.7,2.3 5.3,2.3 1.8,0 3,-0.7 3,-1.9 0,-3.5 -8.5,-1.6 -8.5,-7.2 0,-2.7 2.3,-4.4 5.7,-4.4 2,0.1 4.1,0.8 5.5,1.7 z" /><path
       id="path269"
       d="m 569.8,729 0,4.3 7.7,0 0,2.4 -7.7,0 0,4.3 8.9,0 0,2.4 -11.5,0 0,-15.8 11.3,0 0,2.4 -8.7,0 z" /><path
       id="path271"
       d="m 593.6,737.6 c -0.2,0 -0.5,0 -0.7,0 l -3.7,0 0,4.8 -2.7,0 0,-15.8 6.4,0 c 4,0 6.4,2 6.4,5.4 0,2.5 -1.2,4.3 -3.3,5.1 l 3.5,5.3 -3,0 -2.9,-4.8 z m -0.8,-2.3 c 2.4,0 3.8,-1 3.8,-3.2 0,-2.1 -1.4,-3.1 -3.8,-3.1 l -3.7,0 0,6.2 3.7,0 z" /><path
       id="path273"
       d="m 611.3,742.4 -6.3,-15.8 2.9,0 4.9,12.8 4.9,-12.8 2.8,0 -6.4,15.8 -2.8,0 z" /><path
       id="path275"
       d="m 636.6,740 0,2.4 -9.5,0 0,-15.8 2.7,0 0,13.4 6.8,0 z" /><path
       id="path277"
       d="m 646.3,729 0,4.3 7.7,0 0,2.4 -7.7,0 0,4.3 8.9,0 0,2.4 -11.5,0 0,-15.8 11.3,0 0,2.4 -8.7,0 z" /><path
       id="path279"
       d="m 668.7,729 0,13.4 -2.7,0 0,-13.4 -5,0 0,-2.4 12.6,0 0,2.4 -4.9,0 z" /><path
       id="path281"
       d="m 678,745 7.1,-21 2.2,0 -7.1,21 -2.2,0 z" /><path
       id="path283"
       d="m 559.7,753.7 c 4,0 6.2,2 6.2,5.4 0,3.6 -2.3,5.6 -6.2,5.6 l -3.6,0 0,4.8 -2.7,0 0,-15.8 6.3,0 z m -3.6,8.6 3.5,0 c 2.4,0 3.8,-1 3.8,-3.2 0,-2.1 -1.4,-3.1 -3.8,-3.1 l -3.5,0 0,6.3 z" /><path
       id="path285"
       d="m 588.5,761.6 c 0,4.5 -3.7,8 -8.4,8 -4.7,0 -8.4,-3.5 -8.4,-8 0,-4.5 3.7,-8 8.4,-8 4.8,0 8.4,3.5 8.4,8 z m -14,0 c 0,3.1 2.6,5.6 5.7,5.6 3.1,0 5.6,-2.5 5.6,-5.6 0,-3.1 -2.5,-5.6 -5.6,-5.6 -3.1,0 -5.7,2.4 -5.7,5.6 z" /><path
       id="path287"
       d="m 603,764.7 c -0.2,0 -0.5,0 -0.7,0 l -3.7,0 0,4.8 -2.7,0 0,-15.8 6.4,0 c 4,0 6.4,2 6.4,5.4 0,2.5 -1.2,4.3 -3.3,5.1 l 3.5,5.3 -3,0 -2.9,-4.8 z m -0.7,-2.4 c 2.4,0 3.8,-1 3.8,-3.2 0,-2.1 -1.4,-3.1 -3.8,-3.1 l -3.7,0 0,6.2 3.7,0 z" /><path
       id="path289"
       d="m 622.5,756.1 0,13.4 -2.7,0 0,-13.4 -5,0 0,-2.4 12.6,0 0,2.4 -4.9,0 z" /><path
       id="path291"
       d="m 643.7,767 0,2.4 -9.5,0 0,-15.8 2.7,0 0,13.4 6.8,0 z" /><path
       id="path293"
       d="m 653.5,756.1 0,4.3 7.7,0 0,2.4 -7.7,0 0,4.3 8.9,0 0,2.4 -11.5,0 0,-15.8 11.3,0 0,2.4 -8.7,0 z" /><path
       id="path295"
       d="m 675.9,756.1 0,13.4 -2.7,0 0,-13.4 -5,0 0,-2.4 12.6,0 0,2.4 -4.9,0 z" /></g><rect
     style="fill:none;stroke:#ff3a4b;stroke-miterlimit:10"
     id="rect297"
     height="153"
     width="272.29999"
     class="st0"
     y="496.40002"
     x="125.5" /><g
     transform="translate(-356.5,-160.5)"
     id="g299"><path
       id="path301"
       d="m 896.4,733.4 -6.3,-15.8 2.9,0 4.9,12.8 4.9,-12.8 2.8,0 -6.4,15.8 -2.8,0 z" /><path
       id="path303"
       d="m 913.3,729.8 -1.5,3.6 -2.8,0 7,-15.8 2.7,0 6.9,15.8 -2.8,0 -1.5,-3.6 -8,0 z m 3.9,-9.4 -3,7 5.9,0 -2.9,-7 z" /><path
       id="path305"
       d="m 934.4,729.8 -1.5,3.6 -2.8,0 7,-15.8 2.7,0 6.9,15.8 -2.8,0 -1.5,-3.6 -8,0 z m 4,-9.4 -3,7 5.9,0 -2.9,-7 z" /><path
       id="path307"
       d="m 959.8,717.6 c 4.7,0 8.2,3.3 8.2,7.9 0,4.6 -3.4,7.9 -8.2,7.9 l -6.4,0 0,-15.8 6.4,0 z m -3.8,13.4 3.9,0 c 3.1,0 5.4,-2.3 5.4,-5.5 0,-3.2 -2.4,-5.5 -5.5,-5.5 l -3.8,0 0,11 z" /><path
       id="path309"
       d="m 975.3,733.4 0,-15.8 2.7,0 0,15.8 -2.7,0 z" /><path
       id="path311"
       d="m 997.7,733.4 -8.4,-11.3 0,11.3 -2.7,0 0,-15.8 2.6,0 8.5,11.3 0,-11.3 2.6,0 0,15.8 -2.6,0 z" /><path
       id="path313"
       d="m 896.6,746.1 -1.1,2.3 c -1.7,-1 -3.4,-1.5 -4.6,-1.5 -1.6,0 -2.6,0.6 -2.6,1.6 0,3.4 8.5,1.6 8.5,7.3 0,2.8 -2.5,4.6 -5.9,4.6 -2.5,0 -4.8,-1 -6.4,-2.5 l 1.1,-2.3 c 1.6,1.5 3.7,2.3 5.3,2.3 1.8,0 3,-0.7 3,-1.9 0,-3.5 -8.5,-1.6 -8.5,-7.2 0,-2.7 2.3,-4.4 5.7,-4.4 2,0.1 4,0.8 5.5,1.7 z" /><path
       id="path315"
       d="m 907,747 0,4.3 7.7,0 0,2.4 -7.7,0 0,4.3 8.9,0 0,2.4 -11.5,0 0,-15.8 11.3,0 0,2.4 -8.7,0 z" /><path
       id="path317"
       d="m 930.8,755.6 c -0.2,0 -0.5,0 -0.7,0 l -3.7,0 0,4.8 -2.7,0 0,-15.8 6.4,0 c 4,0 6.4,2 6.4,5.4 0,2.5 -1.2,4.3 -3.3,5.1 l 3.5,5.3 -3,0 -2.9,-4.8 z m -0.7,-2.3 c 2.4,0 3.8,-1 3.8,-3.2 0,-2.1 -1.4,-3.1 -3.8,-3.1 l -3.7,0 0,6.2 3.7,0 z" /><path
       id="path319"
       d="m 948.6,760.4 -6.3,-15.8 2.9,0 4.9,12.8 4.9,-12.8 2.8,0 -6.4,15.8 -2.8,0 z" /><path
       id="path321"
       d="m 964.4,760.4 0,-15.8 2.7,0 0,15.8 -2.7,0 z" /><path
       id="path323"
       d="m 988.7,747 -1.6,1.9 c -1.1,-1.2 -2.8,-2 -4.4,-2 -3.2,0 -5.6,2.4 -5.6,5.5 0,3.1 2.5,5.6 5.6,5.6 1.6,0 3.2,-0.7 4.4,-1.9 l 1.6,1.8 c -1.6,1.6 -3.9,2.6 -6.1,2.6 -4.6,0 -8.2,-3.5 -8.2,-8 0,-4.5 3.6,-7.9 8.3,-7.9 2.2,0 4.4,0.9 6,2.4 z" /><path
       id="path325"
       d="m 998.6,747 0,4.3 7.7,0 0,2.4 -7.7,0 0,4.3 8.9,0 0,2.4 -11.5,0 0,-15.8 11.3,0 0,2.4 -8.7,0 z" /></g><rect
     style="fill:none;stroke:#ff3a4b;stroke-miterlimit:10"
     id="rect327"
     height="153"
     width="272.29999"
     class="st0"
     y="496.40002"
     x="455.5" /><g
     transform="translate(-356.5,-160.5)"
     id="g329"><path
       id="path331"
       d="m 896.4,943.8 -6.3,-15.8 2.9,0 4.9,12.8 4.9,-12.8 2.8,0 -6.4,15.8 -2.8,0 z" /><path
       id="path333"
       d="m 913.3,940.2 -1.5,3.6 -2.8,0 7,-15.8 2.7,0 6.9,15.8 -2.8,0 -1.5,-3.6 -8,0 z m 3.9,-9.3 -3,7 5.9,0 -2.9,-7 z" /><path
       id="path335"
       d="m 934.4,940.2 -1.5,3.6 -2.8,0 7,-15.8 2.7,0 6.9,15.8 -2.8,0 -1.5,-3.6 -8,0 z m 4,-9.3 -3,7 5.9,0 -2.9,-7 z" /><path
       id="path337"
       d="m 959.8,928 c 4.7,0 8.2,3.3 8.2,7.9 0,4.6 -3.4,7.9 -8.2,7.9 l -6.4,0 0,-15.8 6.4,0 z m -3.8,13.4 3.9,0 c 3.1,0 5.4,-2.3 5.4,-5.5 0,-3.2 -2.4,-5.5 -5.5,-5.5 l -3.8,0 0,11 z" /><path
       id="path339"
       d="m 975.3,943.8 0,-15.8 2.7,0 0,15.8 -2.7,0 z" /><path
       id="path341"
       d="m 997.7,943.8 -8.4,-11.3 0,11.3 -2.7,0 0,-15.8 2.6,0 8.5,11.3 0,-11.3 2.6,0 0,15.8 -2.6,0 z" /><path
       id="path343"
       d="m 895.6,956.6 -1.1,2.3 c -1.7,-1 -3.4,-1.5 -4.6,-1.5 -1.6,0 -2.6,0.6 -2.6,1.6 0,3.4 8.5,1.6 8.5,7.3 0,2.8 -2.5,4.6 -5.9,4.6 -2.5,0 -4.8,-1 -6.4,-2.5 l 1.1,-2.3 c 1.6,1.5 3.7,2.3 5.3,2.3 1.8,0 3,-0.7 3,-1.9 0,-3.5 -8.5,-1.6 -8.5,-7.2 0,-2.7 2.3,-4.4 5.7,-4.4 2,0.1 4,0.7 5.5,1.7 z" /><path
       id="path345"
       d="m 906.1,957.5 0,4.3 7.7,0 0,2.4 -7.7,0 0,4.3 8.9,0 0,2.4 -11.5,0 0,-15.8 11.3,0 0,2.4 -8.7,0 z" /><path
       id="path347"
       d="m 933.4,956.6 -1.1,2.3 c -1.7,-1 -3.4,-1.5 -4.6,-1.5 -1.6,0 -2.6,0.6 -2.6,1.6 0,3.4 8.5,1.6 8.5,7.3 0,2.8 -2.5,4.6 -5.9,4.6 -2.5,0 -4.8,-1 -6.4,-2.5 l 1.1,-2.3 c 1.6,1.5 3.7,2.3 5.3,2.3 1.8,0 3,-0.7 3,-1.9 0,-3.5 -8.5,-1.6 -8.5,-7.2 0,-2.7 2.3,-4.4 5.7,-4.4 2,0.1 4,0.7 5.5,1.7 z" /><path
       id="path349"
       d="m 951.9,956.6 -1.1,2.3 c -1.7,-1 -3.4,-1.5 -4.6,-1.5 -1.6,0 -2.6,0.6 -2.6,1.6 0,3.4 8.5,1.6 8.5,7.3 0,2.8 -2.5,4.6 -5.9,4.6 -2.5,0 -4.8,-1 -6.4,-2.5 l 1.1,-2.3 c 1.6,1.5 3.7,2.3 5.3,2.3 1.8,0 3,-0.7 3,-1.9 0,-3.5 -8.5,-1.6 -8.5,-7.2 0,-2.7 2.3,-4.4 5.7,-4.4 2.1,0.1 4.1,0.7 5.5,1.7 z" /><path
       id="path351"
       d="m 959.7,970.8 0,-15.8 2.7,0 0,15.8 -2.7,0 z" /><path
       id="path353"
       d="m 986.5,963 c 0,4.5 -3.7,8 -8.4,8 -4.7,0 -8.4,-3.5 -8.4,-8 0,-4.5 3.7,-8 8.4,-8 4.7,0 8.4,3.4 8.4,8 z m -14,0 c 0,3.1 2.6,5.6 5.7,5.6 3.1,0 5.6,-2.5 5.6,-5.6 0,-3.1 -2.5,-5.6 -5.6,-5.6 -3.2,0 -5.7,2.4 -5.7,5.6 z" /><path
       id="path355"
       d="m 1004.9,970.8 -8.4,-11.3 0,11.3 -2.7,0 0,-15.8 2.6,0 8.5,11.3 0,-11.3 2.6,0 0,15.8 -2.6,0 z" /></g><rect
     style="fill:none;stroke:#ff3a4b;stroke-miterlimit:10"
     id="rect357"
     height="153"
     width="272.29999"
     class="st0"
     y="706.79999"
     x="455.5" /><rect
     style="fill:none;stroke:#000000;stroke-miterlimit:10"
     id="rect359"
     height="153"
     width="272.29999"
     class="st8"
     y="707.40002"
     x="1120.6" /><g
     transform="translate(-356.5,-160.5)"
     id="g361"><path
       id="path363"
       d="m 941.5,1148.5 c 0,4.1 -2.6,6.6 -6.9,6.6 -4.3,0 -6.9,-2.5 -6.9,-6.6 l 0,-9.2 2.7,0 0,9.2 c 0,2.7 1.6,4.3 4.2,4.3 2.6,0 4.2,-1.6 4.2,-4.3 l 0,-9.2 2.7,0 0,9.2 z" /><path
       id="path365"
       d="m 949.8,1155.1 0,-15.8 2.7,0 0,15.8 -2.7,0 z" /><path
       id="path367"
       d="m 852.3,1168.7 -1.6,1.9 c -1.1,-1.2 -2.8,-2 -4.4,-2 -3.2,0 -5.6,2.4 -5.6,5.5 0,3.1 2.5,5.6 5.6,5.6 1.6,0 3.2,-0.7 4.4,-1.9 l 1.6,1.8 c -1.6,1.6 -3.9,2.6 -6.1,2.6 -4.6,0 -8.2,-3.5 -8.2,-8 0,-4.5 3.6,-7.9 8.3,-7.9 2.2,0 4.5,0.9 6,2.4 z" /><path
       id="path369"
       d="m 874.6,1174.2 c 0,4.5 -3.7,8 -8.4,8 -4.7,0 -8.4,-3.5 -8.4,-8 0,-4.5 3.7,-8 8.4,-8 4.8,0.1 8.4,3.5 8.4,8 z m -14,0 c 0,3.1 2.6,5.6 5.7,5.6 3.1,0 5.6,-2.5 5.6,-5.6 0,-3.1 -2.5,-5.6 -5.6,-5.6 -3.1,0.1 -5.7,2.5 -5.7,5.6 z" /><path
       id="path371"
       d="m 896.2,1182.1 0,-11.8 -5,10.1 -1.7,0 -5,-10.1 0,11.8 -2.5,0 0,-15.8 3.2,0 5.2,10.5 5.2,-10.5 3.1,0 0,15.8 -2.5,0 z" /><path
       id="path373"
       d="m 913.6,1166.3 c 4,0 6.2,2 6.2,5.4 0,3.6 -2.3,5.6 -6.2,5.6 l -3.6,0 0,4.8 -2.7,0 0,-15.8 6.3,0 z m -3.6,8.7 3.5,0 c 2.4,0 3.8,-1 3.8,-3.2 0,-2.1 -1.4,-3.1 -3.8,-3.1 l -3.5,0 0,6.3 z" /><path
       id="path375"
       d="m 942.4,1174.2 c 0,4.5 -3.7,8 -8.4,8 -4.7,0 -8.4,-3.5 -8.4,-8 0,-4.5 3.7,-8 8.4,-8 4.8,0.1 8.4,3.5 8.4,8 z m -14,0 c 0,3.1 2.6,5.6 5.7,5.6 3.1,0 5.6,-2.5 5.6,-5.6 0,-3.1 -2.5,-5.6 -5.6,-5.6 -3.1,0.1 -5.7,2.5 -5.7,5.6 z" /><path
       id="path377"
       d="m 960.8,1182.1 -8.4,-11.3 0,11.3 -2.7,0 0,-15.8 2.6,0 8.5,11.3 0,-11.3 2.6,0 0,15.8 -2.6,0 z" /><path
       id="path379"
       d="m 974.8,1168.7 0,4.3 7.7,0 0,2.4 -7.7,0 0,4.3 8.9,0 0,2.4 -11.5,0 0,-15.8 11.3,0 0,2.4 -8.7,0 z" /><path
       id="path381"
       d="m 1002.5,1182.1 -8.4,-11.3 0,11.3 -2.7,0 0,-15.8 2.6,0 8.5,11.3 0,-11.3 2.6,0 0,15.8 -2.6,0 z" /><path
       id="path383"
       d="m 1019.5,1168.7 0,13.4 -2.7,0 0,-13.4 -5,0 0,-2.4 12.6,0 0,2.4 -4.9,0 z" /><path
       id="path385"
       d="m 1042,1167.9 -1.1,2.3 c -1.7,-1 -3.4,-1.5 -4.6,-1.5 -1.6,0 -2.6,0.6 -2.6,1.6 0,3.4 8.5,1.6 8.5,7.3 0,2.8 -2.5,4.6 -5.9,4.6 -2.5,0 -4.8,-1 -6.4,-2.5 l 1.1,-2.3 c 1.6,1.5 3.7,2.3 5.3,2.3 1.8,0 3,-0.7 3,-1.9 0,-3.5 -8.5,-1.6 -8.5,-7.2 0,-2.7 2.3,-4.4 5.7,-4.4 2.1,0 4.1,0.7 5.5,1.7 z" /></g><rect
     style="fill:none;stroke:#ff3a4b;stroke-miterlimit:10"
     id="rect387"
     height="153"
     width="272.29999"
     class="st0"
     y="918.09998"
     x="451.5" /><g
     transform="translate(-356.5,-160.5)"
     id="g389"><path
       id="path391"
       d="m 591.8,1148.5 c 0,4.1 -2.6,6.6 -6.9,6.6 -4.3,0 -6.9,-2.5 -6.9,-6.6 l 0,-9.2 2.7,0 0,9.2 c 0,2.7 1.6,4.3 4.2,4.3 2.6,0 4.2,-1.6 4.2,-4.3 l 0,-9.2 2.7,0 0,9.2 z" /><path
       id="path393"
       d="m 610.8,1140.8 -1.1,2.3 c -1.7,-1 -3.4,-1.5 -4.6,-1.5 -1.6,0 -2.6,0.6 -2.6,1.6 0,3.4 8.5,1.6 8.5,7.3 0,2.8 -2.5,4.6 -5.9,4.6 -2.5,0 -4.8,-1 -6.4,-2.5 l 1.1,-2.3 c 1.6,1.5 3.7,2.3 5.3,2.3 1.8,0 3,-0.7 3,-1.9 0,-3.5 -8.5,-1.6 -8.5,-7.2 0,-2.7 2.3,-4.4 5.7,-4.4 2,0.1 4,0.7 5.5,1.7 z" /><path
       id="path395"
       d="m 621.3,1141.7 0,4.3 7.7,0 0,2.4 -7.7,0 0,4.3 8.9,0 0,2.4 -11.5,0 0,-15.8 11.3,0 0,2.4 -8.7,0 z" /><path
       id="path397"
       d="m 645,1150.3 c -0.2,0 -0.5,0 -0.7,0 l -3.7,0 0,4.8 -2.7,0 0,-15.8 6.4,0 c 4,0 6.4,2 6.4,5.4 0,2.5 -1.2,4.3 -3.3,5.1 l 3.5,5.3 -3,0 -2.9,-4.8 z m -0.7,-2.4 c 2.4,0 3.8,-1 3.8,-3.2 0,-2.1 -1.4,-3.1 -3.8,-3.1 l -3.7,0 0,6.2 3.7,0 z" /><path
       id="path399"
       d="m 534.3,1182.1 0,-15.8 2.7,0 0,15.8 -2.7,0 z" /><path
       id="path401"
       d="m 556.7,1182.1 -8.4,-11.3 0,11.3 -2.7,0 0,-15.8 2.6,0 8.5,11.3 0,-11.3 2.6,0 0,15.8 -2.6,0 z" /><path
       id="path403"
       d="m 573.8,1168.7 0,13.4 -2.7,0 0,-13.4 -5,0 0,-2.4 12.6,0 0,2.4 -4.9,0 z" /><path
       id="path405"
       d="m 588.2,1168.7 0,4.3 7.7,0 0,2.4 -7.7,0 0,4.3 8.9,0 0,2.4 -11.5,0 0,-15.8 11.3,0 0,2.4 -8.7,0 z" /><path
       id="path407"
       d="m 612,1177.3 c -0.2,0 -0.5,0 -0.7,0 l -3.7,0 0,4.8 -2.7,0 0,-15.8 6.4,0 c 4,0 6.4,2 6.4,5.4 0,2.5 -1.2,4.3 -3.3,5.1 l 3.5,5.3 -3,0 -2.9,-4.8 z m -0.7,-2.3 c 2.4,0 3.8,-1 3.8,-3.2 0,-2.1 -1.4,-3.1 -3.8,-3.1 l -3.7,0 0,6.2 3.7,0 z" /><path
       id="path409"
       d="m 628.3,1168.7 0,4.6 7.2,0 0,2.4 -7.2,0 0,6.5 -2.7,0 0,-15.8 10.6,0 0,2.4 -7.9,0 z" /><path
       id="path411"
       d="m 644.7,1178.6 -1.5,3.6 -2.8,0 7,-15.8 2.7,0 6.9,15.8 -2.8,0 -1.5,-3.6 -8,0 z m 4,-9.4 -3,7 5.9,0 -2.9,-7 z" /><path
       id="path413"
       d="m 676.2,1168.7 -1.6,1.9 c -1.1,-1.2 -2.8,-2 -4.4,-2 -3.2,0 -5.6,2.4 -5.6,5.5 0,3.1 2.5,5.6 5.6,5.6 1.6,0 3.2,-0.7 4.4,-1.9 l 1.6,1.8 c -1.6,1.6 -3.9,2.6 -6.1,2.6 -4.6,0 -8.2,-3.5 -8.2,-8 0,-4.5 3.6,-7.9 8.3,-7.9 2.3,0 4.5,0.9 6,2.4 z" /><path
       id="path415"
       d="m 686.1,1168.7 0,4.3 7.7,0 0,2.4 -7.7,0 0,4.3 8.9,0 0,2.4 -11.5,0 0,-15.8 11.3,0 0,2.4 -8.7,0 z" /></g><rect
     style="fill:none;stroke:#ff3a4b;stroke-miterlimit:10"
     id="rect417"
     height="153"
     width="272.29999"
     class="st0"
     y="918.09998"
     x="125.5" /><g
     transform="translate(-356.5,-160.5)"
     id="g419"><path
       id="path421"
       d="m 558.2,953.2 -3.7,-12.3 -3.8,12.3 -2.7,0 -5.2,-15.8 2.9,0 3.8,12.8 3.8,-12.8 2.6,0 3.8,12.8 3.8,-12.8 2.7,0 -5.3,15.8 -2.7,0 z" /><path
       id="path423"
       d="m 575.2,939.8 0,4.3 7.7,0 0,2.4 -7.7,0 0,4.3 8.9,0 0,2.4 -11.5,0 0,-15.8 11.3,0 0,2.4 -8.7,0 z" /><path
       id="path425"
       d="m 598.7,937.4 c 3.3,0 5.3,1.5 5.3,3.9 0,1.8 -1.1,3.1 -2.8,3.5 2.1,0.4 3.4,1.9 3.4,4 0,2.7 -2.2,4.3 -5.7,4.3 l -7,0 0,-15.8 6.8,0 z m -4.2,6.6 4.1,0 c 1.7,0 2.7,-0.8 2.7,-2.1 0,-1.3 -1,-2.1 -2.7,-2.1 l -4.1,0 0,4.2 z m 0,6.9 4.1,0 c 2.1,0 3.3,-0.8 3.3,-2.3 0,-1.4 -1.2,-2.2 -3.3,-2.2 l -4.1,0 0,4.5 z" /><path
       id="path427"
       d="m 618.6,937.4 c 4,0 6.2,2 6.2,5.4 0,3.6 -2.3,5.6 -6.2,5.6 l -3.6,0 0,4.8 -2.7,0 0,-15.8 6.3,0 z m -3.7,8.7 3.5,0 c 2.4,0 3.8,-1 3.8,-3.2 0,-2.1 -1.4,-3.1 -3.8,-3.1 l -3.5,0 0,6.3 z" /><path
       id="path429"
       d="m 633.2,949.7 -1.5,3.6 -2.8,0 7,-15.8 2.7,0 6.9,15.8 -2.8,0 -1.5,-3.6 -8,0 z m 4,-9.4 -3,7 5.9,0 -2.9,-7 z" /><path
       id="path431"
       d="m 664.8,945.5 0,5.8 c -1.6,1.2 -4,2.1 -6.1,2.1 -4.7,0 -8.3,-3.5 -8.3,-8 0,-4.5 3.7,-8 8.5,-8 2.3,0 4.5,0.9 6.1,2.2 l -1.5,2 c -1.2,-1.1 -2.9,-1.8 -4.6,-1.8 -3.2,0 -5.7,2.5 -5.7,5.6 0,3.2 2.5,5.6 5.8,5.6 1.2,0 2.5,-0.4 3.6,-1.1 l 0,-4.4 2.2,0 z" /><path
       id="path433"
       d="m 675.7,939.8 0,4.3 7.7,0 0,2.4 -7.7,0 0,4.3 8.9,0 0,2.4 -11.5,0 0,-15.8 11.3,0 0,2.4 -8.7,0 z" /></g><rect
     style="fill:none;stroke:#ff3a4b;stroke-miterlimit:10"
     id="rect435"
     height="153"
     width="272.29999"
     class="st0"
     y="707.20001"
     x="125.5" /><g
     transform="translate(-356.5,-160.5)"
     id="g437"><path
       id="path439"
       d="m 903.9,1346.9 0,4.3 7.7,0 0,2.4 -7.7,0 0,4.3 8.9,0 0,2.4 -11.5,0 0,-15.8 11.3,0 0,2.4 -8.7,0 z" /><path
       id="path441"
       d="m 924.8,1360.3 -6.3,-15.8 2.9,0 4.9,12.8 4.9,-12.8 2.8,0 -6.4,15.8 -2.8,0 z" /><path
       id="path443"
       d="m 943.3,1346.9 0,4.3 7.7,0 0,2.4 -7.7,0 0,4.3 8.9,0 0,2.4 -11.5,0 0,-15.8 11.3,0 0,2.4 -8.7,0 z" /><path
       id="path445"
       d="m 971,1360.3 -8.4,-11.3 0,11.3 -2.7,0 0,-15.8 2.6,0 8.5,11.3 0,-11.3 2.6,0 0,15.8 -2.6,0 z" /><path
       id="path447"
       d="m 988,1346.9 0,13.4 -2.7,0 0,-13.4 -5,0 0,-2.4 12.7,0 0,2.4 -5,0 z" /><path
       id="path449"
       d="m 887.2,1384.9 0,2.4 -9.5,0 0,-15.8 2.7,0 0,13.4 6.8,0 z" /><path
       id="path451"
       d="m 894.2,1387.3 0,-15.8 2.7,0 0,15.8 -2.7,0 z" /><path
       id="path453"
       d="m 916.2,1373 -1.1,2.3 c -1.7,-1 -3.4,-1.5 -4.6,-1.5 -1.6,0 -2.6,0.6 -2.6,1.6 0,3.4 8.5,1.6 8.5,7.3 0,2.8 -2.5,4.6 -6,4.6 -2.5,0 -4.8,-1 -6.4,-2.5 l 1.1,-2.3 c 1.6,1.5 3.7,2.3 5.3,2.3 1.8,0 3,-0.7 3,-1.9 0,-3.5 -8.5,-1.6 -8.5,-7.2 0,-2.7 2.3,-4.4 5.7,-4.4 2.2,0.1 4.2,0.8 5.6,1.7 z" /><path
       id="path455"
       d="m 929.8,1373.9 0,13.4 -2.7,0 0,-13.4 -5,0 0,-2.4 12.6,0 0,2.4 -4.9,0 z" /><path
       id="path457"
       d="m 944.3,1373.9 0,4.3 7.7,0 0,2.4 -7.7,0 0,4.3 8.9,0 0,2.4 -11.5,0 0,-15.8 11.3,0 0,2.4 -8.7,0 z" /><path
       id="path459"
       d="m 972,1387.3 -8.4,-11.3 0,11.3 -2.7,0 0,-15.8 2.6,0 8.5,11.3 0,-11.3 2.6,0 0,15.8 -2.6,0 z" /><path
       id="path461"
       d="m 985.9,1373.9 0,4.3 7.7,0 0,2.4 -7.7,0 0,4.3 8.9,0 0,2.4 -11.5,0 0,-15.8 11.3,0 0,2.4 -8.7,0 z" /><path
       id="path463"
       d="m 1009.7,1382.5 c -0.2,0 -0.5,0 -0.7,0 l -3.7,0 0,4.8 -2.7,0 0,-15.8 6.4,0 c 4,0 6.4,2 6.4,5.4 0,2.5 -1.2,4.3 -3.3,5.1 l 3.5,5.3 -3,0 -2.9,-4.8 z m -0.7,-2.3 c 2.4,0 3.8,-1 3.8,-3.2 0,-2.1 -1.4,-3.1 -3.8,-3.1 l -3.7,0 0,6.2 3.7,0 z" /></g><rect
     style="fill:none;stroke:#ff3a4b;stroke-miterlimit:10"
     id="rect465"
     height="153"
     width="272.29999"
     class="st0"
     y="1127.3"
     x="125.5" /><g
     transform="translate(-356.5,-160.5)"
     id="g467"><path
       id="path469"
       d="m 523.7,1360.7 -1.5,3.6 -2.8,0 7,-15.8 2.7,0 6.9,15.8 -2.8,0 -1.5,-3.6 -8,0 z m 4,-9.4 -3,7 5.9,0 -2.9,-7 z" /><path
       id="path471"
       d="m 548.9,1348.5 c 4,0 6.2,2 6.2,5.4 0,3.6 -2.3,5.6 -6.2,5.6 l -3.6,0 0,4.8 -2.7,0 0,-15.8 6.3,0 z m -3.6,8.6 3.5,0 c 2.4,0 3.8,-1 3.8,-3.2 0,-2.1 -1.4,-3.1 -3.8,-3.1 l -3.5,0 0,6.3 z" /><path
       id="path473"
       d="m 568.6,1348.5 c 4,0 6.2,2 6.2,5.4 0,3.6 -2.3,5.6 -6.2,5.6 l -3.6,0 0,4.8 -2.7,0 0,-15.8 6.3,0 z m -3.7,8.6 3.5,0 c 2.4,0 3.8,-1 3.8,-3.2 0,-2.1 -1.4,-3.1 -3.8,-3.1 l -3.5,0 0,6.3 z" /><path
       id="path475"
       d="m 591.4,1361.8 0,2.4 -9.4,0 0,-15.8 2.7,0 0,13.4 6.7,0 z" /><path
       id="path477"
       d="m 598.5,1364.3 0,-15.8 2.7,0 0,15.8 -2.7,0 z" /><path
       id="path479"
       d="m 622.8,1350.8 -1.6,1.9 c -1.1,-1.2 -2.8,-2 -4.4,-2 -3.2,0 -5.6,2.4 -5.6,5.5 0,3.1 2.5,5.6 5.6,5.6 1.6,0 3.2,-0.7 4.4,-1.9 l 1.6,1.8 c -1.6,1.6 -3.9,2.6 -6.1,2.6 -4.6,0 -8.2,-3.5 -8.2,-8 0,-4.5 3.6,-7.9 8.3,-7.9 2.2,0 4.5,0.9 6,2.4 z" /><path
       id="path481"
       d="m 632.2,1360.7 -1.5,3.6 -2.8,0 7,-15.8 2.7,0 6.9,15.8 -2.8,0 -1.5,-3.6 -8,0 z m 3.9,-9.4 -3,7 5.9,0 -2.9,-7 z" /><path
       id="path483"
       d="m 655.3,1350.9 0,13.4 -2.7,0 0,-13.4 -5,0 0,-2.4 12.6,0 0,2.4 -4.9,0 z" /><path
       id="path485"
       d="m 667.1,1364.3 0,-15.8 2.7,0 0,15.8 -2.7,0 z" /><path
       id="path487"
       d="m 693.8,1356.4 c 0,4.5 -3.7,8 -8.4,8 -4.7,0 -8.4,-3.5 -8.4,-8 0,-4.5 3.7,-8 8.4,-8 4.7,0 8.4,3.5 8.4,8 z m -14,0 c 0,3.1 2.6,5.6 5.7,5.6 3.1,0 5.6,-2.5 5.6,-5.6 0,-3.1 -2.5,-5.6 -5.6,-5.6 -3.2,0 -5.7,2.4 -5.7,5.6 z" /><path
       id="path489"
       d="m 712.2,1364.3 -8.4,-11.3 0,11.3 -2.7,0 0,-15.8 2.6,0 8.5,11.3 0,-11.3 2.6,0 0,15.8 -2.6,0 z" /><path
       id="path491"
       d="m 619.4,1384.8 c 0,4.1 -2.6,6.6 -6.9,6.6 -4.3,0 -6.9,-2.5 -6.9,-6.6 l 0,-9.2 2.7,0 0,9.2 c 0,2.7 1.6,4.3 4.2,4.3 2.6,0 4.2,-1.6 4.2,-4.3 l 0,-9.2 2.7,0 0,9.2 z" /><path
       id="path493"
       d="m 627.7,1391.3 0,-15.8 2.7,0 0,15.8 -2.7,0 z" /></g><rect
     style="fill:none;stroke:#ff3a4b;stroke-miterlimit:10"
     id="rect495"
     height="153"
     width="272.29999"
     class="st0"
     y="1127.3"
     x="455.5" /><g
     transform="translate(-356.5,-160.5)"
     id="g497"><path
       id="path499"
       d="m 1249.8,1348.5 c 4.7,0 8.2,3.3 8.2,7.9 0,4.6 -3.4,7.9 -8.2,7.9 l -6.4,0 0,-15.8 6.4,0 z m -3.8,13.4 3.9,0 c 3.1,0 5.4,-2.3 5.4,-5.5 0,-3.2 -2.4,-5.5 -5.5,-5.5 l -3.8,0 0,11 z" /><path
       id="path501"
       d="m 1267.2,1360.7 -1.5,3.6 -2.8,0 7,-15.8 2.7,0 6.9,15.8 -2.8,0 -1.5,-3.6 -8,0 z m 3.9,-9.4 -3,7 6,0 -3,-7 z" /><path
       id="path503"
       d="m 1290.3,1350.9 0,13.4 -2.7,0 0,-13.4 -5,0 0,-2.4 12.6,0 0,2.4 -4.9,0 z" /><path
       id="path505"
       d="m 1302.8,1360.7 -1.5,3.6 -2.8,0 7,-15.8 2.7,0 6.9,15.8 -2.8,0 -1.5,-3.6 -8,0 z m 3.9,-9.4 -3,7 5.9,0 -2.9,-7 z" /><path
       id="path507"
       d="m 1243.8,1391.3 0,-11.8 -5,10.1 -1.7,0 -5,-10.1 0,11.8 -2.5,0 0,-15.8 3.2,0 5.2,10.5 5.2,-10.5 3.1,0 0,15.8 -2.5,0 z" /><path
       id="path509"
       d="m 1270.3,1383.4 c 0,4.5 -3.7,8 -8.4,8 -4.7,0 -8.4,-3.5 -8.4,-8 0,-4.5 3.7,-8 8.4,-8 4.8,0.1 8.4,3.5 8.4,8 z m -14,0 c 0,3.1 2.6,5.6 5.7,5.6 3.1,0 5.6,-2.5 5.6,-5.6 0,-3.1 -2.5,-5.6 -5.6,-5.6 -3.1,0 -5.7,2.5 -5.7,5.6 z" /><path
       id="path511"
       d="m 1284.1,1375.5 c 4.7,0 8.2,3.3 8.2,7.9 0,4.6 -3.4,7.9 -8.2,7.9 l -6.4,0 0,-15.8 6.4,0 z m -3.8,13.4 3.9,0 c 3.1,0 5.4,-2.3 5.4,-5.5 0,-3.2 -2.4,-5.5 -5.5,-5.5 l -3.8,0 0,11 z" /><path
       id="path513"
       d="m 1302.3,1377.9 0,4.3 7.7,0 0,2.4 -7.7,0 0,4.3 8.9,0 0,2.4 -11.5,0 0,-15.8 11.3,0 0,2.4 -8.7,0 z" /><path
       id="path515"
       d="m 1328.4,1388.9 0,2.4 -9.5,0 0,-15.8 2.7,0 0,13.4 6.8,0 z" /></g><rect
     style="fill:none;stroke:#ff3a4b;stroke-miterlimit:10"
     id="rect517"
     height="153"
     width="272.29999"
     class="st0"
     y="1127.3"
     x="789.5" /><g
     transform="translate(-356.5,-160.5)"
     id="g519"><path
       style="fill:#ff3a4b"
       id="path521"
       d="m 770,505.4 -4.5,10 -2.3,0 16,-35.3 2.3,0 16.2,35.3 -2.3,0 -4.6,-10 -20.8,0 z m 10.3,-22.8 -9.3,20.7 18.8,0 -9.5,-20.7 z"
       class="st10" /><path
       style="fill:#ff3a4b"
       id="path523"
       d="m 826.6,480.1 c 8.7,0 13.6,4.2 13.6,11.6 0,7.6 -4.9,11.9 -13.6,11.9 l -10.3,0 0,11.8 -2.1,0 0,-35.3 12.4,0 z m -10.3,21.5 10.2,0 c 7.4,0 11.6,-3.5 11.6,-9.8 0,-6.2 -4.2,-9.6 -11.6,-9.6 l -10.2,0 0,19.4 z"
       class="st10" /><path
       style="fill:#ff3a4b"
       id="path525"
       d="m 870.2,480.1 c 8.7,0 13.6,4.2 13.6,11.6 0,7.6 -4.9,11.9 -13.6,11.9 l -10.3,0 0,11.8 -2.1,0 0,-35.3 12.4,0 z m -10.3,21.5 10.2,0 c 7.4,0 11.6,-3.5 11.6,-9.8 0,-6.2 -4.2,-9.6 -11.6,-9.6 l -10.2,0 0,19.4 z"
       class="st10" /><path
       style="fill:#ff3a4b"
       id="path527"
       d="m 919.2,513.4 0,2.1 -17.8,0 0,-35.3 2.1,0 0,33.2 15.7,0 z"
       class="st10" /><path
       style="fill:#ff3a4b"
       id="path529"
       d="m 936.8,515.4 0,-35.3 2.1,0 0,35.3 -2.1,0 z"
       class="st10" /><path
       style="fill:#ff3a4b"
       id="path531"
       d="m 988,484.8 -1.3,1.6 c -2.9,-2.7 -6.9,-4.3 -11.1,-4.3 -8.9,0 -16.2,7 -16.2,15.6 0,8.7 7.2,15.7 16.2,15.7 4.2,0 8.1,-1.6 11.1,-4.3 l 1.3,1.5 c -3.3,3 -7.8,4.9 -12.5,4.9 -10,0 -18.2,-7.9 -18.2,-17.7 0,-9.8 8.2,-17.7 18.2,-17.7 4.8,0 9.2,1.8 12.5,4.7 z"
       class="st10" /><path
       style="fill:#ff3a4b"
       id="path533"
       d="m 1007.8,505.4 -4.5,10 -2.3,0 16,-35.3 2.3,0 16.2,35.3 -2.3,0 -4.6,-10 -20.8,0 z m 10.3,-22.8 -9.3,20.7 18.8,0 -9.5,-20.7 z"
       class="st10" /><path
       style="fill:#ff3a4b"
       id="path535"
       d="m 1057.4,482.2 0,33.2 -2.1,0 0,-33.2 -11.9,0 0,-2.1 25.9,0 0,2.1 -11.9,0 z"
       class="st10" /><path
       style="fill:#ff3a4b"
       id="path537"
       d="m 1086.1,515.4 0,-35.3 2.1,0 0,35.3 -2.1,0 z"
       class="st10" /><path
       style="fill:#ff3a4b"
       id="path539"
       d="m 1143.2,497.8 c 0,9.8 -8.2,17.7 -18.3,17.7 -10.1,0 -18.3,-7.9 -18.3,-17.7 0,-9.8 8.2,-17.7 18.3,-17.7 10.2,0 18.3,7.9 18.3,17.7 z m -34.3,0 c 0,8.6 7.3,15.6 16.1,15.6 8.8,0 16.1,-7 16.1,-15.6 0,-8.6 -7.3,-15.6 -16.1,-15.6 -8.9,0 -16.1,6.9 -16.1,15.6 z"
       class="st10" /><path
       style="fill:#ff3a4b"
       id="path541"
       d="m 1187.4,515.4 -23.5,-32.1 0,32.1 -2.1,0 0,-35.3 2.5,0 23.6,32.1 0,-32.1 2.1,0 0,35.3 -2.6,0 z"
       class="st10" /><path
       style="fill:#ff3a4b"
       id="path543"
       d="m 1256.3,482.9 -1,1.9 c -2.6,-1.7 -6.2,-2.6 -9.2,-2.6 -5.6,0 -9.2,2.3 -9.2,6 0,10.8 20.7,5.2 20.6,18.2 0,5.5 -4.9,9 -12.3,9 -4.7,0 -9.5,-2.1 -12.6,-5.1 l 1.1,-1.9 c 2.9,3 7.4,4.8 11.5,4.8 6.1,0 9.9,-2.6 9.9,-6.8 0.1,-11.1 -20.6,-5.4 -20.6,-18.1 0,-5.1 4.6,-8.4 11.6,-8.4 3.7,0.1 7.6,1.3 10.2,3 z"
       class="st10" /><path
       style="fill:#ff3a4b"
       id="path545"
       d="m 1279.3,482.2 0,14.1 18.4,0 0,2.1 -18.4,0 0,14.9 21.3,0 0,2.1 -23.4,0 0,-35.3 22.8,0 0,2.1 -20.7,0 z"
       class="st10" /><path
       style="fill:#ff3a4b"
       id="path547"
       d="m 1335.4,503.5 c -1,0.2 -1.9,0.2 -3,0.2 l -10.4,0 0,11.8 -2.1,0 0,-35.3 12.5,0 c 8.7,0 13.7,4.2 13.7,11.6 0,6 -3.1,9.9 -8.7,11.4 l 8.8,12.3 -2.5,0 -8.3,-12 z m -3,-1.9 c 7.4,0 11.6,-3.5 11.6,-9.8 0,-6.2 -4.2,-9.6 -11.6,-9.6 l -10.4,0 0,19.4 10.4,0 z"
       class="st10" /><path
       style="fill:#ff3a4b"
       id="path549"
       d="m 1374.9,515.4 -14.6,-35.3 2.4,0 13.4,32.8 13.4,-32.8 2.3,0 -14.6,35.3 -2.3,0 z"
       class="st10" /><path
       style="fill:#ff3a4b"
       id="path551"
       d="m 1410.5,482.2 0,14.1 18.4,0 0,2.1 -18.4,0 0,14.9 21.3,0 0,2.1 -23.4,0 0,-35.3 22.8,0 0,2.1 -20.7,0 z"
       class="st10" /><path
       style="fill:#ff3a4b"
       id="path553"
       d="m 1466.6,503.5 c -1,0.2 -1.9,0.2 -3,0.2 l -10.3,0 0,11.8 -2.1,0 0,-35.3 12.5,0 c 8.7,0 13.7,4.2 13.7,11.6 0,6 -3.1,9.9 -8.7,11.4 l 8.8,12.3 -2.5,0 -8.4,-12 z m -3,-1.9 c 7.4,0 11.6,-3.5 11.6,-9.8 0,-6.2 -4.2,-9.6 -11.6,-9.6 l -10.4,0 0,19.4 10.4,0 z"
       class="st10" /></g><g
     transform="translate(-356.5,-160.5)"
     id="g555"><path
       id="path557"
       d="m 919.8,565.1 c 0,4.4 -2.6,6.9 -6.8,6.9 -2.6,0 -4.8,-1.2 -6.4,-3.1 l 1.7,-2.8 c 1.4,1.6 3.1,2.4 4.6,2.4 2,0 3.1,-1.2 3.1,-3.5 l 0,-11.7 -7.5,0 0,-3.3 11.3,0 0,15.1 z" /><path
       id="path559"
       d="m 941.1,569.8 c -1.2,1.5 -3.1,2.2 -5.5,2.2 -3.6,0 -5.8,-2.2 -5.8,-5.1 0,-3 2.3,-5 6.3,-5 l 5,0 0,-0.5 c 0,-2.1 -1.3,-3.3 -4,-3.3 -1.6,0 -3.2,0.6 -4.9,1.7 l -1.5,-2.5 c 2.3,-1.4 4,-2.1 7.1,-2.1 4.3,0 6.7,2.2 6.7,5.8 l 0,10.9 -3.5,0 0,-2.1 z m -0.1,-3.8 0,-1.5 -4.5,0 c -2.3,0 -3.4,0.6 -3.4,2.2 0,1.5 1.2,2.5 3.2,2.5 2.6,-0.1 4.6,-1.4 4.7,-3.2 z" /><path
       id="path561"
       d="m 958.9,571.8 -6.4,-16.6 3.7,0 4.6,13.1 4.6,-13.1 3.6,0 -6.4,16.6 -3.7,0 z" /><path
       id="path563"
       d="m 987.2,569.8 c -1.2,1.5 -3.1,2.2 -5.5,2.2 -3.6,0 -5.8,-2.2 -5.8,-5.1 0,-3 2.3,-5 6.3,-5 l 5,0 0,-0.5 c 0,-2.1 -1.3,-3.3 -4,-3.3 -1.6,0 -3.2,0.6 -4.9,1.7 l -1.5,-2.5 c 2.3,-1.4 4,-2.1 7.1,-2.1 4.3,0 6.7,2.2 6.7,5.8 l 0,10.9 -3.5,0 0,-2.1 z m 0,-3.8 0,-1.5 -4.5,0 c -2.3,0 -3.4,0.6 -3.4,2.2 0,1.5 1.2,2.5 3.2,2.5 2.5,-0.1 4.5,-1.4 4.7,-3.2 z" /><path
       id="path565"
       d="m 1035,571.8 -5.2,-17 -5.2,17 -3.8,0 -7.2,-21.8 4,0 5.3,17.7 5.3,-17.7 3.6,0 5.3,17.7 5.3,-17.7 3.8,0 -7.3,21.8 -3.9,0 z" /><path
       id="path567"
       d="m 1067.5,564.9 -12.5,0 c 0.6,2.6 2.5,4.1 5.1,4.1 1.8,0 3.5,-0.7 4.7,-1.9 l 1.9,2 c -1.6,1.8 -4,2.8 -6.9,2.8 -5.1,0 -8.5,-3.4 -8.5,-8.4 0,-5 3.5,-8.4 8.4,-8.4 5.9,0 8.2,3.8 7.8,9.8 z m -3.1,-2.6 c -0.1,-2.7 -1.9,-4.3 -4.6,-4.3 -2.6,0 -4.5,1.7 -4.9,4.3 l 9.5,0 z" /><path
       id="path569"
       d="m 1094.9,563.6 c 0,5 -3.1,8.4 -7.9,8.4 -2.6,0 -4.6,-1.1 -5.9,-3 l 0,2.9 -3.6,0 0,-23.1 3.6,0 0,9.4 c 1.2,-1.9 3.2,-3 5.8,-3 4.8,-0.1 8,3.3 8,8.4 z m -3.6,-0.1 c 0,-3.1 -2.1,-5.4 -5.1,-5.4 -3,0 -5,2.2 -5,5.4 0,3.2 2.1,5.4 5,5.4 3,0 5.1,-2.3 5.1,-5.4 z" /><path
       id="path571"
       d="m 1122.5,566.9 -2.1,4.9 -3.8,0 9.6,-21.8 3.8,0 9.5,21.8 -3.9,0 -2.1,-4.9 -11,0 z m 5.5,-13 -4.1,9.7 8.2,0 -4.1,-9.7 z" /><path
       id="path573"
       d="m 1165.9,563.6 c 0,5 -3.1,8.4 -7.9,8.4 -2.6,0 -4.6,-1.1 -5.9,-3 l 0,8.9 -3.6,0 0,-22.6 3.6,0 0,2.9 c 1.2,-1.9 3.2,-3 5.8,-3 4.8,-0.1 8,3.3 8,8.4 z m -3.6,-0.1 c 0,-3.1 -2.1,-5.4 -5.1,-5.4 -3,0 -5,2.2 -5,5.4 0,3.2 2.1,5.4 5,5.4 3,0 5.1,-2.3 5.1,-5.4 z" /><path
       id="path575"
       d="m 1193.3,563.6 c 0,5 -3.1,8.4 -7.9,8.4 -2.6,0 -4.6,-1.1 -5.9,-3 l 0,8.9 -3.6,0 0,-22.6 3.6,0 0,2.9 c 1.2,-1.9 3.2,-3 5.8,-3 4.8,-0.1 8,3.3 8,8.4 z m -3.6,-0.1 c 0,-3.1 -2.1,-5.4 -5.1,-5.4 -3,0 -5,2.2 -5,5.4 0,3.2 2.1,5.4 5,5.4 3,0 5.1,-2.3 5.1,-5.4 z" /><path
       id="path577"
       d="m 1203.5,571.8 0,-23.1 3.6,0 0,23.1 -3.6,0 z" /><path
       id="path579"
       d="m 1222.6,550.5 c 0,1.2 -0.9,2.2 -2.1,2.2 -1.2,0 -2.1,-0.9 -2.1,-2.2 0,-1.3 0.9,-2.2 2.1,-2.2 1.2,0 2.1,0.9 2.1,2.2 z m -3.8,21.3 0,-16.6 3.6,0 0,16.6 -3.6,0 z" /><path
       id="path581"
       d="m 1247.5,557.8 -2,2.3 c -1.2,-1.2 -2.7,-1.9 -4.7,-1.9 -2.9,0 -4.9,2.2 -4.9,5.3 0,3.1 2.1,5.3 4.9,5.3 2.1,0 3.8,-0.7 4.9,-2 l 2,2 c -1.5,2 -3.9,3.1 -7,3.1 -4.9,0 -8.4,-3.4 -8.4,-8.4 0,-5 3.4,-8.4 8.4,-8.4 2.9,0 5.3,1 6.8,2.7 z" /><path
       id="path583"
       d="m 1266.9,569.8 c -1.2,1.5 -3.1,2.2 -5.5,2.2 -3.6,0 -5.8,-2.2 -5.8,-5.1 0,-3 2.3,-5 6.3,-5 l 5,0 0,-0.5 c 0,-2.1 -1.3,-3.3 -4,-3.3 -1.6,0 -3.2,0.6 -4.9,1.7 l -1.5,-2.5 c 2.3,-1.4 4,-2.1 7.1,-2.1 4.3,0 6.7,2.2 6.7,5.8 l 0,10.9 -3.5,0 0,-2.1 z m 0,-3.8 0,-1.5 -4.5,0 c -2.3,0 -3.4,0.6 -3.4,2.2 0,1.5 1.2,2.5 3.2,2.5 2.5,-0.1 4.5,-1.4 4.7,-3.2 z" /><path
       id="path585"
       d="m 1290.9,570.8 c -1.3,0.8 -2.7,1.2 -4.1,1.2 -2.5,0 -4.6,-1.4 -4.6,-4.8 l 0,-8.6 -2.3,0 0,-2.7 2.3,0 0,-4.6 3.6,0 0,4.6 4.9,0 0,2.7 -4.9,0 0,7.9 c 0,1.7 0.7,2.2 1.8,2.2 0.7,0 1.5,-0.2 2.5,-0.7 l 0.8,2.8 z" /><path
       id="path587"
       d="m 1304.3,550.5 c 0,1.2 -0.9,2.2 -2.1,2.2 -1.2,0 -2.1,-0.9 -2.1,-2.2 0,-1.3 0.9,-2.2 2.1,-2.2 1.2,0 2.1,0.9 2.1,2.2 z m -3.9,21.3 0,-16.6 3.6,0 0,16.6 -3.6,0 z" /><path
       id="path589"
       d="m 1331.3,563.5 c 0,5 -3.5,8.4 -8.6,8.4 -5.1,0 -8.7,-3.4 -8.7,-8.4 0,-5 3.5,-8.4 8.7,-8.4 5,0 8.6,3.4 8.6,8.4 z m -13.8,0.1 c 0,3.2 2.1,5.4 5.1,5.4 3,0 5,-2.2 5,-5.4 0,-3.2 -2.1,-5.4 -5,-5.4 -3,0 -5.1,2.2 -5.1,5.4 z" /><path
       id="path591"
       d="m 1357.1,561.5 0,10.3 -3.6,0 0,-9.3 c 0,-2.5 -1.5,-4 -4,-4 -2.7,0 -4.5,1.9 -4.7,4.5 l 0,8.8 -3.6,0 0,-16.6 3.6,0 0,3.2 c 1.2,-2.3 3.3,-3.3 6.1,-3.3 3.9,0 6.2,2.4 6.2,6.4 z" /></g><g
     transform="translate(-356.5,-160.5)"
     id="g605"><path
       id="rect607"
       d="m 647.59998,1563.2 57.09999,0 0,12.3 -57.09999,0 z"
       style="fill:#ffffff" /><path
       style="fill:#33393b"
       id="path609"
       d="m 705.1,1576 -58,0 0,-13.2 58,0 0,13.2 z m -57.1,-1 56.2,0 0,-11.4 -56.2,0 0,11.4 z"
       class="st14" /></g><g
     transform="translate(-356.5,-160.5)"
     id="g611"><path
       id="rect613"
       d="m 647.59998,1580.3 57.09999,0 0,12.3 -57.09999,0 z"
       style="fill:#ffffff" /><path
       style="fill:#33393b"
       id="path615"
       d="m 705.1,1593.1 -58,0 0,-13.2 58,0 0,13.2 z m -57.1,-1 56.2,0 0,-11.4 -56.2,0 0,11.4 z"
       class="st14" /></g><g
     transform="translate(-356.5,-160.5)"
     id="g617"><path
       id="rect619"
       d="m 647.59998,1597.4 57.09999,0 0,12.3 -57.09999,0 z"
       style="fill:#ffffff" /><path
       style="fill:#33393b"
       id="path621"
       d="m 705.1,1610.1 -58,0 0,-13.2 58,0 0,13.2 z m -57.1,-0.9 56.2,0 0,-11.4 -56.2,0 0,11.4 z"
       class="st14" /></g><g
     transform="translate(-356.5,-160.5)"
     id="g623"><path
       id="rect625"
       d="m 675.70001,1615.5 0.9,0 0,9.1 -0.9,0 z"
       style="fill:#33393b" /></g><g
     transform="translate(-356.5,-160.5)"
     id="g627"><path
       id="rect629"
       d="m 649.20001,1624.2 55.5,0 0,0.9 -55.5,0 z"
       style="fill:#33393b" /></g><g
     transform="translate(-356.5,-160.5)"
     id="g631"><path
       id="circle633"
       d="m 677.99998,1624.6 a 1.9,1.9 0 0 1 -1.9,1.9 1.9,1.9 0 0 1 -1.9,-1.9 1.9,1.9 0 0 1 1.9,-1.9 1.9,1.9 0 0 1 1.9,1.9 z"
       style="fill:#33393b" /></g><g
     transform="translate(-356.5,-160.5)"
     id="g635"><path
       id="circle637"
       d="m 655.3,1569.4 a 1.8,1.8 0 0 1 -1.8,1.8 1.8,1.8 0 0 1 -1.8,-1.8 1.8,1.8 0 0 1 1.8,-1.8 1.8,1.8 0 0 1 1.8,1.8 z"
       style="fill:#33393b" /></g><g
     transform="translate(-356.5,-160.5)"
     id="g639"><path
       id="circle641"
       d="m 661.39998,1569.4 a 1.8,1.8 0 0 1 -1.8,1.8 1.8,1.8 0 0 1 -1.8,-1.8 1.8,1.8 0 0 1 1.8,-1.8 1.8,1.8 0 0 1 1.8,1.8 z"
       style="fill:#33393b" /></g><g
     transform="translate(-356.5,-160.5)"
     id="g643"><path
       id="circle645"
       d="m 667.39998,1569.4 a 1.8,1.8 0 0 1 -1.8,1.8 1.8,1.8 0 0 1 -1.8,-1.8 1.8,1.8 0 0 1 1.8,-1.8 1.8,1.8 0 0 1 1.8,1.8 z"
       style="fill:#33393b" /></g><g
     transform="translate(-356.5,-160.5)"
     id="g647"><path
       id="circle649"
       d="m 700.50001,1569.4 a 1.8,1.8 0 0 1 -1.8,1.8 1.8,1.8 0 0 1 -1.8,-1.8 1.8,1.8 0 0 1 1.8,-1.8 1.8,1.8 0 0 1 1.8,1.8 z"
       style="fill:#ff3b4a" /></g><g
     transform="translate(-356.5,-160.5)"
     id="g651"><path
       id="circle653"
       d="m 655.3,1586.4 a 1.8,1.8 0 0 1 -1.8,1.8 1.8,1.8 0 0 1 -1.8,-1.8 1.8,1.8 0 0 1 1.8,-1.8 1.8,1.8 0 0 1 1.8,1.8 z"
       style="fill:#33393b" /></g><g
     transform="translate(-356.5,-160.5)"
     id="g655"><path
       id="circle657"
       d="m 661.39998,1586.4 a 1.8,1.8 0 0 1 -1.8,1.8 1.8,1.8 0 0 1 -1.8,-1.8 1.8,1.8 0 0 1 1.8,-1.8 1.8,1.8 0 0 1 1.8,1.8 z"
       style="fill:#33393b" /></g><g
     transform="translate(-356.5,-160.5)"
     id="g659"><path
       id="circle661"
       d="m 667.39998,1586.4 a 1.8,1.8 0 0 1 -1.8,1.8 1.8,1.8 0 0 1 -1.8,-1.8 1.8,1.8 0 0 1 1.8,-1.8 1.8,1.8 0 0 1 1.8,1.8 z"
       style="fill:#33393b" /></g><g
     transform="translate(-356.5,-160.5)"
     id="g663"><path
       id="circle665"
       d="m 700.50001,1586.4 a 1.8,1.8 0 0 1 -1.8,1.8 1.8,1.8 0 0 1 -1.8,-1.8 1.8,1.8 0 0 1 1.8,-1.8 1.8,1.8 0 0 1 1.8,1.8 z"
       style="fill:#ff3b4a" /></g><g
     transform="translate(-356.5,-160.5)"
     id="g667"><path
       id="circle669"
       d="m 655.3,1603.6 a 1.8,1.8 0 0 1 -1.8,1.8 1.8,1.8 0 0 1 -1.8,-1.8 1.8,1.8 0 0 1 1.8,-1.8 1.8,1.8 0 0 1 1.8,1.8 z"
       style="fill:#33393b" /></g><g
     transform="translate(-356.5,-160.5)"
     id="g671"><path
       id="circle673"
       d="m 651.00001,1624.6 a 1.8,1.8 0 0 1 -1.8,1.8 1.8,1.8 0 0 1 -1.8,-1.8 1.8,1.8 0 0 1 1.8,-1.8 1.8,1.8 0 0 1 1.8,1.8 z"
       style="fill:#33393b" /></g><g
     transform="translate(-356.5,-160.5)"
     id="g675"><path
       id="circle677"
       d="m 706.50001,1624.6 a 1.8,1.8 0 0 1 -1.8,1.8 1.8,1.8 0 0 1 -1.8,-1.8 1.8,1.8 0 0 1 1.8,-1.8 1.8,1.8 0 0 1 1.8,1.8 z"
       style="fill:#33393b" /></g><g
     transform="translate(-356.5,-160.5)"
     id="g679"><path
       id="circle681"
       d="m 677.89998,1615.5 a 1.8,1.8 0 0 1 -1.8,1.8 1.8,1.8 0 0 1 -1.8,-1.8 1.8,1.8 0 0 1 1.8,-1.8 1.8,1.8 0 0 1 1.8,1.8 z"
       style="fill:#33393b" /></g><g
     transform="translate(-356.5,-160.5)"
     id="g683"><path
       id="circle685"
       d="m 661.39998,1603.6 a 1.8,1.8 0 0 1 -1.8,1.8 1.8,1.8 0 0 1 -1.8,-1.8 1.8,1.8 0 0 1 1.8,-1.8 1.8,1.8 0 0 1 1.8,1.8 z"
       style="fill:#33393b" /></g><g
     transform="translate(-356.5,-160.5)"
     id="g687"><path
       id="circle689"
       d="m 667.39998,1603.6 a 1.8,1.8 0 0 1 -1.8,1.8 1.8,1.8 0 0 1 -1.8,-1.8 1.8,1.8 0 0 1 1.8,-1.8 1.8,1.8 0 0 1 1.8,1.8 z"
       style="fill:#33393b" /></g><g
     transform="translate(-356.5,-160.5)"
     id="g691"><path
       id="circle693"
       d="m 700.50001,1603.6 a 1.8,1.8 0 0 1 -1.8,1.8 1.8,1.8 0 0 1 -1.8,-1.8 1.8,1.8 0 0 1 1.8,-1.8 1.8,1.8 0 0 1 1.8,1.8 z"
       style="fill:#ff3b4a" /></g><line
     style="fill:none;stroke:#00b4f0;stroke-miterlimit:10"
     id="line695"
     y2="496.40002"
     x2="1258.2"
     y1="197.60001"
     x1="1258.2"
     class="st9" /><line
     style="fill:none;stroke:#ff3a4b;stroke-miterlimit:10"
     id="line927"
     y2="572.90002"
     x2="455.5"
     y1="572.90002"
     x1="397.79999"
     class="st0" /><line
     style="fill:none;stroke:#ff3a4b;stroke-miterlimit:10"
     id="line929"
     y2="706.79999"
     x2="589.70001"
     y1="649.20001"
     x1="589.70001"
     class="st0" /><line
     style="fill:none;stroke:#ff3a4b;stroke-miterlimit:10"
     id="line931"
     y2="917.5"
     x2="589.70001"
     y1="859.79999"
     x1="589.70001"
     class="st0" /><polygon
     transform="translate(-356.5,-160.5)"
     style="fill:#33393b"
     id="polygon933"
     points="637,634.3 618.2,659.2 599.3,634.3 "
     class="st14" /><polygon
     transform="translate(-356.5,-160.5)"
     style="fill:#33393b"
     id="polygon935"
     points="602.8,1247.3 614.2,1232.3 625.6,1247.3 "
     class="st14" /><line
     style="fill:none;stroke:#33393b;stroke-miterlimit:10"
     id="line937"
     y2="1086.8"
     x2="257.70001"
     y1="1126.5"
     x1="257.70001"
     class="st17" /><polygon
     transform="translate(-356.5,-160.5)"
     style="fill:#33393b"
     id="polygon939"
     points="625.6,1482.6 614.2,1497.6 602.8,1482.6 "
     class="st14" /><line
     style="fill:none;stroke:#33393b;stroke-miterlimit:10"
     id="line941"
     y2="1322.1"
     x2="257.70001"
     y1="1282.4"
     x1="257.70001"
     class="st17" /><polygon
     transform="translate(-356.5,-160.5)"
     style="fill:#33393b"
     id="polygon943"
     points="955.6,1484.1 944.2,1499.1 932.8,1484.1 "
     class="st14" /><line
     style="fill:none;stroke:#33393b;stroke-miterlimit:10"
     id="line945"
     y2="1323.6"
     x2="587.70001"
     y1="1283.9"
     x1="587.70001"
     class="st17" /><polygon
     transform="translate(-356.5,-160.5)"
     style="fill:#33393b"
     id="polygon947"
     points="932.8,1247.3 944.2,1232.3 955.6,1247.3 "
     class="st14" /><polygon
     transform="translate(-356.5,-160.5)"
     style="fill:#33393b"
     id="polygon949"
     points="955.6,1272 944.2,1287 932.8,1272 "
     class="st14" /><line
     style="fill:none;stroke:#33393b;stroke-miterlimit:10"
     id="line951"
     y2="1086.8"
     x2="587.70001"
     y1="1126.5"
     x1="587.70001"
     class="st17" /><g
     transform="translate(-356.5,-160.5)"
     id="g953"><path
       id="path955"
       d="m 776.4,714.9 5.5,0 0,-13.9 -4.2,0 0,-2 c 2.2,-0.3 3.7,-0.8 5.1,-1.6 l 2.3,0 0,17.4 5.1,0 0,2.5 -13.6,0 0,-2.4 z" /></g><g
     transform="translate(-356.5,-160.5)"
     id="g957"><path
       id="path959"
       d="m 641.7,1059.4 5.5,0 0,-13.9 -4.2,0 0,-1.9 c 2.2,-0.3 3.7,-0.8 5.1,-1.6 l 2.3,0 0,17.4 5.1,0 0,2.5 -13.6,0 0,-2.5 z" /></g><g
     transform="translate(-356.5,-160.5)"
     id="g961"><path
       id="path963"
       d="m 639.7,833.6 2.5,0 0.3,2.5 0.1,0 c 1.5,-1.6 3.3,-2.9 5.6,-2.9 3.6,0 5.2,2.2 5.2,6.2 l 0,9.5 -3.1,0 0,-9.1 c 0,-2.7 -0.9,-3.9 -3.2,-3.9 -1.6,0 -2.8,0.8 -4.4,2.4 l 0,10.6 -3.1,0 0,-15.3 z" /></g><line
     style="fill:none;stroke:#ff3a4b;stroke-miterlimit:10"
     id="line965"
     y2="706.79999"
     x2="261.70001"
     y1="649.40002"
     x1="261.70001"
     class="st0" /><line
     style="fill:none;stroke:#ff3a4b;stroke-miterlimit:10"
     id="line967"
     y2="917.40002"
     x2="259.70001"
     y1="859.90002"
     x1="259.70001"
     class="st0" /></svg>