<?xml version="1.0" encoding="UTF-8" standalone="no"?>
<!-- Created with Inkscape (http://www.inkscape.org/) -->

<svg
   xmlns:dc="http://purl.org/dc/elements/1.1/"
   xmlns:cc="http://creativecommons.org/ns#"
   xmlns:rdf="http://www.w3.org/1999/02/22-rdf-syntax-ns#"
   xmlns:svg="http://www.w3.org/2000/svg"
   xmlns="http://www.w3.org/2000/svg"
   xmlns:xlink="http://www.w3.org/1999/xlink"
   xmlns:sodipodi="http://sodipodi.sourceforge.net/DTD/sodipodi-0.dtd"
   xmlns:inkscape="http://www.inkscape.org/namespaces/inkscape"
   width="210mm"
   height="297mm"
   id="svg1901"
   sodipodi:version="0.32"
   inkscape:version="0.91 r"
   sodipodi:docname="slider-example1.svg"
   inkscape:output_extension="org.inkscape.output.svg.inkscape"
   version="1.1">
  <defs
     id="defs1903">
    <inkscape:perspective
       sodipodi:type="inkscape:persp3d"
       inkscape:vp_x="0 : 526.18109 : 1"
       inkscape:vp_y="0 : 1000 : 0"
       inkscape:vp_z="744.09448 : 526.18109 : 1"
       inkscape:persp3d-origin="372.04724 : 350.78739 : 1"
       id="perspective7" />
    <inkscape:perspective
       id="perspective2461"
       inkscape:persp3d-origin="372.04724 : 350.78739 : 1"
       inkscape:vp_z="744.09448 : 526.18109 : 1"
       inkscape:vp_y="0 : 1000 : 0"
       inkscape:vp_x="0 : 526.18109 : 1"
       sodipodi:type="inkscape:persp3d" />
    <inkscape:perspective
       id="perspective2579"
       inkscape:persp3d-origin="372.04724 : 350.78739 : 1"
       inkscape:vp_z="744.09448 : 526.18109 : 1"
       inkscape:vp_y="0 : 1000 : 0"
       inkscape:vp_x="0 : 526.18109 : 1"
       sodipodi:type="inkscape:persp3d" />
    <linearGradient
       id="linearGradient7607"
       y2="471.38"
       spreadMethod="reflect"
       gradientUnits="userSpaceOnUse"
       y1="45.132999"
       gradientTransform="matrix(0.75592,0,0,1.3229,-36,0)"
       x2="1370.6"
       x1="-526.85999"
       inkscape:collect="always">
      <stop
         id="stop7603"
         style="stop-color:#000000"
         offset="0" />
      <stop
         id="stop7605"
         style="stop-color:#000000;stop-opacity:0"
         offset="1" />
    </linearGradient>
  </defs>
  <sodipodi:namedview
     id="base"
     pagecolor="#ffffff"
     bordercolor="#666666"
     borderopacity="1.0"
     inkscape:pageopacity="0.0"
     inkscape:pageshadow="2"
     inkscape:zoom="1.4"
     inkscape:cx="212.24603"
     inkscape:cy="847.82098"
     inkscape:document-units="px"
     inkscape:current-layer="layer1"
     gridtolerance="10000"
     inkscape:window-width="1116"
     inkscape:window-height="882"
     inkscape:window-x="800"
     inkscape:window-y="153"
     showgrid="false"
     inkscape:window-maximized="0" />
  <metadata
     id="metadata1906">
    <rdf:RDF>
      <cc:Work
         rdf:about="">
        <dc:format>image/svg+xml</dc:format>
        <dc:type
           rdf:resource="http://purl.org/dc/dcmitype/StillImage" />
      </cc:Work>
    </rdf:RDF>
  </metadata>
  <g
     inkscape:label="Taso 1"
     inkscape:groupmode="layer"
     id="layer1"
     style="opacity:1">
    <rect
       style="color:#000000;display:inline;overflow:visible;visibility:visible;fill:#ffffff;fill-opacity:1;fill-rule:nonzero;stroke:none;stroke-width:3;stroke-linecap:butt;stroke-linejoin:miter;stroke-miterlimit:4;stroke-dasharray:none;stroke-dashoffset:0;stroke-opacity:1;marker:none;enable-background:accumulate"
       id="rect3344"
       width="249"
       height="236"
       x="67.505424"
       y="64.081154" />
    <image
       sodipodi:absref="/home/magi/itmill/vaadin/documentation/components/original-drawings/../img/slider-orig.png"
       xlink:href="../img/slider-orig.png"
       y="64.081154"
       x="67.505424"
       id="image2463"
       height="236"
       width="249" />
    <g
       transform="matrix(0.04895833,0,0,0.04895833,85.307423,133.89853)"
       id="g1317">
      <path
         id="path6080"
         style="fill:url(#linearGradient7607)"
         inkscape:connector-curvature="0"
         d="m 70.29,24.826 v 602.34 h 35.44 v -35.44 h 35.44 v -35.4 h 35.4 v -35.44 h 70.88 v 70.84 h 35.43 v 70.88 h 35.44 v 70.87 h 35.44 v 35.44 h 70.84 v -35.44 h 35.44 v -70.87 H 424.6 v -70.88 h -35.4 v -70.84 h -35.44 v -70.88 h 141.72 v -35.43 h -35.44 v -35.44 H 424.6 v -35.44 h -35.4 v -35.41 h -35.44 v -35.43 h -35.44 v -35.44 h -35.44 v -35.44 h -35.43 v -35.44 h -35.44 v -35.43 h -35.44 v -35.44 h -35.4 V 60.256 H 105.73 V 24.818 H 70.29 z" />
      <path
         id="rect1430"
         style="fill:#000000;fill-rule:evenodd"
         inkscape:connector-curvature="0"
         d="m 35.438,24.812 v 602.35 h 35.437 v -35.44 h 35.435 v -35.41 H 70.875 V 95.662 L 106.31,95.66 V 60.254 H 70.875 V 24.816 H 35.438 z m 70.872,70.844 v 35.434 h 35.41 V 95.656 h -35.41 z m 35.41,35.434 v 35.44 h 35.44 v -35.44 h -35.44 z m 35.44,35.44 v 35.44 h 35.43 v -35.44 h -35.43 z m 35.43,35.44 v 35.44 h 35.44 v -35.44 h -35.44 z m 35.44,35.44 v 35.43 h 35.44 v -35.43 h -35.44 z m 35.44,35.43 v 35.44 h 35.44 v -35.44 h -35.44 z m 35.44,35.44 v 35.41 h 35.43 v -35.41 h -35.43 z m 35.43,35.41 v 35.43 h 35.41 v -35.43 h -35.41 z m 35.41,35.43 v 35.44 H 283.47 v 106.32 h 35.44 V 450 h 141.71 v -35.44 h -35.43 v -35.44 h -35.44 z m -70.84,141.76 v 70.84 h 35.43 v -70.84 h -35.43 z m 35.43,70.84 v 70.87 h 35.41 v -70.87 h -35.41 z m 35.41,70.87 v 70.88 h 35.44 v -70.88 h -35.44 z m 0,70.88 h -70.84 v 35.44 h 70.84 v -35.44 z m -70.84,0 v -70.88 h -35.44 v 70.88 h 35.44 z m -35.44,-70.88 v -70.87 h -35.44 v 70.87 h 35.44 z m -35.44,-70.87 v -70.84 h -35.44 v 70.84 h 35.44 z M 212.59,520.88 V 450 h -35.43 v 35.44 h -35.44 v 35.44 h 70.87 z m -70.87,0 h -35.41 v 35.43 h 35.41 v -35.43 z" />
      <path
         id="rect3779"
         style="fill:#ffffff"
         inkscape:connector-curvature="0"
         d="m 70.875,95.656 v 460.65 h 35.435 v -35.43 h 35.41 v -35.44 h 35.44 v -35.44 h 35.43 v 70.88 h 35.44 v 70.84 h 35.44 v 70.87 h 35.44 v 70.88 h 70.84 v -70.88 h -35.41 v -70.87 h -35.43 v -70.84 h -35.44 v -106.32 h 106.28 v -35.44 h -35.41 v -35.43 h -35.43 v -35.41 h -35.44 v -35.44 h -35.44 v -35.43 h -35.44 v -35.44 h -35.43 v -35.44 h -35.44 v -35.44 H 106.31 V 95.648 H 70.875 z" />
    </g>
  </g>
</svg>
