<?xml version="1.0" encoding="UTF-8" standalone="no"?>
<!-- Created with Inkscape (http://www.inkscape.org/) -->

<svg
   xmlns:dc="http://purl.org/dc/elements/1.1/"
   xmlns:cc="http://creativecommons.org/ns#"
   xmlns:rdf="http://www.w3.org/1999/02/22-rdf-syntax-ns#"
   xmlns:svg="http://www.w3.org/2000/svg"
   xmlns="http://www.w3.org/2000/svg"
   xmlns:xlink="http://www.w3.org/1999/xlink"
   xmlns:sodipodi="http://sodipodi.sourceforge.net/DTD/sodipodi-0.dtd"
   xmlns:inkscape="http://www.inkscape.org/namespaces/inkscape"
   width="210mm"
   height="297mm"
   id="svg1901"
   sodipodi:version="0.32"
   inkscape:version="0.48.2 r9819"
   sodipodi:docname="tooltip-richtext-withpointer.svg"
   inkscape:output_extension="org.inkscape.output.svg.inkscape"
   version="1.1">
  <defs
     id="defs1903">
    <inkscape:perspective
       sodipodi:type="inkscape:persp3d"
       inkscape:vp_x="0 : 526.18109 : 1"
       inkscape:vp_y="0 : 1000 : 0"
       inkscape:vp_z="744.09448 : 526.18109 : 1"
       inkscape:persp3d-origin="372.04724 : 350.78739 : 1"
       id="perspective7" />
    <inkscape:perspective
       id="perspective2444"
       inkscape:persp3d-origin="372.04724 : 350.78739 : 1"
       inkscape:vp_z="744.09448 : 526.18109 : 1"
       inkscape:vp_y="0 : 1000 : 0"
       inkscape:vp_x="0 : 526.18109 : 1"
       sodipodi:type="inkscape:persp3d" />
    <linearGradient
       y2="471.38400"
       y1="45.132561"
       xlink:href="#linearGradient7601"
       x2="1370.5586"
       x1="-526.86133"
       spreadMethod="reflect"
       inkscape:collect="always"
       id="linearGradient10877"
       gradientUnits="userSpaceOnUse"
       gradientTransform="matrix(8.892150e-2,0.000000,0.000000,0.155616,635.7169,9.380527)" />
    <linearGradient
       y2="471.38400"
       y1="45.132561"
       xlink:href="#linearGradient7601"
       x2="1370.5586"
       x1="-526.86133"
       spreadMethod="reflect"
       inkscape:collect="always"
       id="linearGradient10869"
       gradientUnits="userSpaceOnUse"
       gradientTransform="matrix(0.323979,0.000000,0.000000,0.566975,399.6324,14.15086)" />
    <linearGradient
       y2="471.38400"
       y1="45.132561"
       xlink:href="#linearGradient7601"
       x2="1370.5586"
       x1="-526.86133"
       spreadMethod="reflect"
       inkscape:collect="always"
       id="linearGradient7607"
       gradientUnits="userSpaceOnUse"
       gradientTransform="matrix(0.755921,0,0,1.32289,-36,0)" />
    <linearGradient
       inkscape:collect="always"
       id="linearGradient7601">
      <stop
         style="stop-color:#000000;stop-opacity:1;"
         offset="0"
         id="stop7603" />
      <stop
         style="stop-color:#000000;stop-opacity:0;"
         offset="1"
         id="stop7605" />
    </linearGradient>
    <inkscape:perspective
       id="perspective2581"
       inkscape:persp3d-origin="372.04724 : 350.78739 : 1"
       inkscape:vp_z="744.09448 : 526.18109 : 1"
       inkscape:vp_y="0 : 1000 : 0"
       inkscape:vp_x="0 : 526.18109 : 1"
       sodipodi:type="inkscape:persp3d" />
    <inkscape:perspective
       id="perspective2694"
       inkscape:persp3d-origin="372.04724 : 350.78739 : 1"
       inkscape:vp_z="744.09448 : 526.18109 : 1"
       inkscape:vp_y="0 : 1000 : 0"
       inkscape:vp_x="0 : 526.18109 : 1"
       sodipodi:type="inkscape:persp3d" />
  </defs>
  <sodipodi:namedview
     id="base"
     pagecolor="#ffffff"
     bordercolor="#666666"
     borderopacity="1.0"
     inkscape:pageopacity="0.0"
     inkscape:pageshadow="2"
     inkscape:zoom="1.9641855"
     inkscape:cx="354.71787"
     inkscape:cy="838.70549"
     inkscape:document-units="px"
     inkscape:current-layer="layer1"
     gridtolerance="10000"
     inkscape:window-width="1214"
     inkscape:window-height="851"
     inkscape:window-x="67"
     inkscape:window-y="53"
     showgrid="false"
     inkscape:window-maximized="0" />
  <metadata
     id="metadata1906">
    <rdf:RDF>
      <cc:Work
         rdf:about="">
        <dc:format>image/svg+xml</dc:format>
        <dc:type
           rdf:resource="http://purl.org/dc/dcmitype/StillImage" />
      </cc:Work>
    </rdf:RDF>
  </metadata>
  <g
     inkscape:label="Taso 1"
     inkscape:groupmode="layer"
     id="layer1"
     style="opacity:1">
    <image
       sodipodi:absref="/home/magi/itmill/book-7/manual/original-drawings/components/../../img/components/tooltip-richtext.png"
       xlink:href="../img/tooltip-richtext.png"
       height="139.87039"
       width="253.29762"
       id="image2696"
       x="273.8241"
       y="149.4536" />
    <g
       style="display:inline"
       inkscape:label="Layer 1"
       id="g2590"
       transform="matrix(0.02617234,0,0,0.02617234,326.04499,174.47285)">
      <g
         id="g1317">
        <path
           style="fill:url(#linearGradient7607);fill-opacity:1;fill-rule:nonzero;stroke:none;display:inline"
           id="path6080"
           d="m 70.29035,24.82601 0,602.34375 35.4375,0 0,-35.4375 35.4375,0 0,-35.40625 35.40625,0 0,-35.4375 35.4375,0 35.4375,0 0,70.84375 35.4375,0 0,70.875 35.4375,0 0,70.875 35.4375,0 0,35.4375 70.84375,0 0,-35.4375 35.4375,0 0,-70.875 -35.4375,0 0,-70.875 -35.40625,0 0,-70.84375 -35.4375,0 0,-70.875 141.71875,0 0,-35.4375 -35.4375,0 0,-35.4375 -35.4375,0 0,-35.4375 -35.40625,0 0,-35.40625 -35.4375,0 0,-35.4375 -35.4375,0 0,-35.4375 -35.4375,0 0,-35.4375 -35.4375,0 0,-35.4375 -35.4375,0 0,-35.4375 -35.4375,0 0,-35.437499 -35.40625,0 0,-35.406251 -35.4375,0 0,-35.4375 -35.4375,0 z"
           inkscape:connector-curvature="0" />
        <path
           style="fill:#000000;fill-opacity:1;fill-rule:evenodd;stroke:none"
           id="rect1430"
           d="m 35.4375,24.8125 0,602.34375 35.4375,0 0,-35.4375 35.4375,0 0,-35.40625 -35.4375,0 0,-460.65625 35.4375,0 0,-35.40625 -35.4375,0 0,-35.4375 -35.4375,0 z m 70.875,70.84375 0,35.4375 35.40625,0 0,-35.4375 -35.40625,0 z m 35.40625,35.4375 0,35.4375 35.4375,0 0,-35.4375 -35.4375,0 z m 35.4375,35.4375 0,35.4375 35.4375,0 0,-35.4375 -35.4375,0 z m 35.4375,35.4375 0,35.4375 35.4375,0 0,-35.4375 -35.4375,0 z m 35.4375,35.4375 0,35.4375 35.4375,0 0,-35.4375 -35.4375,0 z m 35.4375,35.4375 0,35.4375 35.4375,0 0,-35.4375 -35.4375,0 z m 35.4375,35.4375 0,35.40625 35.4375,0 0,-35.40625 -35.4375,0 z m 35.4375,35.40625 0,35.4375 35.40625,0 0,-35.4375 -35.40625,0 z m 35.40625,35.4375 0,35.4375 -106.28125,0 0,35.4375 0,70.875 35.4375,0 0,-70.875 141.71875,0 0,-35.4375 -35.4375,0 0,-35.4375 -35.4375,0 z m -70.84375,141.75 0,70.84375 35.4375,0 0,-70.84375 -35.4375,0 z m 35.4375,70.84375 0,70.875 35.40625,0 0,-70.875 -35.40625,0 z m 35.40625,70.875 0,70.875 35.4375,0 0,-70.875 -35.4375,0 z m 0,70.875 -70.84375,0 0,35.4375 70.84375,0 0,-35.4375 z m -70.84375,0 0,-70.875 -35.4375,0 0,70.875 35.4375,0 z m -35.4375,-70.875 0,-70.875 -35.4375,0 0,70.875 35.4375,0 z m -35.4375,-70.875 0,-70.84375 -35.4375,0 0,70.84375 35.4375,0 z m -35.4375,-70.84375 0,-70.875 -35.4375,0 0,35.4375 -35.4375,0 0,35.4375 35.4375,0 35.4375,0 z m -70.875,0 -35.40625,0 0,35.4375 35.40625,0 0,-35.4375 z"
           inkscape:connector-curvature="0" />
        <path
           style="fill:#ffffff;fill-opacity:1;stroke:none"
           id="rect3779"
           d="m 70.875,95.65625 0,460.65625 35.4375,0 0,-35.4375 35.40625,0 0,-35.4375 35.4375,0 0,-35.4375 35.4375,0 0,70.875 35.4375,0 0,70.84375 35.4375,0 0,70.875 35.4375,0 0,70.875 35.4375,0 35.40625,0 0,-70.875 -35.40625,0 0,-70.875 -35.4375,0 0,-70.84375 -35.4375,0 0,-106.3125 35.4375,0 35.4375,0 35.40625,0 0,-35.4375 -35.40625,0 0,-35.4375 -35.4375,0 0,-35.40625 -35.4375,0 0,-35.4375 -35.4375,0 0,-35.4375 -35.4375,0 0,-35.4375 -35.4375,0 0,-35.4375 -35.4375,0 0,-35.4375 -35.40625,0 0,-35.4375 -35.4375,0 z"
           inkscape:connector-curvature="0" />
      </g>
    </g>
  </g>
</svg>
